M48
; DRILL file {KiCad (5.99.0-1678-g980aefea4-dirty)} date 06/13/20 12:10:49
; FORMAT={-:-/ absolute / inch / decimal}
; #@! TF.CreationDate,2020-06-13T12:10:49+02:00
; #@! TF.GenerationSoftware,Kicad,Pcbnew,(5.99.0-1678-g980aefea4-dirty)
; #@! TF.FileFunction,Plated,1,2,PTH
FMAT,2
INCH
T1C0.0157
T2C0.0236
T3C0.0315
T4C0.0354
T5C0.0394
T6C0.0472
T7C0.0598
T8C0.0630
T9C0.0866
%
G90
G05
T1
X5.52Y-3.98
X5.71Y-3.12
X5.73Y-4.13
X5.73Y-4.29
X5.73Y-4.45
X5.73Y-4.59
X5.8699Y-2.8699
X5.87Y-3.43
X5.87Y-4.03
X5.9065Y-3.1073
X6.07Y-2.97
X6.1043Y-3.2343
X6.1043Y-3.3829
X6.11Y-3.48
X6.21Y-2.97
X6.335Y-3.46
X6.35Y-3.64
X6.35Y-3.81
X6.5295Y-3.6457
X6.5876Y-3.6447
X6.65Y-3.04
X6.73Y-3.0768
X6.73Y-3.13
X6.94Y-3.1
X7.0679Y-3.1654
X7.0679Y-3.2165
X7.12Y-3.45
X7.2923Y-3.186
X7.33Y-4.24
X7.33Y-4.39
X7.3514Y-3.0335
T2
X4.158Y-4.1999
X4.3549Y-4.2511
T3
X5.5962Y-4.2149
X5.5962Y-4.6149
X5.5965Y-3.7175
X5.5965Y-4.1175
X6.5572Y-4.2157
X6.5572Y-4.6157
X6.4191Y-4.2172
X6.4191Y-4.6172
X6.9691Y-4.2176
X6.9691Y-4.6176
X6.6919Y-4.2165
X6.6919Y-4.6165
X5.8671Y-4.2188
X5.8671Y-4.6188
X6.558Y-3.7228
X5.46Y-3.72
X5.46Y-4.12
X6.6962Y-3.7196
X6.6962Y-4.1196
X6.558Y-4.1228
X4.54Y-4.73
X4.94Y-4.73
X6.1407Y-3.7243
X6.1407Y-4.1243
X6.1419Y-4.2172
X6.1419Y-4.6172
X5.8679Y-3.7243
X5.8679Y-4.1243
X6.0049Y-3.7271
X6.832Y-4.218
X6.2789Y-3.7247
X6.2789Y-4.1247
X6.4198Y-3.722
X6.4198Y-4.122
X6.832Y-4.618
X6.9757Y-3.7192
X6.9757Y-4.1192
X7.1084Y-4.2169
X7.1084Y-4.6169
X6.0049Y-4.1271
X6.8332Y-3.7231
X6.8332Y-4.1231
X6.0049Y-4.2172
X6.0049Y-4.6172
X4.54Y-4.89
X6.2797Y-4.2169
X4.94Y-4.89
X5.12Y-4.68
X5.12Y-4.98
X5.22Y-4.68
X5.22Y-4.98
X5.32Y-4.68
X5.32Y-4.98
X7.1135Y-3.72
X7.1135Y-4.12
X6.2797Y-4.6169
X5.4572Y-4.2129
X5.4572Y-4.6129
T4
X4.6389Y-3.8909
X4.6389Y-4.4789
X5.2409Y-4.0829
X5.2409Y-4.2849
T5
X7.502Y-4.2087
X5.5069Y-3.4326
X5.7069Y-3.433
X4.158Y-3.942
X4.358Y-3.9424
X4.1387Y-3.2393
X4.1387Y-3.4361
X5.2962Y-3.0346
X5.2962Y-3.6409
X7.503Y-4.0443
X7.502Y-3.0433
X7.5049Y-3.2037
T6
X5.8667Y-4.8594
X6.0045Y-4.8594
X6.1423Y-4.8594
X6.2801Y-4.8594
X6.4179Y-4.8594
X6.5557Y-4.8594
X6.6935Y-4.8594
X6.8313Y-4.8594
X6.9691Y-4.8594
X7.1069Y-4.8594
T7
X4.27Y-4.4161
X4.27Y-4.6161
X4.27Y-4.8161
T8
X7.3671Y-3.4478
X7.3671Y-3.5856
X7.3671Y-3.7234
T9
X7.46Y-5.05
X7.47Y-2.83
X4.17Y-5.05
X4.18Y-2.83
T0
M30
