G04 #@! TF.GenerationSoftware,KiCad,Pcbnew,(5.99.0-1678-g980aefea4-dirty)*
G04 #@! TF.CreationDate,2020-06-13T12:10:46+02:00*
G04 #@! TF.ProjectId,monitor_ESP32,6d6f6e69-746f-4725-9f45-535033322e6b,rev?*
G04 #@! TF.SameCoordinates,Original*
G04 #@! TF.FileFunction,Soldermask,Bot*
G04 #@! TF.FilePolarity,Negative*
%FSLAX46Y46*%
G04 Gerber Fmt 4.6, Leading zero omitted, Abs format (unit mm)*
G04 Created by KiCad (PCBNEW (5.99.0-1678-g980aefea4-dirty)) date 2020-06-13 12:10:46*
%MOMM*%
%LPD*%
G01*
G04 APERTURE LIST*
%ADD10O,1.902000X3.702000*%
%ADD11O,2.702000X2.102000*%
%ADD12C,3.902000*%
%ADD13C,2.102000*%
%ADD14C,1.702000*%
%ADD15O,1.702000X1.702000*%
%ADD16C,3.102000*%
%ADD17O,1.702000X2.502000*%
G04 APERTURE END LIST*
D10*
X180514000Y-123428000D03*
X177014000Y-123428000D03*
X173514000Y-123428000D03*
X170014000Y-123428000D03*
X166514000Y-123428000D03*
X163014000Y-123428000D03*
X159514000Y-123428000D03*
X156014000Y-123428000D03*
X152514000Y-123428000D03*
G36*
G01*
X148063000Y-125228000D02*
X148063000Y-121628000D01*
G75*
G02*
X148114000Y-121577000I51000J0D01*
G01*
X149914000Y-121577000D01*
G75*
G02*
X149965000Y-121628000I0J-51000D01*
G01*
X149965000Y-125228000D01*
G75*
G02*
X149914000Y-125279000I-51000J0D01*
G01*
X148114000Y-125279000D01*
G75*
G02*
X148063000Y-125228000I0J51000D01*
G01*
G37*
D11*
X187125000Y-94575000D03*
X187125000Y-91075000D03*
G36*
G01*
X185825000Y-86524000D02*
X188425000Y-86524000D01*
G75*
G02*
X188476000Y-86575000I0J-51000D01*
G01*
X188476000Y-88575000D01*
G75*
G02*
X188425000Y-88626000I-51000J0D01*
G01*
X185825000Y-88626000D01*
G75*
G02*
X185774000Y-88575000I0J51000D01*
G01*
X185774000Y-86575000D01*
G75*
G02*
X185825000Y-86524000I51000J0D01*
G01*
G37*
D12*
X189484000Y-128270000D03*
X189738000Y-71882000D03*
X105918000Y-128270000D03*
X106172000Y-71882000D03*
D13*
X190550000Y-106900000D03*
D14*
X105614000Y-106678000D03*
G36*
G01*
X111465000Y-107178000D02*
X111465000Y-108778000D01*
G75*
G02*
X111414000Y-108829000I-51000J0D01*
G01*
X109814000Y-108829000D01*
G75*
G02*
X109763000Y-108778000I0J51000D01*
G01*
X109763000Y-107178000D01*
G75*
G02*
X109814000Y-107127000I51000J0D01*
G01*
X111414000Y-107127000D01*
G75*
G02*
X111465000Y-107178000I0J-51000D01*
G01*
G37*
D15*
X142150000Y-104585000D03*
D14*
X142150000Y-94425000D03*
D15*
X142144000Y-107058000D03*
D14*
X142144000Y-117218000D03*
D15*
X155974000Y-104758000D03*
D14*
X155974000Y-94598000D03*
D15*
X159484000Y-94608000D03*
D14*
X159484000Y-104768000D03*
D15*
X149044000Y-104758000D03*
D14*
X149044000Y-94598000D03*
D15*
X152524000Y-94668000D03*
D14*
X152524000Y-104828000D03*
D15*
X156004000Y-117278000D03*
D14*
X156004000Y-107118000D03*
D15*
X149024000Y-117318000D03*
D14*
X149024000Y-107158000D03*
D15*
X159504000Y-117268000D03*
D14*
X159504000Y-107108000D03*
D15*
X152524000Y-117278000D03*
D14*
X152524000Y-107118000D03*
D15*
X138614000Y-117168000D03*
D14*
X138614000Y-107008000D03*
D15*
X138684000Y-94488000D03*
D14*
X138684000Y-104648000D03*
D15*
X177184000Y-104628000D03*
D14*
X177184000Y-94468000D03*
D15*
X180684000Y-94488000D03*
D14*
X180684000Y-104648000D03*
D15*
X170084000Y-104638000D03*
D14*
X170084000Y-94478000D03*
D15*
X173564000Y-94568000D03*
D14*
X173564000Y-104728000D03*
D15*
X163064000Y-104698000D03*
D14*
X163064000Y-94538000D03*
D15*
X166574000Y-94558000D03*
D14*
X166574000Y-104718000D03*
D15*
X177014000Y-117288000D03*
D14*
X177014000Y-107128000D03*
D15*
X169974000Y-117258000D03*
D14*
X169974000Y-107098000D03*
D15*
X163044000Y-117278000D03*
D14*
X163044000Y-107118000D03*
D15*
X180554000Y-117268000D03*
D14*
X180554000Y-107108000D03*
D15*
X173534000Y-117298000D03*
D14*
X173534000Y-107138000D03*
D15*
X166554000Y-117238000D03*
D14*
X166554000Y-107078000D03*
D15*
X125476000Y-124206000D03*
D14*
X115316000Y-124206000D03*
D15*
X125476000Y-120142000D03*
D14*
X115316000Y-120142000D03*
D13*
X190575000Y-102725000D03*
X190550000Y-77300000D03*
X190625000Y-81375000D03*
D16*
X108458000Y-112168000D03*
X108458000Y-117248000D03*
G36*
G01*
X109958000Y-123879000D02*
X106958000Y-123879000D01*
G75*
G02*
X106907000Y-123828000I0J51000D01*
G01*
X106907000Y-120828000D01*
G75*
G02*
X106958000Y-120777000I51000J0D01*
G01*
X109958000Y-120777000D01*
G75*
G02*
X110009000Y-120828000I0J-51000D01*
G01*
X110009000Y-123828000D01*
G75*
G02*
X109958000Y-123879000I-51000J0D01*
G01*
G37*
D13*
X139874000Y-87188000D03*
X144954000Y-87198000D03*
X105614000Y-100128000D03*
X110694000Y-100138000D03*
X105124000Y-82278000D03*
X105124000Y-87278000D03*
X134524000Y-77078000D03*
X134524000Y-92478000D03*
D17*
X135128000Y-126492000D03*
X130048000Y-118872000D03*
X132588000Y-126492000D03*
X132588000Y-118872000D03*
X130048000Y-126492000D03*
G36*
G01*
X134328000Y-117621000D02*
X135928000Y-117621000D01*
G75*
G02*
X135979000Y-117672000I0J-51000D01*
G01*
X135979000Y-120072000D01*
G75*
G02*
X135928000Y-120123000I-51000J0D01*
G01*
X134328000Y-120123000D01*
G75*
G02*
X134277000Y-120072000I0J51000D01*
G01*
X134277000Y-117672000D01*
G75*
G02*
X134328000Y-117621000I51000J0D01*
G01*
G37*
D13*
X117828000Y-98828800D03*
X133118800Y-103705600D03*
X133118800Y-108836400D03*
G36*
G01*
X116777000Y-114764000D02*
X116777000Y-112764000D01*
G75*
G02*
X116828000Y-112713000I51000J0D01*
G01*
X118828000Y-112713000D01*
G75*
G02*
X118879000Y-112764000I0J-51000D01*
G01*
X118879000Y-114764000D01*
G75*
G02*
X118828000Y-114815000I-51000J0D01*
G01*
X116828000Y-114815000D01*
G75*
G02*
X116777000Y-114764000I0J51000D01*
G01*
G37*
M02*
