G04 #@! TF.GenerationSoftware,KiCad,Pcbnew,(5.99.0-1678-g980aefea4-dirty)*
G04 #@! TF.CreationDate,2020-06-13T12:10:46+02:00*
G04 #@! TF.ProjectId,monitor_ESP32,6d6f6e69-746f-4725-9f45-535033322e6b,rev?*
G04 #@! TF.SameCoordinates,Original*
G04 #@! TF.FileFunction,Legend,Top*
G04 #@! TF.FilePolarity,Positive*
%FSLAX46Y46*%
G04 Gerber Fmt 4.6, Leading zero omitted, Abs format (unit mm)*
G04 Created by KiCad (PCBNEW (5.99.0-1678-g980aefea4-dirty)) date 2020-06-13 12:10:46*
%MOMM*%
%LPD*%
G01*
G04 APERTURE LIST*
%ADD10C,0.150000*%
%ADD11C,0.120000*%
%ADD12C,0.300000*%
%ADD13C,0.381000*%
%ADD14C,0.010000*%
G04 APERTURE END LIST*
D10*
X191575000Y-95311904D02*
X191527380Y-95407142D01*
X191527380Y-95550000D01*
X191575000Y-95692857D01*
X191670238Y-95788095D01*
X191765476Y-95835714D01*
X191955952Y-95883333D01*
X192098809Y-95883333D01*
X192289285Y-95835714D01*
X192384523Y-95788095D01*
X192479761Y-95692857D01*
X192527380Y-95550000D01*
X192527380Y-95454761D01*
X192479761Y-95311904D01*
X192432142Y-95264285D01*
X192098809Y-95264285D01*
X192098809Y-95454761D01*
X192527380Y-94835714D02*
X191527380Y-94835714D01*
X192527380Y-94264285D01*
X191527380Y-94264285D01*
X192527380Y-93788095D02*
X191527380Y-93788095D01*
X191527380Y-93550000D01*
X191575000Y-93407142D01*
X191670238Y-93311904D01*
X191765476Y-93264285D01*
X191955952Y-93216666D01*
X192098809Y-93216666D01*
X192289285Y-93264285D01*
X192384523Y-93311904D01*
X192479761Y-93407142D01*
X192527380Y-93550000D01*
X192527380Y-93788095D01*
X114181523Y-129738380D02*
X113848190Y-129262190D01*
X113610095Y-129738380D02*
X113610095Y-128738380D01*
X113991047Y-128738380D01*
X114086285Y-128786000D01*
X114133904Y-128833619D01*
X114181523Y-128928857D01*
X114181523Y-129071714D01*
X114133904Y-129166952D01*
X114086285Y-129214571D01*
X113991047Y-129262190D01*
X113610095Y-129262190D01*
X115038666Y-129738380D02*
X115038666Y-129214571D01*
X114991047Y-129119333D01*
X114895809Y-129071714D01*
X114705333Y-129071714D01*
X114610095Y-129119333D01*
X115038666Y-129690761D02*
X114943428Y-129738380D01*
X114705333Y-129738380D01*
X114610095Y-129690761D01*
X114562476Y-129595523D01*
X114562476Y-129500285D01*
X114610095Y-129405047D01*
X114705333Y-129357428D01*
X114943428Y-129357428D01*
X115038666Y-129309809D01*
X115943428Y-129738380D02*
X115943428Y-128738380D01*
X115943428Y-129690761D02*
X115848190Y-129738380D01*
X115657714Y-129738380D01*
X115562476Y-129690761D01*
X115514857Y-129643142D01*
X115467238Y-129547904D01*
X115467238Y-129262190D01*
X115514857Y-129166952D01*
X115562476Y-129119333D01*
X115657714Y-129071714D01*
X115848190Y-129071714D01*
X115943428Y-129119333D01*
X116419619Y-129738380D02*
X116419619Y-129071714D01*
X116419619Y-128738380D02*
X116372000Y-128786000D01*
X116419619Y-128833619D01*
X116467238Y-128786000D01*
X116419619Y-128738380D01*
X116419619Y-128833619D01*
X117038666Y-129738380D02*
X116943428Y-129690761D01*
X116895809Y-129643142D01*
X116848190Y-129547904D01*
X116848190Y-129262190D01*
X116895809Y-129166952D01*
X116943428Y-129119333D01*
X117038666Y-129071714D01*
X117181523Y-129071714D01*
X117276761Y-129119333D01*
X117324380Y-129166952D01*
X117372000Y-129262190D01*
X117372000Y-129547904D01*
X117324380Y-129643142D01*
X117276761Y-129690761D01*
X117181523Y-129738380D01*
X117038666Y-129738380D01*
X117800571Y-129357428D02*
X118562476Y-129357428D01*
X119038666Y-129738380D02*
X119038666Y-128738380D01*
X119372000Y-129452666D01*
X119705333Y-128738380D01*
X119705333Y-129738380D01*
X120324380Y-129738380D02*
X120229142Y-129690761D01*
X120181523Y-129643142D01*
X120133904Y-129547904D01*
X120133904Y-129262190D01*
X120181523Y-129166952D01*
X120229142Y-129119333D01*
X120324380Y-129071714D01*
X120467238Y-129071714D01*
X120562476Y-129119333D01*
X120610095Y-129166952D01*
X120657714Y-129262190D01*
X120657714Y-129547904D01*
X120610095Y-129643142D01*
X120562476Y-129690761D01*
X120467238Y-129738380D01*
X120324380Y-129738380D01*
X121514857Y-129738380D02*
X121514857Y-128738380D01*
X121514857Y-129690761D02*
X121419619Y-129738380D01*
X121229142Y-129738380D01*
X121133904Y-129690761D01*
X121086285Y-129643142D01*
X121038666Y-129547904D01*
X121038666Y-129262190D01*
X121086285Y-129166952D01*
X121133904Y-129119333D01*
X121229142Y-129071714D01*
X121419619Y-129071714D01*
X121514857Y-129119333D01*
X121991047Y-129738380D02*
X121991047Y-128738380D01*
X121991047Y-129119333D02*
X122086285Y-129071714D01*
X122276761Y-129071714D01*
X122372000Y-129119333D01*
X122419619Y-129166952D01*
X122467238Y-129262190D01*
X122467238Y-129547904D01*
X122419619Y-129643142D01*
X122372000Y-129690761D01*
X122276761Y-129738380D01*
X122086285Y-129738380D01*
X121991047Y-129690761D01*
X123324380Y-129071714D02*
X123324380Y-129738380D01*
X122895809Y-129071714D02*
X122895809Y-129595523D01*
X122943428Y-129690761D01*
X123038666Y-129738380D01*
X123181523Y-129738380D01*
X123276761Y-129690761D01*
X123324380Y-129643142D01*
X123752952Y-129690761D02*
X123848190Y-129738380D01*
X124038666Y-129738380D01*
X124133904Y-129690761D01*
X124181523Y-129595523D01*
X124181523Y-129547904D01*
X124133904Y-129452666D01*
X124038666Y-129405047D01*
X123895809Y-129405047D01*
X123800571Y-129357428D01*
X123752952Y-129262190D01*
X123752952Y-129214571D01*
X123800571Y-129119333D01*
X123895809Y-129071714D01*
X124038666Y-129071714D01*
X124133904Y-129119333D01*
X113752952Y-127706380D02*
X113752952Y-126706380D01*
X114133904Y-126706380D01*
X114229142Y-126754000D01*
X114276761Y-126801619D01*
X114324380Y-126896857D01*
X114324380Y-127039714D01*
X114276761Y-127134952D01*
X114229142Y-127182571D01*
X114133904Y-127230190D01*
X113752952Y-127230190D01*
X114895809Y-127706380D02*
X114800571Y-127658761D01*
X114752952Y-127611142D01*
X114705333Y-127515904D01*
X114705333Y-127230190D01*
X114752952Y-127134952D01*
X114800571Y-127087333D01*
X114895809Y-127039714D01*
X115038666Y-127039714D01*
X115133904Y-127087333D01*
X115181523Y-127134952D01*
X115229142Y-127230190D01*
X115229142Y-127515904D01*
X115181523Y-127611142D01*
X115133904Y-127658761D01*
X115038666Y-127706380D01*
X114895809Y-127706380D01*
X115562476Y-127039714D02*
X115752952Y-127706380D01*
X115943428Y-127230190D01*
X116133904Y-127706380D01*
X116324380Y-127039714D01*
X117086285Y-127658761D02*
X116991047Y-127706380D01*
X116800571Y-127706380D01*
X116705333Y-127658761D01*
X116657714Y-127563523D01*
X116657714Y-127182571D01*
X116705333Y-127087333D01*
X116800571Y-127039714D01*
X116991047Y-127039714D01*
X117086285Y-127087333D01*
X117133904Y-127182571D01*
X117133904Y-127277809D01*
X116657714Y-127373047D01*
X117562476Y-127706380D02*
X117562476Y-127039714D01*
X117562476Y-127230190D02*
X117610095Y-127134952D01*
X117657714Y-127087333D01*
X117752952Y-127039714D01*
X117848190Y-127039714D01*
X118943428Y-127706380D02*
X118943428Y-126706380D01*
X119276761Y-127420666D01*
X119610095Y-126706380D01*
X119610095Y-127706380D01*
X120229142Y-127706380D02*
X120133904Y-127658761D01*
X120086285Y-127611142D01*
X120038666Y-127515904D01*
X120038666Y-127230190D01*
X120086285Y-127134952D01*
X120133904Y-127087333D01*
X120229142Y-127039714D01*
X120372000Y-127039714D01*
X120467238Y-127087333D01*
X120514857Y-127134952D01*
X120562476Y-127230190D01*
X120562476Y-127515904D01*
X120514857Y-127611142D01*
X120467238Y-127658761D01*
X120372000Y-127706380D01*
X120229142Y-127706380D01*
X120991047Y-127039714D02*
X120991047Y-127706380D01*
X120991047Y-127134952D02*
X121038666Y-127087333D01*
X121133904Y-127039714D01*
X121276761Y-127039714D01*
X121372000Y-127087333D01*
X121419619Y-127182571D01*
X121419619Y-127706380D01*
X121895809Y-127706380D02*
X121895809Y-127039714D01*
X121895809Y-126706380D02*
X121848190Y-126754000D01*
X121895809Y-126801619D01*
X121943428Y-126754000D01*
X121895809Y-126706380D01*
X121895809Y-126801619D01*
X122229142Y-127039714D02*
X122610095Y-127039714D01*
X122372000Y-126706380D02*
X122372000Y-127563523D01*
X122419619Y-127658761D01*
X122514857Y-127706380D01*
X122610095Y-127706380D01*
X123086285Y-127706380D02*
X122991047Y-127658761D01*
X122943428Y-127611142D01*
X122895809Y-127515904D01*
X122895809Y-127230190D01*
X122943428Y-127134952D01*
X122991047Y-127087333D01*
X123086285Y-127039714D01*
X123229142Y-127039714D01*
X123324380Y-127087333D01*
X123372000Y-127134952D01*
X123419619Y-127230190D01*
X123419619Y-127515904D01*
X123372000Y-127611142D01*
X123324380Y-127658761D01*
X123229142Y-127706380D01*
X123086285Y-127706380D01*
X123848190Y-127706380D02*
X123848190Y-127039714D01*
X123848190Y-127230190D02*
X123895809Y-127134952D01*
X123943428Y-127087333D01*
X124038666Y-127039714D01*
X124133904Y-127039714D01*
X178268380Y-129135142D02*
X178220761Y-129182761D01*
X178077904Y-129230380D01*
X177982666Y-129230380D01*
X177839809Y-129182761D01*
X177744571Y-129087523D01*
X177696952Y-128992285D01*
X177649333Y-128801809D01*
X177649333Y-128658952D01*
X177696952Y-128468476D01*
X177744571Y-128373238D01*
X177839809Y-128278000D01*
X177982666Y-128230380D01*
X178077904Y-128230380D01*
X178220761Y-128278000D01*
X178268380Y-128325619D01*
X178554095Y-128230380D02*
X179125523Y-128230380D01*
X178839809Y-129230380D02*
X178839809Y-128230380D01*
X179935047Y-128230380D02*
X179458857Y-128230380D01*
X179411238Y-128706571D01*
X179458857Y-128658952D01*
X179554095Y-128611333D01*
X179792190Y-128611333D01*
X179887428Y-128658952D01*
X179935047Y-128706571D01*
X179982666Y-128801809D01*
X179982666Y-129039904D01*
X179935047Y-129135142D01*
X179887428Y-129182761D01*
X179792190Y-129230380D01*
X179554095Y-129230380D01*
X179458857Y-129182761D01*
X179411238Y-129135142D01*
X171156380Y-129135142D02*
X171108761Y-129182761D01*
X170965904Y-129230380D01*
X170870666Y-129230380D01*
X170727809Y-129182761D01*
X170632571Y-129087523D01*
X170584952Y-128992285D01*
X170537333Y-128801809D01*
X170537333Y-128658952D01*
X170584952Y-128468476D01*
X170632571Y-128373238D01*
X170727809Y-128278000D01*
X170870666Y-128230380D01*
X170965904Y-128230380D01*
X171108761Y-128278000D01*
X171156380Y-128325619D01*
X171442095Y-128230380D02*
X172013523Y-128230380D01*
X171727809Y-129230380D02*
X171727809Y-128230380D01*
X172775428Y-128563714D02*
X172775428Y-129230380D01*
X172537333Y-128182761D02*
X172299238Y-128897047D01*
X172918285Y-128897047D01*
X164298380Y-129135142D02*
X164250761Y-129182761D01*
X164107904Y-129230380D01*
X164012666Y-129230380D01*
X163869809Y-129182761D01*
X163774571Y-129087523D01*
X163726952Y-128992285D01*
X163679333Y-128801809D01*
X163679333Y-128658952D01*
X163726952Y-128468476D01*
X163774571Y-128373238D01*
X163869809Y-128278000D01*
X164012666Y-128230380D01*
X164107904Y-128230380D01*
X164250761Y-128278000D01*
X164298380Y-128325619D01*
X164584095Y-128230380D02*
X165155523Y-128230380D01*
X164869809Y-129230380D02*
X164869809Y-128230380D01*
X165393619Y-128230380D02*
X166012666Y-128230380D01*
X165679333Y-128611333D01*
X165822190Y-128611333D01*
X165917428Y-128658952D01*
X165965047Y-128706571D01*
X166012666Y-128801809D01*
X166012666Y-129039904D01*
X165965047Y-129135142D01*
X165917428Y-129182761D01*
X165822190Y-129230380D01*
X165536476Y-129230380D01*
X165441238Y-129182761D01*
X165393619Y-129135142D01*
X157186380Y-129135142D02*
X157138761Y-129182761D01*
X156995904Y-129230380D01*
X156900666Y-129230380D01*
X156757809Y-129182761D01*
X156662571Y-129087523D01*
X156614952Y-128992285D01*
X156567333Y-128801809D01*
X156567333Y-128658952D01*
X156614952Y-128468476D01*
X156662571Y-128373238D01*
X156757809Y-128278000D01*
X156900666Y-128230380D01*
X156995904Y-128230380D01*
X157138761Y-128278000D01*
X157186380Y-128325619D01*
X157472095Y-128230380D02*
X158043523Y-128230380D01*
X157757809Y-129230380D02*
X157757809Y-128230380D01*
X158329238Y-128325619D02*
X158376857Y-128278000D01*
X158472095Y-128230380D01*
X158710190Y-128230380D01*
X158805428Y-128278000D01*
X158853047Y-128325619D01*
X158900666Y-128420857D01*
X158900666Y-128516095D01*
X158853047Y-128658952D01*
X158281619Y-129230380D01*
X158900666Y-129230380D01*
X150328380Y-129135142D02*
X150280761Y-129182761D01*
X150137904Y-129230380D01*
X150042666Y-129230380D01*
X149899809Y-129182761D01*
X149804571Y-129087523D01*
X149756952Y-128992285D01*
X149709333Y-128801809D01*
X149709333Y-128658952D01*
X149756952Y-128468476D01*
X149804571Y-128373238D01*
X149899809Y-128278000D01*
X150042666Y-128230380D01*
X150137904Y-128230380D01*
X150280761Y-128278000D01*
X150328380Y-128325619D01*
X150614095Y-128230380D02*
X151185523Y-128230380D01*
X150899809Y-129230380D02*
X150899809Y-128230380D01*
X152042666Y-129230380D02*
X151471238Y-129230380D01*
X151756952Y-129230380D02*
X151756952Y-128230380D01*
X151661714Y-128373238D01*
X151566476Y-128468476D01*
X151471238Y-128516095D01*
X192103571Y-87503571D02*
X192151190Y-87360714D01*
X192198809Y-87313095D01*
X192294047Y-87265476D01*
X192436904Y-87265476D01*
X192532142Y-87313095D01*
X192579761Y-87360714D01*
X192627380Y-87455952D01*
X192627380Y-87836904D01*
X191627380Y-87836904D01*
X191627380Y-87503571D01*
X191675000Y-87408333D01*
X191722619Y-87360714D01*
X191817857Y-87313095D01*
X191913095Y-87313095D01*
X192008333Y-87360714D01*
X192055952Y-87408333D01*
X192103571Y-87503571D01*
X192103571Y-87836904D01*
X192190666Y-91338095D02*
X192190666Y-90861904D01*
X192476380Y-91433333D02*
X191476380Y-91100000D01*
X192476380Y-90766666D01*
D11*
X103378000Y-122174000D02*
X103378000Y-121158000D01*
X103124000Y-122682000D02*
X103632000Y-122682000D01*
X102870000Y-122428000D02*
X103886000Y-122428000D01*
X104140000Y-122174000D02*
X102616000Y-122174000D01*
X102870000Y-122174000D02*
X104140000Y-122174000D01*
D12*
X104056571Y-110089714D02*
X104128000Y-110161142D01*
X104199428Y-110304000D01*
X104199428Y-110661142D01*
X104128000Y-110804000D01*
X104056571Y-110875428D01*
X103913714Y-110946857D01*
X103770857Y-110946857D01*
X103556571Y-110875428D01*
X102699428Y-110018285D01*
X102699428Y-110946857D01*
X104199428Y-111446857D02*
X104199428Y-112375428D01*
X103628000Y-111875428D01*
X103628000Y-112089714D01*
X103556571Y-112232571D01*
X103485142Y-112304000D01*
X103342285Y-112375428D01*
X102985142Y-112375428D01*
X102842285Y-112304000D01*
X102770857Y-112232571D01*
X102699428Y-112089714D01*
X102699428Y-111661142D01*
X102770857Y-111518285D01*
X102842285Y-111446857D01*
X104199428Y-113304000D02*
X104199428Y-113446857D01*
X104128000Y-113589714D01*
X104056571Y-113661142D01*
X103913714Y-113732571D01*
X103628000Y-113804000D01*
X103270857Y-113804000D01*
X102985142Y-113732571D01*
X102842285Y-113661142D01*
X102770857Y-113589714D01*
X102699428Y-113446857D01*
X102699428Y-113304000D01*
X102770857Y-113161142D01*
X102842285Y-113089714D01*
X102985142Y-113018285D01*
X103270857Y-112946857D01*
X103628000Y-112946857D01*
X103913714Y-113018285D01*
X104056571Y-113089714D01*
X104128000Y-113161142D01*
X104199428Y-113304000D01*
X104199428Y-114232571D02*
X102699428Y-114732571D01*
X104199428Y-115232571D01*
X103128000Y-116804000D02*
X103128000Y-117518285D01*
X102699428Y-116661142D02*
X104199428Y-117161142D01*
X102699428Y-117661142D01*
X102842285Y-119018285D02*
X102770857Y-118946857D01*
X102699428Y-118732571D01*
X102699428Y-118589714D01*
X102770857Y-118375428D01*
X102913714Y-118232571D01*
X103056571Y-118161142D01*
X103342285Y-118089714D01*
X103556571Y-118089714D01*
X103842285Y-118161142D01*
X103985142Y-118232571D01*
X104128000Y-118375428D01*
X104199428Y-118589714D01*
X104199428Y-118732571D01*
X104128000Y-118946857D01*
X104056571Y-119018285D01*
D10*
X183288095Y-106677380D02*
X182954761Y-106201190D01*
X182716666Y-106677380D02*
X182716666Y-105677380D01*
X183097619Y-105677380D01*
X183192857Y-105725000D01*
X183240476Y-105772619D01*
X183288095Y-105867857D01*
X183288095Y-106010714D01*
X183240476Y-106105952D01*
X183192857Y-106153571D01*
X183097619Y-106201190D01*
X182716666Y-106201190D01*
X184145238Y-106677380D02*
X184145238Y-106153571D01*
X184097619Y-106058333D01*
X184002380Y-106010714D01*
X183811904Y-106010714D01*
X183716666Y-106058333D01*
X184145238Y-106629761D02*
X184050000Y-106677380D01*
X183811904Y-106677380D01*
X183716666Y-106629761D01*
X183669047Y-106534523D01*
X183669047Y-106439285D01*
X183716666Y-106344047D01*
X183811904Y-106296428D01*
X184050000Y-106296428D01*
X184145238Y-106248809D01*
X185050000Y-106677380D02*
X185050000Y-105677380D01*
X185050000Y-106629761D02*
X184954761Y-106677380D01*
X184764285Y-106677380D01*
X184669047Y-106629761D01*
X184621428Y-106582142D01*
X184573809Y-106486904D01*
X184573809Y-106201190D01*
X184621428Y-106105952D01*
X184669047Y-106058333D01*
X184764285Y-106010714D01*
X184954761Y-106010714D01*
X185050000Y-106058333D01*
X185526190Y-106677380D02*
X185526190Y-106010714D01*
X185526190Y-105677380D02*
X185478571Y-105725000D01*
X185526190Y-105772619D01*
X185573809Y-105725000D01*
X185526190Y-105677380D01*
X185526190Y-105772619D01*
X186145238Y-106677380D02*
X186050000Y-106629761D01*
X186002380Y-106582142D01*
X185954761Y-106486904D01*
X185954761Y-106201190D01*
X186002380Y-106105952D01*
X186050000Y-106058333D01*
X186145238Y-106010714D01*
X186288095Y-106010714D01*
X186383333Y-106058333D01*
X186430952Y-106105952D01*
X186478571Y-106201190D01*
X186478571Y-106486904D01*
X186430952Y-106582142D01*
X186383333Y-106629761D01*
X186288095Y-106677380D01*
X186145238Y-106677380D01*
X187288095Y-106629761D02*
X187192857Y-106677380D01*
X187002380Y-106677380D01*
X186907142Y-106629761D01*
X186859523Y-106534523D01*
X186859523Y-106153571D01*
X186907142Y-106058333D01*
X187002380Y-106010714D01*
X187192857Y-106010714D01*
X187288095Y-106058333D01*
X187335714Y-106153571D01*
X187335714Y-106248809D01*
X186859523Y-106344047D01*
X187907142Y-106677380D02*
X187811904Y-106629761D01*
X187764285Y-106534523D01*
X187764285Y-105677380D01*
X188145238Y-106010714D02*
X188526190Y-106010714D01*
X188288095Y-106677380D02*
X188288095Y-105820238D01*
X188335714Y-105725000D01*
X188430952Y-105677380D01*
X188526190Y-105677380D01*
X154053571Y-71377380D02*
X153577380Y-71377380D01*
X153577380Y-70377380D01*
X154767857Y-71329761D02*
X154672619Y-71377380D01*
X154482142Y-71377380D01*
X154386904Y-71329761D01*
X154339285Y-71234523D01*
X154339285Y-70853571D01*
X154386904Y-70758333D01*
X154482142Y-70710714D01*
X154672619Y-70710714D01*
X154767857Y-70758333D01*
X154815476Y-70853571D01*
X154815476Y-70948809D01*
X154339285Y-71044047D01*
X155672619Y-71377380D02*
X155672619Y-70377380D01*
X155672619Y-71329761D02*
X155577380Y-71377380D01*
X155386904Y-71377380D01*
X155291666Y-71329761D01*
X155244047Y-71282142D01*
X155196428Y-71186904D01*
X155196428Y-70901190D01*
X155244047Y-70805952D01*
X155291666Y-70758333D01*
X155386904Y-70710714D01*
X155577380Y-70710714D01*
X155672619Y-70758333D01*
X164430666Y-117630380D02*
X164430666Y-118344666D01*
X164383047Y-118487523D01*
X164287809Y-118582761D01*
X164144952Y-118630380D01*
X164049714Y-118630380D01*
X164859238Y-117725619D02*
X164906857Y-117678000D01*
X165002095Y-117630380D01*
X165240190Y-117630380D01*
X165335428Y-117678000D01*
X165383047Y-117725619D01*
X165430666Y-117820857D01*
X165430666Y-117916095D01*
X165383047Y-118058952D01*
X164811619Y-118630380D01*
X165430666Y-118630380D01*
X178691666Y-74279761D02*
X178834523Y-74327380D01*
X179072619Y-74327380D01*
X179167857Y-74279761D01*
X179215476Y-74232142D01*
X179263095Y-74136904D01*
X179263095Y-74041666D01*
X179215476Y-73946428D01*
X179167857Y-73898809D01*
X179072619Y-73851190D01*
X178882142Y-73803571D01*
X178786904Y-73755952D01*
X178739285Y-73708333D01*
X178691666Y-73613095D01*
X178691666Y-73517857D01*
X178739285Y-73422619D01*
X178786904Y-73375000D01*
X178882142Y-73327380D01*
X179120238Y-73327380D01*
X179263095Y-73375000D01*
X179596428Y-73327380D02*
X179834523Y-74327380D01*
X180025000Y-73613095D01*
X180215476Y-74327380D01*
X180453571Y-73327380D01*
X180786904Y-73422619D02*
X180834523Y-73375000D01*
X180929761Y-73327380D01*
X181167857Y-73327380D01*
X181263095Y-73375000D01*
X181310714Y-73422619D01*
X181358333Y-73517857D01*
X181358333Y-73613095D01*
X181310714Y-73755952D01*
X180739285Y-74327380D01*
X181358333Y-74327380D01*
X178900952Y-71053571D02*
X179043809Y-71101190D01*
X179091428Y-71148809D01*
X179139047Y-71244047D01*
X179139047Y-71386904D01*
X179091428Y-71482142D01*
X179043809Y-71529761D01*
X178948571Y-71577380D01*
X178567619Y-71577380D01*
X178567619Y-70577380D01*
X178900952Y-70577380D01*
X178996190Y-70625000D01*
X179043809Y-70672619D01*
X179091428Y-70767857D01*
X179091428Y-70863095D01*
X179043809Y-70958333D01*
X178996190Y-71005952D01*
X178900952Y-71053571D01*
X178567619Y-71053571D01*
X179710476Y-71577380D02*
X179615238Y-71529761D01*
X179567619Y-71482142D01*
X179520000Y-71386904D01*
X179520000Y-71101190D01*
X179567619Y-71005952D01*
X179615238Y-70958333D01*
X179710476Y-70910714D01*
X179853333Y-70910714D01*
X179948571Y-70958333D01*
X179996190Y-71005952D01*
X180043809Y-71101190D01*
X180043809Y-71386904D01*
X179996190Y-71482142D01*
X179948571Y-71529761D01*
X179853333Y-71577380D01*
X179710476Y-71577380D01*
X180615238Y-71577380D02*
X180520000Y-71529761D01*
X180472380Y-71482142D01*
X180424761Y-71386904D01*
X180424761Y-71101190D01*
X180472380Y-71005952D01*
X180520000Y-70958333D01*
X180615238Y-70910714D01*
X180758095Y-70910714D01*
X180853333Y-70958333D01*
X180900952Y-71005952D01*
X180948571Y-71101190D01*
X180948571Y-71386904D01*
X180900952Y-71482142D01*
X180853333Y-71529761D01*
X180758095Y-71577380D01*
X180615238Y-71577380D01*
X181234285Y-70910714D02*
X181615238Y-70910714D01*
X181377142Y-70577380D02*
X181377142Y-71434523D01*
X181424761Y-71529761D01*
X181520000Y-71577380D01*
X181615238Y-71577380D01*
X150004761Y-88708333D02*
X150052380Y-88565476D01*
X150052380Y-88327380D01*
X150004761Y-88232142D01*
X149957142Y-88184523D01*
X149861904Y-88136904D01*
X149766666Y-88136904D01*
X149671428Y-88184523D01*
X149623809Y-88232142D01*
X149576190Y-88327380D01*
X149528571Y-88517857D01*
X149480952Y-88613095D01*
X149433333Y-88660714D01*
X149338095Y-88708333D01*
X149242857Y-88708333D01*
X149147619Y-88660714D01*
X149100000Y-88613095D01*
X149052380Y-88517857D01*
X149052380Y-88279761D01*
X149100000Y-88136904D01*
X149052380Y-87803571D02*
X150052380Y-87565476D01*
X149338095Y-87375000D01*
X150052380Y-87184523D01*
X149052380Y-86946428D01*
X150052380Y-86041666D02*
X150052380Y-86613095D01*
X150052380Y-86327380D02*
X149052380Y-86327380D01*
X149195238Y-86422619D01*
X149290476Y-86517857D01*
X149338095Y-86613095D01*
X148736904Y-93102380D02*
X148403571Y-92626190D01*
X148165476Y-93102380D02*
X148165476Y-92102380D01*
X148546428Y-92102380D01*
X148641666Y-92150000D01*
X148689285Y-92197619D01*
X148736904Y-92292857D01*
X148736904Y-92435714D01*
X148689285Y-92530952D01*
X148641666Y-92578571D01*
X148546428Y-92626190D01*
X148165476Y-92626190D01*
X149546428Y-93054761D02*
X149451190Y-93102380D01*
X149260714Y-93102380D01*
X149165476Y-93054761D01*
X149117857Y-92959523D01*
X149117857Y-92578571D01*
X149165476Y-92483333D01*
X149260714Y-92435714D01*
X149451190Y-92435714D01*
X149546428Y-92483333D01*
X149594047Y-92578571D01*
X149594047Y-92673809D01*
X149117857Y-92769047D01*
X149975000Y-93054761D02*
X150070238Y-93102380D01*
X150260714Y-93102380D01*
X150355952Y-93054761D01*
X150403571Y-92959523D01*
X150403571Y-92911904D01*
X150355952Y-92816666D01*
X150260714Y-92769047D01*
X150117857Y-92769047D01*
X150022619Y-92721428D01*
X149975000Y-92626190D01*
X149975000Y-92578571D01*
X150022619Y-92483333D01*
X150117857Y-92435714D01*
X150260714Y-92435714D01*
X150355952Y-92483333D01*
X151213095Y-93054761D02*
X151117857Y-93102380D01*
X150927380Y-93102380D01*
X150832142Y-93054761D01*
X150784523Y-92959523D01*
X150784523Y-92578571D01*
X150832142Y-92483333D01*
X150927380Y-92435714D01*
X151117857Y-92435714D01*
X151213095Y-92483333D01*
X151260714Y-92578571D01*
X151260714Y-92673809D01*
X150784523Y-92769047D01*
X151546428Y-92435714D02*
X151927380Y-92435714D01*
X151689285Y-92102380D02*
X151689285Y-92959523D01*
X151736904Y-93054761D01*
X151832142Y-93102380D01*
X151927380Y-93102380D01*
X180438095Y-77202380D02*
X180438095Y-78011904D01*
X180485714Y-78107142D01*
X180533333Y-78154761D01*
X180628571Y-78202380D01*
X180819047Y-78202380D01*
X180914285Y-78154761D01*
X180961904Y-78107142D01*
X181009523Y-78011904D01*
X181009523Y-77202380D01*
X181390476Y-77202380D02*
X182009523Y-77202380D01*
X181676190Y-77583333D01*
X181819047Y-77583333D01*
X181914285Y-77630952D01*
X181961904Y-77678571D01*
X182009523Y-77773809D01*
X182009523Y-78011904D01*
X181961904Y-78107142D01*
X181914285Y-78154761D01*
X181819047Y-78202380D01*
X181533333Y-78202380D01*
X181438095Y-78154761D01*
X181390476Y-78107142D01*
X188497142Y-99927380D02*
X188163809Y-99451190D01*
X187925714Y-99927380D02*
X187925714Y-98927380D01*
X188306666Y-98927380D01*
X188401904Y-98975000D01*
X188449523Y-99022619D01*
X188497142Y-99117857D01*
X188497142Y-99260714D01*
X188449523Y-99355952D01*
X188401904Y-99403571D01*
X188306666Y-99451190D01*
X187925714Y-99451190D01*
X188830476Y-98927380D02*
X189449523Y-98927380D01*
X189116190Y-99308333D01*
X189259047Y-99308333D01*
X189354285Y-99355952D01*
X189401904Y-99403571D01*
X189449523Y-99498809D01*
X189449523Y-99736904D01*
X189401904Y-99832142D01*
X189354285Y-99879761D01*
X189259047Y-99927380D01*
X188973333Y-99927380D01*
X188878095Y-99879761D01*
X188830476Y-99832142D01*
X189830476Y-99022619D02*
X189878095Y-98975000D01*
X189973333Y-98927380D01*
X190211428Y-98927380D01*
X190306666Y-98975000D01*
X190354285Y-99022619D01*
X190401904Y-99117857D01*
X190401904Y-99213095D01*
X190354285Y-99355952D01*
X189782857Y-99927380D01*
X190401904Y-99927380D01*
X187299666Y-83217380D02*
X187299666Y-83931666D01*
X187252047Y-84074523D01*
X187156809Y-84169761D01*
X187013952Y-84217380D01*
X186918714Y-84217380D01*
X187680619Y-83217380D02*
X188299666Y-83217380D01*
X187966333Y-83598333D01*
X188109190Y-83598333D01*
X188204428Y-83645952D01*
X188252047Y-83693571D01*
X188299666Y-83788809D01*
X188299666Y-84026904D01*
X188252047Y-84122142D01*
X188204428Y-84169761D01*
X188109190Y-84217380D01*
X187823476Y-84217380D01*
X187728238Y-84169761D01*
X187680619Y-84122142D01*
X136993333Y-72239142D02*
X136945714Y-72286761D01*
X136802857Y-72334380D01*
X136707619Y-72334380D01*
X136564761Y-72286761D01*
X136469523Y-72191523D01*
X136421904Y-72096285D01*
X136374285Y-71905809D01*
X136374285Y-71762952D01*
X136421904Y-71572476D01*
X136469523Y-71477238D01*
X136564761Y-71382000D01*
X136707619Y-71334380D01*
X136802857Y-71334380D01*
X136945714Y-71382000D01*
X136993333Y-71429619D01*
X137945714Y-72334380D02*
X137374285Y-72334380D01*
X137660000Y-72334380D02*
X137660000Y-71334380D01*
X137564761Y-71477238D01*
X137469523Y-71572476D01*
X137374285Y-71620095D01*
X146415428Y-81046952D02*
X146415428Y-80285047D01*
X146796380Y-80666000D02*
X146034476Y-80666000D01*
X119832809Y-110037619D02*
X119880428Y-109990000D01*
X119975666Y-109942380D01*
X120213761Y-109942380D01*
X120309000Y-109990000D01*
X120356619Y-110037619D01*
X120404238Y-110132857D01*
X120404238Y-110228095D01*
X120356619Y-110370952D01*
X119785190Y-110942380D01*
X120404238Y-110942380D01*
X120737571Y-109942380D02*
X121356619Y-109942380D01*
X121023285Y-110323333D01*
X121166142Y-110323333D01*
X121261380Y-110370952D01*
X121309000Y-110418571D01*
X121356619Y-110513809D01*
X121356619Y-110751904D01*
X121309000Y-110847142D01*
X121261380Y-110894761D01*
X121166142Y-110942380D01*
X120880428Y-110942380D01*
X120785190Y-110894761D01*
X120737571Y-110847142D01*
X121975666Y-109942380D02*
X122070904Y-109942380D01*
X122166142Y-109990000D01*
X122213761Y-110037619D01*
X122261380Y-110132857D01*
X122309000Y-110323333D01*
X122309000Y-110561428D01*
X122261380Y-110751904D01*
X122213761Y-110847142D01*
X122166142Y-110894761D01*
X122070904Y-110942380D01*
X121975666Y-110942380D01*
X121880428Y-110894761D01*
X121832809Y-110847142D01*
X121785190Y-110751904D01*
X121737571Y-110561428D01*
X121737571Y-110323333D01*
X121785190Y-110132857D01*
X121832809Y-110037619D01*
X121880428Y-109990000D01*
X121975666Y-109942380D01*
X122594714Y-109942380D02*
X122928047Y-110942380D01*
X123261380Y-109942380D01*
X124309000Y-110656666D02*
X124785190Y-110656666D01*
X124213761Y-110942380D02*
X124547095Y-109942380D01*
X124880428Y-110942380D01*
X125785190Y-110847142D02*
X125737571Y-110894761D01*
X125594714Y-110942380D01*
X125499476Y-110942380D01*
X125356619Y-110894761D01*
X125261380Y-110799523D01*
X125213761Y-110704285D01*
X125166142Y-110513809D01*
X125166142Y-110370952D01*
X125213761Y-110180476D01*
X125261380Y-110085238D01*
X125356619Y-109990000D01*
X125499476Y-109942380D01*
X125594714Y-109942380D01*
X125737571Y-109990000D01*
X125785190Y-110037619D01*
X110180809Y-89463619D02*
X110228428Y-89416000D01*
X110323666Y-89368380D01*
X110561761Y-89368380D01*
X110657000Y-89416000D01*
X110704619Y-89463619D01*
X110752238Y-89558857D01*
X110752238Y-89654095D01*
X110704619Y-89796952D01*
X110133190Y-90368380D01*
X110752238Y-90368380D01*
X111085571Y-89368380D02*
X111704619Y-89368380D01*
X111371285Y-89749333D01*
X111514142Y-89749333D01*
X111609380Y-89796952D01*
X111657000Y-89844571D01*
X111704619Y-89939809D01*
X111704619Y-90177904D01*
X111657000Y-90273142D01*
X111609380Y-90320761D01*
X111514142Y-90368380D01*
X111228428Y-90368380D01*
X111133190Y-90320761D01*
X111085571Y-90273142D01*
X112323666Y-89368380D02*
X112418904Y-89368380D01*
X112514142Y-89416000D01*
X112561761Y-89463619D01*
X112609380Y-89558857D01*
X112657000Y-89749333D01*
X112657000Y-89987428D01*
X112609380Y-90177904D01*
X112561761Y-90273142D01*
X112514142Y-90320761D01*
X112418904Y-90368380D01*
X112323666Y-90368380D01*
X112228428Y-90320761D01*
X112180809Y-90273142D01*
X112133190Y-90177904D01*
X112085571Y-89987428D01*
X112085571Y-89749333D01*
X112133190Y-89558857D01*
X112180809Y-89463619D01*
X112228428Y-89416000D01*
X112323666Y-89368380D01*
X112942714Y-89368380D02*
X113276047Y-90368380D01*
X113609380Y-89368380D01*
X114657000Y-90082666D02*
X115133190Y-90082666D01*
X114561761Y-90368380D02*
X114895095Y-89368380D01*
X115228428Y-90368380D01*
X116133190Y-90273142D02*
X116085571Y-90320761D01*
X115942714Y-90368380D01*
X115847476Y-90368380D01*
X115704619Y-90320761D01*
X115609380Y-90225523D01*
X115561761Y-90130285D01*
X115514142Y-89939809D01*
X115514142Y-89796952D01*
X115561761Y-89606476D01*
X115609380Y-89511238D01*
X115704619Y-89416000D01*
X115847476Y-89368380D01*
X115942714Y-89368380D01*
X116085571Y-89416000D01*
X116133190Y-89463619D01*
X172180476Y-71540666D02*
X172656666Y-71540666D01*
X172085238Y-71826380D02*
X172418571Y-70826380D01*
X172751904Y-71826380D01*
X173513809Y-71159714D02*
X173513809Y-71826380D01*
X173085238Y-71159714D02*
X173085238Y-71683523D01*
X173132857Y-71778761D01*
X173228095Y-71826380D01*
X173370952Y-71826380D01*
X173466190Y-71778761D01*
X173513809Y-71731142D01*
X173894761Y-71826380D02*
X174418571Y-71159714D01*
X173894761Y-71159714D02*
X174418571Y-71826380D01*
X174799523Y-71731142D02*
X174847142Y-71778761D01*
X174799523Y-71826380D01*
X174751904Y-71778761D01*
X174799523Y-71731142D01*
X174799523Y-71826380D01*
X175228095Y-70921619D02*
X175275714Y-70874000D01*
X175370952Y-70826380D01*
X175609047Y-70826380D01*
X175704285Y-70874000D01*
X175751904Y-70921619D01*
X175799523Y-71016857D01*
X175799523Y-71112095D01*
X175751904Y-71254952D01*
X175180476Y-71826380D01*
X175799523Y-71826380D01*
X163798476Y-71540666D02*
X164274666Y-71540666D01*
X163703238Y-71826380D02*
X164036571Y-70826380D01*
X164369904Y-71826380D01*
X165131809Y-71159714D02*
X165131809Y-71826380D01*
X164703238Y-71159714D02*
X164703238Y-71683523D01*
X164750857Y-71778761D01*
X164846095Y-71826380D01*
X164988952Y-71826380D01*
X165084190Y-71778761D01*
X165131809Y-71731142D01*
X165512761Y-71826380D02*
X166036571Y-71159714D01*
X165512761Y-71159714D02*
X166036571Y-71826380D01*
X166417523Y-71731142D02*
X166465142Y-71778761D01*
X166417523Y-71826380D01*
X166369904Y-71778761D01*
X166417523Y-71731142D01*
X166417523Y-71826380D01*
X167417523Y-71826380D02*
X166846095Y-71826380D01*
X167131809Y-71826380D02*
X167131809Y-70826380D01*
X167036571Y-70969238D01*
X166941333Y-71064476D01*
X166846095Y-71112095D01*
X175339619Y-85240761D02*
X175482476Y-85288380D01*
X175720571Y-85288380D01*
X175815809Y-85240761D01*
X175863428Y-85193142D01*
X175911047Y-85097904D01*
X175911047Y-85002666D01*
X175863428Y-84907428D01*
X175815809Y-84859809D01*
X175720571Y-84812190D01*
X175530095Y-84764571D01*
X175434857Y-84716952D01*
X175387238Y-84669333D01*
X175339619Y-84574095D01*
X175339619Y-84478857D01*
X175387238Y-84383619D01*
X175434857Y-84336000D01*
X175530095Y-84288380D01*
X175768190Y-84288380D01*
X175911047Y-84336000D01*
X176339619Y-85288380D02*
X176339619Y-84621714D01*
X176339619Y-84288380D02*
X176292000Y-84336000D01*
X176339619Y-84383619D01*
X176387238Y-84336000D01*
X176339619Y-84288380D01*
X176339619Y-84383619D01*
X176958666Y-85288380D02*
X176863428Y-85240761D01*
X176815809Y-85145523D01*
X176815809Y-84288380D01*
X177720571Y-85240761D02*
X177625333Y-85288380D01*
X177434857Y-85288380D01*
X177339619Y-85240761D01*
X177292000Y-85145523D01*
X177292000Y-84764571D01*
X177339619Y-84669333D01*
X177434857Y-84621714D01*
X177625333Y-84621714D01*
X177720571Y-84669333D01*
X177768190Y-84764571D01*
X177768190Y-84859809D01*
X177292000Y-84955047D01*
X178196761Y-84621714D02*
X178196761Y-85288380D01*
X178196761Y-84716952D02*
X178244380Y-84669333D01*
X178339619Y-84621714D01*
X178482476Y-84621714D01*
X178577714Y-84669333D01*
X178625333Y-84764571D01*
X178625333Y-85288380D01*
X178958666Y-84621714D02*
X179339619Y-84621714D01*
X179101523Y-84288380D02*
X179101523Y-85145523D01*
X179149142Y-85240761D01*
X179244380Y-85288380D01*
X179339619Y-85288380D01*
X188425000Y-109071428D02*
X189186904Y-109071428D01*
X188805952Y-109452380D02*
X188805952Y-108690476D01*
X189567857Y-108452380D02*
X190186904Y-108452380D01*
X189853571Y-108833333D01*
X189996428Y-108833333D01*
X190091666Y-108880952D01*
X190139285Y-108928571D01*
X190186904Y-109023809D01*
X190186904Y-109261904D01*
X190139285Y-109357142D01*
X190091666Y-109404761D01*
X189996428Y-109452380D01*
X189710714Y-109452380D01*
X189615476Y-109404761D01*
X189567857Y-109357142D01*
X190615476Y-109357142D02*
X190663095Y-109404761D01*
X190615476Y-109452380D01*
X190567857Y-109404761D01*
X190615476Y-109357142D01*
X190615476Y-109452380D01*
X190996428Y-108452380D02*
X191615476Y-108452380D01*
X191282142Y-108833333D01*
X191425000Y-108833333D01*
X191520238Y-108880952D01*
X191567857Y-108928571D01*
X191615476Y-109023809D01*
X191615476Y-109261904D01*
X191567857Y-109357142D01*
X191520238Y-109404761D01*
X191425000Y-109452380D01*
X191139285Y-109452380D01*
X191044047Y-109404761D01*
X190996428Y-109357142D01*
X191901190Y-108452380D02*
X192234523Y-109452380D01*
X192567857Y-108452380D01*
X112974380Y-107783238D02*
X112498190Y-108116571D01*
X112974380Y-108354666D02*
X111974380Y-108354666D01*
X111974380Y-107973714D01*
X112022000Y-107878476D01*
X112069619Y-107830857D01*
X112164857Y-107783238D01*
X112307714Y-107783238D01*
X112402952Y-107830857D01*
X112450571Y-107878476D01*
X112498190Y-107973714D01*
X112498190Y-108354666D01*
X111974380Y-107497523D02*
X112974380Y-107164190D01*
X111974380Y-106830857D01*
X112974380Y-105973714D02*
X112974380Y-106545142D01*
X112974380Y-106259428D02*
X111974380Y-106259428D01*
X112117238Y-106354666D01*
X112212476Y-106449904D01*
X112260095Y-106545142D01*
X147807142Y-77977380D02*
X147473809Y-77501190D01*
X147235714Y-77977380D02*
X147235714Y-76977380D01*
X147616666Y-76977380D01*
X147711904Y-77025000D01*
X147759523Y-77072619D01*
X147807142Y-77167857D01*
X147807142Y-77310714D01*
X147759523Y-77405952D01*
X147711904Y-77453571D01*
X147616666Y-77501190D01*
X147235714Y-77501190D01*
X148140476Y-76977380D02*
X148759523Y-76977380D01*
X148426190Y-77358333D01*
X148569047Y-77358333D01*
X148664285Y-77405952D01*
X148711904Y-77453571D01*
X148759523Y-77548809D01*
X148759523Y-77786904D01*
X148711904Y-77882142D01*
X148664285Y-77929761D01*
X148569047Y-77977380D01*
X148283333Y-77977380D01*
X148188095Y-77929761D01*
X148140476Y-77882142D01*
X149711904Y-77977380D02*
X149140476Y-77977380D01*
X149426190Y-77977380D02*
X149426190Y-76977380D01*
X149330952Y-77120238D01*
X149235714Y-77215476D01*
X149140476Y-77263095D01*
X181300380Y-88018857D02*
X180824190Y-88352190D01*
X181300380Y-88590285D02*
X180300380Y-88590285D01*
X180300380Y-88209333D01*
X180348000Y-88114095D01*
X180395619Y-88066476D01*
X180490857Y-88018857D01*
X180633714Y-88018857D01*
X180728952Y-88066476D01*
X180776571Y-88114095D01*
X180824190Y-88209333D01*
X180824190Y-88590285D01*
X180300380Y-87685523D02*
X180300380Y-87066476D01*
X180681333Y-87399809D01*
X180681333Y-87256952D01*
X180728952Y-87161714D01*
X180776571Y-87114095D01*
X180871809Y-87066476D01*
X181109904Y-87066476D01*
X181205142Y-87114095D01*
X181252761Y-87161714D01*
X181300380Y-87256952D01*
X181300380Y-87542666D01*
X181252761Y-87637904D01*
X181205142Y-87685523D01*
X180300380Y-86447428D02*
X180300380Y-86352190D01*
X180348000Y-86256952D01*
X180395619Y-86209333D01*
X180490857Y-86161714D01*
X180681333Y-86114095D01*
X180919428Y-86114095D01*
X181109904Y-86161714D01*
X181205142Y-86209333D01*
X181252761Y-86256952D01*
X181300380Y-86352190D01*
X181300380Y-86447428D01*
X181252761Y-86542666D01*
X181205142Y-86590285D01*
X181109904Y-86637904D01*
X180919428Y-86685523D01*
X180681333Y-86685523D01*
X180490857Y-86637904D01*
X180395619Y-86590285D01*
X180348000Y-86542666D01*
X180300380Y-86447428D01*
X177903333Y-93416380D02*
X177331904Y-93416380D01*
X177617619Y-93416380D02*
X177617619Y-92416380D01*
X177522380Y-92559238D01*
X177427142Y-92654476D01*
X177331904Y-92702095D01*
X178284285Y-92511619D02*
X178331904Y-92464000D01*
X178427142Y-92416380D01*
X178665238Y-92416380D01*
X178760476Y-92464000D01*
X178808095Y-92511619D01*
X178855714Y-92606857D01*
X178855714Y-92702095D01*
X178808095Y-92844952D01*
X178236666Y-93416380D01*
X178855714Y-93416380D01*
X179474761Y-92416380D02*
X179570000Y-92416380D01*
X179665238Y-92464000D01*
X179712857Y-92511619D01*
X179760476Y-92606857D01*
X179808095Y-92797333D01*
X179808095Y-93035428D01*
X179760476Y-93225904D01*
X179712857Y-93321142D01*
X179665238Y-93368761D01*
X179570000Y-93416380D01*
X179474761Y-93416380D01*
X179379523Y-93368761D01*
X179331904Y-93321142D01*
X179284285Y-93225904D01*
X179236666Y-93035428D01*
X179236666Y-92797333D01*
X179284285Y-92606857D01*
X179331904Y-92511619D01*
X179379523Y-92464000D01*
X179474761Y-92416380D01*
X180808095Y-93416380D02*
X180474761Y-92940190D01*
X180236666Y-93416380D02*
X180236666Y-92416380D01*
X180617619Y-92416380D01*
X180712857Y-92464000D01*
X180760476Y-92511619D01*
X180808095Y-92606857D01*
X180808095Y-92749714D01*
X180760476Y-92844952D01*
X180712857Y-92892571D01*
X180617619Y-92940190D01*
X180236666Y-92940190D01*
X176848142Y-79403380D02*
X176514809Y-78927190D01*
X176276714Y-79403380D02*
X176276714Y-78403380D01*
X176657666Y-78403380D01*
X176752904Y-78451000D01*
X176800523Y-78498619D01*
X176848142Y-78593857D01*
X176848142Y-78736714D01*
X176800523Y-78831952D01*
X176752904Y-78879571D01*
X176657666Y-78927190D01*
X176276714Y-78927190D01*
X177229095Y-78498619D02*
X177276714Y-78451000D01*
X177371952Y-78403380D01*
X177610047Y-78403380D01*
X177705285Y-78451000D01*
X177752904Y-78498619D01*
X177800523Y-78593857D01*
X177800523Y-78689095D01*
X177752904Y-78831952D01*
X177181476Y-79403380D01*
X177800523Y-79403380D01*
X178276714Y-79403380D02*
X178467190Y-79403380D01*
X178562428Y-79355761D01*
X178610047Y-79308142D01*
X178705285Y-79165285D01*
X178752904Y-78974809D01*
X178752904Y-78593857D01*
X178705285Y-78498619D01*
X178657666Y-78451000D01*
X178562428Y-78403380D01*
X178371952Y-78403380D01*
X178276714Y-78451000D01*
X178229095Y-78498619D01*
X178181476Y-78593857D01*
X178181476Y-78831952D01*
X178229095Y-78927190D01*
X178276714Y-78974809D01*
X178371952Y-79022428D01*
X178562428Y-79022428D01*
X178657666Y-78974809D01*
X178705285Y-78927190D01*
X178752904Y-78831952D01*
X180085380Y-83588857D02*
X179609190Y-83922190D01*
X180085380Y-84160285D02*
X179085380Y-84160285D01*
X179085380Y-83779333D01*
X179133000Y-83684095D01*
X179180619Y-83636476D01*
X179275857Y-83588857D01*
X179418714Y-83588857D01*
X179513952Y-83636476D01*
X179561571Y-83684095D01*
X179609190Y-83779333D01*
X179609190Y-84160285D01*
X179180619Y-83207904D02*
X179133000Y-83160285D01*
X179085380Y-83065047D01*
X179085380Y-82826952D01*
X179133000Y-82731714D01*
X179180619Y-82684095D01*
X179275857Y-82636476D01*
X179371095Y-82636476D01*
X179513952Y-82684095D01*
X180085380Y-83255523D01*
X180085380Y-82636476D01*
X179513952Y-82065047D02*
X179466333Y-82160285D01*
X179418714Y-82207904D01*
X179323476Y-82255523D01*
X179275857Y-82255523D01*
X179180619Y-82207904D01*
X179133000Y-82160285D01*
X179085380Y-82065047D01*
X179085380Y-81874571D01*
X179133000Y-81779333D01*
X179180619Y-81731714D01*
X179275857Y-81684095D01*
X179323476Y-81684095D01*
X179418714Y-81731714D01*
X179466333Y-81779333D01*
X179513952Y-81874571D01*
X179513952Y-82065047D01*
X179561571Y-82160285D01*
X179609190Y-82207904D01*
X179704428Y-82255523D01*
X179894904Y-82255523D01*
X179990142Y-82207904D01*
X180037761Y-82160285D01*
X180085380Y-82065047D01*
X180085380Y-81874571D01*
X180037761Y-81779333D01*
X179990142Y-81731714D01*
X179894904Y-81684095D01*
X179704428Y-81684095D01*
X179609190Y-81731714D01*
X179561571Y-81779333D01*
X179513952Y-81874571D01*
X148827380Y-81492857D02*
X148351190Y-81826190D01*
X148827380Y-82064285D02*
X147827380Y-82064285D01*
X147827380Y-81683333D01*
X147875000Y-81588095D01*
X147922619Y-81540476D01*
X148017857Y-81492857D01*
X148160714Y-81492857D01*
X148255952Y-81540476D01*
X148303571Y-81588095D01*
X148351190Y-81683333D01*
X148351190Y-82064285D01*
X147922619Y-81111904D02*
X147875000Y-81064285D01*
X147827380Y-80969047D01*
X147827380Y-80730952D01*
X147875000Y-80635714D01*
X147922619Y-80588095D01*
X148017857Y-80540476D01*
X148113095Y-80540476D01*
X148255952Y-80588095D01*
X148827380Y-81159523D01*
X148827380Y-80540476D01*
X147827380Y-80207142D02*
X147827380Y-79540476D01*
X148827380Y-79969047D01*
X142488380Y-100081857D02*
X142012190Y-100415190D01*
X142488380Y-100653285D02*
X141488380Y-100653285D01*
X141488380Y-100272333D01*
X141536000Y-100177095D01*
X141583619Y-100129476D01*
X141678857Y-100081857D01*
X141821714Y-100081857D01*
X141916952Y-100129476D01*
X141964571Y-100177095D01*
X142012190Y-100272333D01*
X142012190Y-100653285D01*
X141583619Y-99700904D02*
X141536000Y-99653285D01*
X141488380Y-99558047D01*
X141488380Y-99319952D01*
X141536000Y-99224714D01*
X141583619Y-99177095D01*
X141678857Y-99129476D01*
X141774095Y-99129476D01*
X141916952Y-99177095D01*
X142488380Y-99748523D01*
X142488380Y-99129476D01*
X141488380Y-98272333D02*
X141488380Y-98462809D01*
X141536000Y-98558047D01*
X141583619Y-98605666D01*
X141726476Y-98700904D01*
X141916952Y-98748523D01*
X142297904Y-98748523D01*
X142393142Y-98700904D01*
X142440761Y-98653285D01*
X142488380Y-98558047D01*
X142488380Y-98367571D01*
X142440761Y-98272333D01*
X142393142Y-98224714D01*
X142297904Y-98177095D01*
X142059809Y-98177095D01*
X141964571Y-98224714D01*
X141916952Y-98272333D01*
X141869333Y-98367571D01*
X141869333Y-98558047D01*
X141916952Y-98653285D01*
X141964571Y-98700904D01*
X142059809Y-98748523D01*
X142692380Y-112910857D02*
X142216190Y-113244190D01*
X142692380Y-113482285D02*
X141692380Y-113482285D01*
X141692380Y-113101333D01*
X141740000Y-113006095D01*
X141787619Y-112958476D01*
X141882857Y-112910857D01*
X142025714Y-112910857D01*
X142120952Y-112958476D01*
X142168571Y-113006095D01*
X142216190Y-113101333D01*
X142216190Y-113482285D01*
X141787619Y-112529904D02*
X141740000Y-112482285D01*
X141692380Y-112387047D01*
X141692380Y-112148952D01*
X141740000Y-112053714D01*
X141787619Y-112006095D01*
X141882857Y-111958476D01*
X141978095Y-111958476D01*
X142120952Y-112006095D01*
X142692380Y-112577523D01*
X142692380Y-111958476D01*
X141692380Y-111053714D02*
X141692380Y-111529904D01*
X142168571Y-111577523D01*
X142120952Y-111529904D01*
X142073333Y-111434666D01*
X142073333Y-111196571D01*
X142120952Y-111101333D01*
X142168571Y-111053714D01*
X142263809Y-111006095D01*
X142501904Y-111006095D01*
X142597142Y-111053714D01*
X142644761Y-111101333D01*
X142692380Y-111196571D01*
X142692380Y-111434666D01*
X142644761Y-111529904D01*
X142597142Y-111577523D01*
X156408380Y-100210857D02*
X155932190Y-100544190D01*
X156408380Y-100782285D02*
X155408380Y-100782285D01*
X155408380Y-100401333D01*
X155456000Y-100306095D01*
X155503619Y-100258476D01*
X155598857Y-100210857D01*
X155741714Y-100210857D01*
X155836952Y-100258476D01*
X155884571Y-100306095D01*
X155932190Y-100401333D01*
X155932190Y-100782285D01*
X155503619Y-99829904D02*
X155456000Y-99782285D01*
X155408380Y-99687047D01*
X155408380Y-99448952D01*
X155456000Y-99353714D01*
X155503619Y-99306095D01*
X155598857Y-99258476D01*
X155694095Y-99258476D01*
X155836952Y-99306095D01*
X156408380Y-99877523D01*
X156408380Y-99258476D01*
X155741714Y-98401333D02*
X156408380Y-98401333D01*
X155360761Y-98639428D02*
X156075047Y-98877523D01*
X156075047Y-98258476D01*
X159964380Y-100210857D02*
X159488190Y-100544190D01*
X159964380Y-100782285D02*
X158964380Y-100782285D01*
X158964380Y-100401333D01*
X159012000Y-100306095D01*
X159059619Y-100258476D01*
X159154857Y-100210857D01*
X159297714Y-100210857D01*
X159392952Y-100258476D01*
X159440571Y-100306095D01*
X159488190Y-100401333D01*
X159488190Y-100782285D01*
X159059619Y-99829904D02*
X159012000Y-99782285D01*
X158964380Y-99687047D01*
X158964380Y-99448952D01*
X159012000Y-99353714D01*
X159059619Y-99306095D01*
X159154857Y-99258476D01*
X159250095Y-99258476D01*
X159392952Y-99306095D01*
X159964380Y-99877523D01*
X159964380Y-99258476D01*
X158964380Y-98925142D02*
X158964380Y-98306095D01*
X159345333Y-98639428D01*
X159345333Y-98496571D01*
X159392952Y-98401333D01*
X159440571Y-98353714D01*
X159535809Y-98306095D01*
X159773904Y-98306095D01*
X159869142Y-98353714D01*
X159916761Y-98401333D01*
X159964380Y-98496571D01*
X159964380Y-98782285D01*
X159916761Y-98877523D01*
X159869142Y-98925142D01*
X149550380Y-100210857D02*
X149074190Y-100544190D01*
X149550380Y-100782285D02*
X148550380Y-100782285D01*
X148550380Y-100401333D01*
X148598000Y-100306095D01*
X148645619Y-100258476D01*
X148740857Y-100210857D01*
X148883714Y-100210857D01*
X148978952Y-100258476D01*
X149026571Y-100306095D01*
X149074190Y-100401333D01*
X149074190Y-100782285D01*
X148645619Y-99829904D02*
X148598000Y-99782285D01*
X148550380Y-99687047D01*
X148550380Y-99448952D01*
X148598000Y-99353714D01*
X148645619Y-99306095D01*
X148740857Y-99258476D01*
X148836095Y-99258476D01*
X148978952Y-99306095D01*
X149550380Y-99877523D01*
X149550380Y-99258476D01*
X148645619Y-98877523D02*
X148598000Y-98829904D01*
X148550380Y-98734666D01*
X148550380Y-98496571D01*
X148598000Y-98401333D01*
X148645619Y-98353714D01*
X148740857Y-98306095D01*
X148836095Y-98306095D01*
X148978952Y-98353714D01*
X149550380Y-98925142D01*
X149550380Y-98306095D01*
X152852380Y-100210857D02*
X152376190Y-100544190D01*
X152852380Y-100782285D02*
X151852380Y-100782285D01*
X151852380Y-100401333D01*
X151900000Y-100306095D01*
X151947619Y-100258476D01*
X152042857Y-100210857D01*
X152185714Y-100210857D01*
X152280952Y-100258476D01*
X152328571Y-100306095D01*
X152376190Y-100401333D01*
X152376190Y-100782285D01*
X151947619Y-99829904D02*
X151900000Y-99782285D01*
X151852380Y-99687047D01*
X151852380Y-99448952D01*
X151900000Y-99353714D01*
X151947619Y-99306095D01*
X152042857Y-99258476D01*
X152138095Y-99258476D01*
X152280952Y-99306095D01*
X152852380Y-99877523D01*
X152852380Y-99258476D01*
X152852380Y-98306095D02*
X152852380Y-98877523D01*
X152852380Y-98591809D02*
X151852380Y-98591809D01*
X151995238Y-98687047D01*
X152090476Y-98782285D01*
X152138095Y-98877523D01*
X155313142Y-110434380D02*
X154979809Y-109958190D01*
X154741714Y-110434380D02*
X154741714Y-109434380D01*
X155122666Y-109434380D01*
X155217904Y-109482000D01*
X155265523Y-109529619D01*
X155313142Y-109624857D01*
X155313142Y-109767714D01*
X155265523Y-109862952D01*
X155217904Y-109910571D01*
X155122666Y-109958190D01*
X154741714Y-109958190D01*
X155694095Y-109529619D02*
X155741714Y-109482000D01*
X155836952Y-109434380D01*
X156075047Y-109434380D01*
X156170285Y-109482000D01*
X156217904Y-109529619D01*
X156265523Y-109624857D01*
X156265523Y-109720095D01*
X156217904Y-109862952D01*
X155646476Y-110434380D01*
X156265523Y-110434380D01*
X156884571Y-109434380D02*
X156979809Y-109434380D01*
X157075047Y-109482000D01*
X157122666Y-109529619D01*
X157170285Y-109624857D01*
X157217904Y-109815333D01*
X157217904Y-110053428D01*
X157170285Y-110243904D01*
X157122666Y-110339142D01*
X157075047Y-110386761D01*
X156979809Y-110434380D01*
X156884571Y-110434380D01*
X156789333Y-110386761D01*
X156741714Y-110339142D01*
X156694095Y-110243904D01*
X156646476Y-110053428D01*
X156646476Y-109815333D01*
X156694095Y-109624857D01*
X156741714Y-109529619D01*
X156789333Y-109482000D01*
X156884571Y-109434380D01*
X148455142Y-110434380D02*
X148121809Y-109958190D01*
X147883714Y-110434380D02*
X147883714Y-109434380D01*
X148264666Y-109434380D01*
X148359904Y-109482000D01*
X148407523Y-109529619D01*
X148455142Y-109624857D01*
X148455142Y-109767714D01*
X148407523Y-109862952D01*
X148359904Y-109910571D01*
X148264666Y-109958190D01*
X147883714Y-109958190D01*
X149407523Y-110434380D02*
X148836095Y-110434380D01*
X149121809Y-110434380D02*
X149121809Y-109434380D01*
X149026571Y-109577238D01*
X148931333Y-109672476D01*
X148836095Y-109720095D01*
X149883714Y-110434380D02*
X150074190Y-110434380D01*
X150169428Y-110386761D01*
X150217047Y-110339142D01*
X150312285Y-110196285D01*
X150359904Y-110005809D01*
X150359904Y-109624857D01*
X150312285Y-109529619D01*
X150264666Y-109482000D01*
X150169428Y-109434380D01*
X149978952Y-109434380D01*
X149883714Y-109482000D01*
X149836095Y-109529619D01*
X149788476Y-109624857D01*
X149788476Y-109862952D01*
X149836095Y-109958190D01*
X149883714Y-110005809D01*
X149978952Y-110053428D01*
X150169428Y-110053428D01*
X150264666Y-110005809D01*
X150312285Y-109958190D01*
X150359904Y-109862952D01*
X158869142Y-110434380D02*
X158535809Y-109958190D01*
X158297714Y-110434380D02*
X158297714Y-109434380D01*
X158678666Y-109434380D01*
X158773904Y-109482000D01*
X158821523Y-109529619D01*
X158869142Y-109624857D01*
X158869142Y-109767714D01*
X158821523Y-109862952D01*
X158773904Y-109910571D01*
X158678666Y-109958190D01*
X158297714Y-109958190D01*
X159821523Y-110434380D02*
X159250095Y-110434380D01*
X159535809Y-110434380D02*
X159535809Y-109434380D01*
X159440571Y-109577238D01*
X159345333Y-109672476D01*
X159250095Y-109720095D01*
X160392952Y-109862952D02*
X160297714Y-109815333D01*
X160250095Y-109767714D01*
X160202476Y-109672476D01*
X160202476Y-109624857D01*
X160250095Y-109529619D01*
X160297714Y-109482000D01*
X160392952Y-109434380D01*
X160583428Y-109434380D01*
X160678666Y-109482000D01*
X160726285Y-109529619D01*
X160773904Y-109624857D01*
X160773904Y-109672476D01*
X160726285Y-109767714D01*
X160678666Y-109815333D01*
X160583428Y-109862952D01*
X160392952Y-109862952D01*
X160297714Y-109910571D01*
X160250095Y-109958190D01*
X160202476Y-110053428D01*
X160202476Y-110243904D01*
X160250095Y-110339142D01*
X160297714Y-110386761D01*
X160392952Y-110434380D01*
X160583428Y-110434380D01*
X160678666Y-110386761D01*
X160726285Y-110339142D01*
X160773904Y-110243904D01*
X160773904Y-110053428D01*
X160726285Y-109958190D01*
X160678666Y-109910571D01*
X160583428Y-109862952D01*
X152011142Y-110434380D02*
X151677809Y-109958190D01*
X151439714Y-110434380D02*
X151439714Y-109434380D01*
X151820666Y-109434380D01*
X151915904Y-109482000D01*
X151963523Y-109529619D01*
X152011142Y-109624857D01*
X152011142Y-109767714D01*
X151963523Y-109862952D01*
X151915904Y-109910571D01*
X151820666Y-109958190D01*
X151439714Y-109958190D01*
X152963523Y-110434380D02*
X152392095Y-110434380D01*
X152677809Y-110434380D02*
X152677809Y-109434380D01*
X152582571Y-109577238D01*
X152487333Y-109672476D01*
X152392095Y-109720095D01*
X153296857Y-109434380D02*
X153963523Y-109434380D01*
X153534952Y-110434380D01*
X139136380Y-112656857D02*
X138660190Y-112990190D01*
X139136380Y-113228285D02*
X138136380Y-113228285D01*
X138136380Y-112847333D01*
X138184000Y-112752095D01*
X138231619Y-112704476D01*
X138326857Y-112656857D01*
X138469714Y-112656857D01*
X138564952Y-112704476D01*
X138612571Y-112752095D01*
X138660190Y-112847333D01*
X138660190Y-113228285D01*
X139136380Y-111704476D02*
X139136380Y-112275904D01*
X139136380Y-111990190D02*
X138136380Y-111990190D01*
X138279238Y-112085428D01*
X138374476Y-112180666D01*
X138422095Y-112275904D01*
X138136380Y-110847333D02*
X138136380Y-111037809D01*
X138184000Y-111133047D01*
X138231619Y-111180666D01*
X138374476Y-111275904D01*
X138564952Y-111323523D01*
X138945904Y-111323523D01*
X139041142Y-111275904D01*
X139088761Y-111228285D01*
X139136380Y-111133047D01*
X139136380Y-110942571D01*
X139088761Y-110847333D01*
X139041142Y-110799714D01*
X138945904Y-110752095D01*
X138707809Y-110752095D01*
X138612571Y-110799714D01*
X138564952Y-110847333D01*
X138517333Y-110942571D01*
X138517333Y-111133047D01*
X138564952Y-111228285D01*
X138612571Y-111275904D01*
X138707809Y-111323523D01*
X139156380Y-100210857D02*
X138680190Y-100544190D01*
X139156380Y-100782285D02*
X138156380Y-100782285D01*
X138156380Y-100401333D01*
X138204000Y-100306095D01*
X138251619Y-100258476D01*
X138346857Y-100210857D01*
X138489714Y-100210857D01*
X138584952Y-100258476D01*
X138632571Y-100306095D01*
X138680190Y-100401333D01*
X138680190Y-100782285D01*
X139156380Y-99258476D02*
X139156380Y-99829904D01*
X139156380Y-99544190D02*
X138156380Y-99544190D01*
X138299238Y-99639428D01*
X138394476Y-99734666D01*
X138442095Y-99829904D01*
X138156380Y-98353714D02*
X138156380Y-98829904D01*
X138632571Y-98877523D01*
X138584952Y-98829904D01*
X138537333Y-98734666D01*
X138537333Y-98496571D01*
X138584952Y-98401333D01*
X138632571Y-98353714D01*
X138727809Y-98306095D01*
X138965904Y-98306095D01*
X139061142Y-98353714D01*
X139108761Y-98401333D01*
X139156380Y-98496571D01*
X139156380Y-98734666D01*
X139108761Y-98829904D01*
X139061142Y-98877523D01*
X177490380Y-100190857D02*
X177014190Y-100524190D01*
X177490380Y-100762285D02*
X176490380Y-100762285D01*
X176490380Y-100381333D01*
X176538000Y-100286095D01*
X176585619Y-100238476D01*
X176680857Y-100190857D01*
X176823714Y-100190857D01*
X176918952Y-100238476D01*
X176966571Y-100286095D01*
X177014190Y-100381333D01*
X177014190Y-100762285D01*
X177490380Y-99238476D02*
X177490380Y-99809904D01*
X177490380Y-99524190D02*
X176490380Y-99524190D01*
X176633238Y-99619428D01*
X176728476Y-99714666D01*
X176776095Y-99809904D01*
X176823714Y-98381333D02*
X177490380Y-98381333D01*
X176442761Y-98619428D02*
X177157047Y-98857523D01*
X177157047Y-98238476D01*
X181300380Y-100210857D02*
X180824190Y-100544190D01*
X181300380Y-100782285D02*
X180300380Y-100782285D01*
X180300380Y-100401333D01*
X180348000Y-100306095D01*
X180395619Y-100258476D01*
X180490857Y-100210857D01*
X180633714Y-100210857D01*
X180728952Y-100258476D01*
X180776571Y-100306095D01*
X180824190Y-100401333D01*
X180824190Y-100782285D01*
X181300380Y-99258476D02*
X181300380Y-99829904D01*
X181300380Y-99544190D02*
X180300380Y-99544190D01*
X180443238Y-99639428D01*
X180538476Y-99734666D01*
X180586095Y-99829904D01*
X180300380Y-98925142D02*
X180300380Y-98306095D01*
X180681333Y-98639428D01*
X180681333Y-98496571D01*
X180728952Y-98401333D01*
X180776571Y-98353714D01*
X180871809Y-98306095D01*
X181109904Y-98306095D01*
X181205142Y-98353714D01*
X181252761Y-98401333D01*
X181300380Y-98496571D01*
X181300380Y-98782285D01*
X181252761Y-98877523D01*
X181205142Y-98925142D01*
X170632380Y-100210857D02*
X170156190Y-100544190D01*
X170632380Y-100782285D02*
X169632380Y-100782285D01*
X169632380Y-100401333D01*
X169680000Y-100306095D01*
X169727619Y-100258476D01*
X169822857Y-100210857D01*
X169965714Y-100210857D01*
X170060952Y-100258476D01*
X170108571Y-100306095D01*
X170156190Y-100401333D01*
X170156190Y-100782285D01*
X170632380Y-99258476D02*
X170632380Y-99829904D01*
X170632380Y-99544190D02*
X169632380Y-99544190D01*
X169775238Y-99639428D01*
X169870476Y-99734666D01*
X169918095Y-99829904D01*
X169727619Y-98877523D02*
X169680000Y-98829904D01*
X169632380Y-98734666D01*
X169632380Y-98496571D01*
X169680000Y-98401333D01*
X169727619Y-98353714D01*
X169822857Y-98306095D01*
X169918095Y-98306095D01*
X170060952Y-98353714D01*
X170632380Y-98925142D01*
X170632380Y-98306095D01*
X173934380Y-100210857D02*
X173458190Y-100544190D01*
X173934380Y-100782285D02*
X172934380Y-100782285D01*
X172934380Y-100401333D01*
X172982000Y-100306095D01*
X173029619Y-100258476D01*
X173124857Y-100210857D01*
X173267714Y-100210857D01*
X173362952Y-100258476D01*
X173410571Y-100306095D01*
X173458190Y-100401333D01*
X173458190Y-100782285D01*
X173934380Y-99258476D02*
X173934380Y-99829904D01*
X173934380Y-99544190D02*
X172934380Y-99544190D01*
X173077238Y-99639428D01*
X173172476Y-99734666D01*
X173220095Y-99829904D01*
X173934380Y-98306095D02*
X173934380Y-98877523D01*
X173934380Y-98591809D02*
X172934380Y-98591809D01*
X173077238Y-98687047D01*
X173172476Y-98782285D01*
X173220095Y-98877523D01*
X163520380Y-100210857D02*
X163044190Y-100544190D01*
X163520380Y-100782285D02*
X162520380Y-100782285D01*
X162520380Y-100401333D01*
X162568000Y-100306095D01*
X162615619Y-100258476D01*
X162710857Y-100210857D01*
X162853714Y-100210857D01*
X162948952Y-100258476D01*
X162996571Y-100306095D01*
X163044190Y-100401333D01*
X163044190Y-100782285D01*
X163520380Y-99258476D02*
X163520380Y-99829904D01*
X163520380Y-99544190D02*
X162520380Y-99544190D01*
X162663238Y-99639428D01*
X162758476Y-99734666D01*
X162806095Y-99829904D01*
X162520380Y-98639428D02*
X162520380Y-98544190D01*
X162568000Y-98448952D01*
X162615619Y-98401333D01*
X162710857Y-98353714D01*
X162901333Y-98306095D01*
X163139428Y-98306095D01*
X163329904Y-98353714D01*
X163425142Y-98401333D01*
X163472761Y-98448952D01*
X163520380Y-98544190D01*
X163520380Y-98639428D01*
X163472761Y-98734666D01*
X163425142Y-98782285D01*
X163329904Y-98829904D01*
X163139428Y-98877523D01*
X162901333Y-98877523D01*
X162710857Y-98829904D01*
X162615619Y-98782285D01*
X162568000Y-98734666D01*
X162520380Y-98639428D01*
X167076380Y-99804666D02*
X166600190Y-100138000D01*
X167076380Y-100376095D02*
X166076380Y-100376095D01*
X166076380Y-99995142D01*
X166124000Y-99899904D01*
X166171619Y-99852285D01*
X166266857Y-99804666D01*
X166409714Y-99804666D01*
X166504952Y-99852285D01*
X166552571Y-99899904D01*
X166600190Y-99995142D01*
X166600190Y-100376095D01*
X167076380Y-99328476D02*
X167076380Y-99138000D01*
X167028761Y-99042761D01*
X166981142Y-98995142D01*
X166838285Y-98899904D01*
X166647809Y-98852285D01*
X166266857Y-98852285D01*
X166171619Y-98899904D01*
X166124000Y-98947523D01*
X166076380Y-99042761D01*
X166076380Y-99233238D01*
X166124000Y-99328476D01*
X166171619Y-99376095D01*
X166266857Y-99423714D01*
X166504952Y-99423714D01*
X166600190Y-99376095D01*
X166647809Y-99328476D01*
X166695428Y-99233238D01*
X166695428Y-99042761D01*
X166647809Y-98947523D01*
X166600190Y-98899904D01*
X166504952Y-98852285D01*
X176871333Y-110688380D02*
X176538000Y-110212190D01*
X176299904Y-110688380D02*
X176299904Y-109688380D01*
X176680857Y-109688380D01*
X176776095Y-109736000D01*
X176823714Y-109783619D01*
X176871333Y-109878857D01*
X176871333Y-110021714D01*
X176823714Y-110116952D01*
X176776095Y-110164571D01*
X176680857Y-110212190D01*
X176299904Y-110212190D01*
X177442761Y-110116952D02*
X177347523Y-110069333D01*
X177299904Y-110021714D01*
X177252285Y-109926476D01*
X177252285Y-109878857D01*
X177299904Y-109783619D01*
X177347523Y-109736000D01*
X177442761Y-109688380D01*
X177633238Y-109688380D01*
X177728476Y-109736000D01*
X177776095Y-109783619D01*
X177823714Y-109878857D01*
X177823714Y-109926476D01*
X177776095Y-110021714D01*
X177728476Y-110069333D01*
X177633238Y-110116952D01*
X177442761Y-110116952D01*
X177347523Y-110164571D01*
X177299904Y-110212190D01*
X177252285Y-110307428D01*
X177252285Y-110497904D01*
X177299904Y-110593142D01*
X177347523Y-110640761D01*
X177442761Y-110688380D01*
X177633238Y-110688380D01*
X177728476Y-110640761D01*
X177776095Y-110593142D01*
X177823714Y-110497904D01*
X177823714Y-110307428D01*
X177776095Y-110212190D01*
X177728476Y-110164571D01*
X177633238Y-110116952D01*
X169759333Y-110434380D02*
X169426000Y-109958190D01*
X169187904Y-110434380D02*
X169187904Y-109434380D01*
X169568857Y-109434380D01*
X169664095Y-109482000D01*
X169711714Y-109529619D01*
X169759333Y-109624857D01*
X169759333Y-109767714D01*
X169711714Y-109862952D01*
X169664095Y-109910571D01*
X169568857Y-109958190D01*
X169187904Y-109958190D01*
X170092666Y-109434380D02*
X170759333Y-109434380D01*
X170330761Y-110434380D01*
X162901333Y-110434380D02*
X162568000Y-109958190D01*
X162329904Y-110434380D02*
X162329904Y-109434380D01*
X162710857Y-109434380D01*
X162806095Y-109482000D01*
X162853714Y-109529619D01*
X162901333Y-109624857D01*
X162901333Y-109767714D01*
X162853714Y-109862952D01*
X162806095Y-109910571D01*
X162710857Y-109958190D01*
X162329904Y-109958190D01*
X163758476Y-109434380D02*
X163568000Y-109434380D01*
X163472761Y-109482000D01*
X163425142Y-109529619D01*
X163329904Y-109672476D01*
X163282285Y-109862952D01*
X163282285Y-110243904D01*
X163329904Y-110339142D01*
X163377523Y-110386761D01*
X163472761Y-110434380D01*
X163663238Y-110434380D01*
X163758476Y-110386761D01*
X163806095Y-110339142D01*
X163853714Y-110243904D01*
X163853714Y-110005809D01*
X163806095Y-109910571D01*
X163758476Y-109862952D01*
X163663238Y-109815333D01*
X163472761Y-109815333D01*
X163377523Y-109862952D01*
X163329904Y-109910571D01*
X163282285Y-110005809D01*
X180427333Y-110688380D02*
X180094000Y-110212190D01*
X179855904Y-110688380D02*
X179855904Y-109688380D01*
X180236857Y-109688380D01*
X180332095Y-109736000D01*
X180379714Y-109783619D01*
X180427333Y-109878857D01*
X180427333Y-110021714D01*
X180379714Y-110116952D01*
X180332095Y-110164571D01*
X180236857Y-110212190D01*
X179855904Y-110212190D01*
X181332095Y-109688380D02*
X180855904Y-109688380D01*
X180808285Y-110164571D01*
X180855904Y-110116952D01*
X180951142Y-110069333D01*
X181189238Y-110069333D01*
X181284476Y-110116952D01*
X181332095Y-110164571D01*
X181379714Y-110259809D01*
X181379714Y-110497904D01*
X181332095Y-110593142D01*
X181284476Y-110640761D01*
X181189238Y-110688380D01*
X180951142Y-110688380D01*
X180855904Y-110640761D01*
X180808285Y-110593142D01*
X173569333Y-110434380D02*
X173236000Y-109958190D01*
X172997904Y-110434380D02*
X172997904Y-109434380D01*
X173378857Y-109434380D01*
X173474095Y-109482000D01*
X173521714Y-109529619D01*
X173569333Y-109624857D01*
X173569333Y-109767714D01*
X173521714Y-109862952D01*
X173474095Y-109910571D01*
X173378857Y-109958190D01*
X172997904Y-109958190D01*
X174426476Y-109767714D02*
X174426476Y-110434380D01*
X174188380Y-109386761D02*
X173950285Y-110101047D01*
X174569333Y-110101047D01*
X166457333Y-110434380D02*
X166124000Y-109958190D01*
X165885904Y-110434380D02*
X165885904Y-109434380D01*
X166266857Y-109434380D01*
X166362095Y-109482000D01*
X166409714Y-109529619D01*
X166457333Y-109624857D01*
X166457333Y-109767714D01*
X166409714Y-109862952D01*
X166362095Y-109910571D01*
X166266857Y-109958190D01*
X165885904Y-109958190D01*
X166790666Y-109434380D02*
X167409714Y-109434380D01*
X167076380Y-109815333D01*
X167219238Y-109815333D01*
X167314476Y-109862952D01*
X167362095Y-109910571D01*
X167409714Y-110005809D01*
X167409714Y-110243904D01*
X167362095Y-110339142D01*
X167314476Y-110386761D01*
X167219238Y-110434380D01*
X166933523Y-110434380D01*
X166838285Y-110386761D01*
X166790666Y-110339142D01*
X124547333Y-122880380D02*
X124214000Y-122404190D01*
X123975904Y-122880380D02*
X123975904Y-121880380D01*
X124356857Y-121880380D01*
X124452095Y-121928000D01*
X124499714Y-121975619D01*
X124547333Y-122070857D01*
X124547333Y-122213714D01*
X124499714Y-122308952D01*
X124452095Y-122356571D01*
X124356857Y-122404190D01*
X123975904Y-122404190D01*
X124928285Y-121975619D02*
X124975904Y-121928000D01*
X125071142Y-121880380D01*
X125309238Y-121880380D01*
X125404476Y-121928000D01*
X125452095Y-121975619D01*
X125499714Y-122070857D01*
X125499714Y-122166095D01*
X125452095Y-122308952D01*
X124880666Y-122880380D01*
X125499714Y-122880380D01*
X124547333Y-118816380D02*
X124214000Y-118340190D01*
X123975904Y-118816380D02*
X123975904Y-117816380D01*
X124356857Y-117816380D01*
X124452095Y-117864000D01*
X124499714Y-117911619D01*
X124547333Y-118006857D01*
X124547333Y-118149714D01*
X124499714Y-118244952D01*
X124452095Y-118292571D01*
X124356857Y-118340190D01*
X123975904Y-118340190D01*
X125499714Y-118816380D02*
X124928285Y-118816380D01*
X125214000Y-118816380D02*
X125214000Y-117816380D01*
X125118761Y-117959238D01*
X125023523Y-118054476D01*
X124928285Y-118102095D01*
X189813095Y-100175000D02*
X189717857Y-100127380D01*
X189575000Y-100127380D01*
X189432142Y-100175000D01*
X189336904Y-100270238D01*
X189289285Y-100365476D01*
X189241666Y-100555952D01*
X189241666Y-100698809D01*
X189289285Y-100889285D01*
X189336904Y-100984523D01*
X189432142Y-101079761D01*
X189575000Y-101127380D01*
X189670238Y-101127380D01*
X189813095Y-101079761D01*
X189860714Y-101032142D01*
X189860714Y-100698809D01*
X189670238Y-100698809D01*
X190289285Y-101127380D02*
X190289285Y-100127380D01*
X190860714Y-101127380D01*
X190860714Y-100127380D01*
X191336904Y-101127380D02*
X191336904Y-100127380D01*
X191575000Y-100127380D01*
X191717857Y-100175000D01*
X191813095Y-100270238D01*
X191860714Y-100365476D01*
X191908333Y-100555952D01*
X191908333Y-100698809D01*
X191860714Y-100889285D01*
X191813095Y-100984523D01*
X191717857Y-101079761D01*
X191575000Y-101127380D01*
X191336904Y-101127380D01*
X189883333Y-75702380D02*
X189550000Y-75226190D01*
X189311904Y-75702380D02*
X189311904Y-74702380D01*
X189692857Y-74702380D01*
X189788095Y-74750000D01*
X189835714Y-74797619D01*
X189883333Y-74892857D01*
X189883333Y-75035714D01*
X189835714Y-75130952D01*
X189788095Y-75178571D01*
X189692857Y-75226190D01*
X189311904Y-75226190D01*
X190216666Y-74702380D02*
X190883333Y-75702380D01*
X190883333Y-74702380D02*
X190216666Y-75702380D01*
X191264285Y-75702380D02*
X191264285Y-74702380D01*
X191502380Y-74702380D01*
X191645238Y-74750000D01*
X191740476Y-74845238D01*
X191788095Y-74940476D01*
X191835714Y-75130952D01*
X191835714Y-75273809D01*
X191788095Y-75464285D01*
X191740476Y-75559523D01*
X191645238Y-75654761D01*
X191502380Y-75702380D01*
X191264285Y-75702380D01*
X189363095Y-78777380D02*
X189934523Y-78777380D01*
X189648809Y-79777380D02*
X189648809Y-78777380D01*
X190172619Y-78777380D02*
X190839285Y-79777380D01*
X190839285Y-78777380D02*
X190172619Y-79777380D01*
X191220238Y-79777380D02*
X191220238Y-78777380D01*
X191458333Y-78777380D01*
X191601190Y-78825000D01*
X191696428Y-78920238D01*
X191744047Y-79015476D01*
X191791666Y-79205952D01*
X191791666Y-79348809D01*
X191744047Y-79539285D01*
X191696428Y-79634523D01*
X191601190Y-79729761D01*
X191458333Y-79777380D01*
X191220238Y-79777380D01*
X107996666Y-125182380D02*
X107996666Y-125896666D01*
X107949047Y-126039523D01*
X107853809Y-126134761D01*
X107710952Y-126182380D01*
X107615714Y-126182380D01*
X108996666Y-126182380D02*
X108425238Y-126182380D01*
X108710952Y-126182380D02*
X108710952Y-125182380D01*
X108615714Y-125325238D01*
X108520476Y-125420476D01*
X108425238Y-125468095D01*
X138096666Y-81208571D02*
X137763333Y-81208571D01*
X137763333Y-81732380D02*
X137763333Y-80732380D01*
X138239523Y-80732380D01*
X138572857Y-80827619D02*
X138620476Y-80780000D01*
X138715714Y-80732380D01*
X138953809Y-80732380D01*
X139049047Y-80780000D01*
X139096666Y-80827619D01*
X139144285Y-80922857D01*
X139144285Y-81018095D01*
X139096666Y-81160952D01*
X138525238Y-81732380D01*
X139144285Y-81732380D01*
X112696666Y-104068571D02*
X112363333Y-104068571D01*
X112363333Y-104592380D02*
X112363333Y-103592380D01*
X112839523Y-103592380D01*
X113744285Y-104592380D02*
X113172857Y-104592380D01*
X113458571Y-104592380D02*
X113458571Y-103592380D01*
X113363333Y-103735238D01*
X113268095Y-103830476D01*
X113172857Y-103878095D01*
X148359904Y-75890380D02*
X148359904Y-74890380D01*
X148598000Y-74890380D01*
X148740857Y-74938000D01*
X148836095Y-75033238D01*
X148883714Y-75128476D01*
X148931333Y-75318952D01*
X148931333Y-75461809D01*
X148883714Y-75652285D01*
X148836095Y-75747523D01*
X148740857Y-75842761D01*
X148598000Y-75890380D01*
X148359904Y-75890380D01*
X149264666Y-74890380D02*
X149931333Y-74890380D01*
X149502761Y-75890380D01*
X149161809Y-74064761D02*
X149304666Y-74112380D01*
X149542761Y-74112380D01*
X149638000Y-74064761D01*
X149685619Y-74017142D01*
X149733238Y-73921904D01*
X149733238Y-73826666D01*
X149685619Y-73731428D01*
X149638000Y-73683809D01*
X149542761Y-73636190D01*
X149352285Y-73588571D01*
X149257047Y-73540952D01*
X149209428Y-73493333D01*
X149161809Y-73398095D01*
X149161809Y-73302857D01*
X149209428Y-73207619D01*
X149257047Y-73160000D01*
X149352285Y-73112380D01*
X149590380Y-73112380D01*
X149733238Y-73160000D01*
X150018952Y-73112380D02*
X150590380Y-73112380D01*
X150304666Y-74112380D02*
X150304666Y-73112380D01*
X150876095Y-73826666D02*
X151352285Y-73826666D01*
X150780857Y-74112380D02*
X151114190Y-73112380D01*
X151447523Y-74112380D01*
X151638000Y-73112380D02*
X152209428Y-73112380D01*
X151923714Y-74112380D02*
X151923714Y-73112380D01*
X152542761Y-73112380D02*
X152542761Y-73921904D01*
X152590380Y-74017142D01*
X152638000Y-74064761D01*
X152733238Y-74112380D01*
X152923714Y-74112380D01*
X153018952Y-74064761D01*
X153066571Y-74017142D01*
X153114190Y-73921904D01*
X153114190Y-73112380D01*
X153542761Y-74064761D02*
X153685619Y-74112380D01*
X153923714Y-74112380D01*
X154018952Y-74064761D01*
X154066571Y-74017142D01*
X154114190Y-73921904D01*
X154114190Y-73826666D01*
X154066571Y-73731428D01*
X154018952Y-73683809D01*
X153923714Y-73636190D01*
X153733238Y-73588571D01*
X153638000Y-73540952D01*
X153590380Y-73493333D01*
X153542761Y-73398095D01*
X153542761Y-73302857D01*
X153590380Y-73207619D01*
X153638000Y-73160000D01*
X153733238Y-73112380D01*
X153971333Y-73112380D01*
X154114190Y-73160000D01*
X146327904Y-105354380D02*
X146327904Y-104354380D01*
X146566000Y-104354380D01*
X146708857Y-104402000D01*
X146804095Y-104497238D01*
X146851714Y-104592476D01*
X146899333Y-104782952D01*
X146899333Y-104925809D01*
X146851714Y-105116285D01*
X146804095Y-105211523D01*
X146708857Y-105306761D01*
X146566000Y-105354380D01*
X146327904Y-105354380D01*
X147756476Y-104354380D02*
X147566000Y-104354380D01*
X147470761Y-104402000D01*
X147423142Y-104449619D01*
X147327904Y-104592476D01*
X147280285Y-104782952D01*
X147280285Y-105163904D01*
X147327904Y-105259142D01*
X147375523Y-105306761D01*
X147470761Y-105354380D01*
X147661238Y-105354380D01*
X147756476Y-105306761D01*
X147804095Y-105259142D01*
X147851714Y-105163904D01*
X147851714Y-104925809D01*
X147804095Y-104830571D01*
X147756476Y-104782952D01*
X147661238Y-104735333D01*
X147470761Y-104735333D01*
X147375523Y-104782952D01*
X147327904Y-104830571D01*
X147280285Y-104925809D01*
X146445904Y-113228380D02*
X146445904Y-112228380D01*
X146684000Y-112228380D01*
X146826857Y-112276000D01*
X146922095Y-112371238D01*
X146969714Y-112466476D01*
X147017333Y-112656952D01*
X147017333Y-112799809D01*
X146969714Y-112990285D01*
X146922095Y-113085523D01*
X146826857Y-113180761D01*
X146684000Y-113228380D01*
X146445904Y-113228380D01*
X147922095Y-112228380D02*
X147445904Y-112228380D01*
X147398285Y-112704571D01*
X147445904Y-112656952D01*
X147541142Y-112609333D01*
X147779238Y-112609333D01*
X147874476Y-112656952D01*
X147922095Y-112704571D01*
X147969714Y-112799809D01*
X147969714Y-113037904D01*
X147922095Y-113133142D01*
X147874476Y-113180761D01*
X147779238Y-113228380D01*
X147541142Y-113228380D01*
X147445904Y-113180761D01*
X147398285Y-113133142D01*
X146405904Y-109418380D02*
X146405904Y-108418380D01*
X146644000Y-108418380D01*
X146786857Y-108466000D01*
X146882095Y-108561238D01*
X146929714Y-108656476D01*
X146977333Y-108846952D01*
X146977333Y-108989809D01*
X146929714Y-109180285D01*
X146882095Y-109275523D01*
X146786857Y-109370761D01*
X146644000Y-109418380D01*
X146405904Y-109418380D01*
X147834476Y-108751714D02*
X147834476Y-109418380D01*
X147596380Y-108370761D02*
X147358285Y-109085047D01*
X147977333Y-109085047D01*
X186205904Y-109418380D02*
X186205904Y-108418380D01*
X186444000Y-108418380D01*
X186586857Y-108466000D01*
X186682095Y-108561238D01*
X186729714Y-108656476D01*
X186777333Y-108846952D01*
X186777333Y-108989809D01*
X186729714Y-109180285D01*
X186682095Y-109275523D01*
X186586857Y-109370761D01*
X186444000Y-109418380D01*
X186205904Y-109418380D01*
X187110666Y-108418380D02*
X187729714Y-108418380D01*
X187396380Y-108799333D01*
X187539238Y-108799333D01*
X187634476Y-108846952D01*
X187682095Y-108894571D01*
X187729714Y-108989809D01*
X187729714Y-109227904D01*
X187682095Y-109323142D01*
X187634476Y-109370761D01*
X187539238Y-109418380D01*
X187253523Y-109418380D01*
X187158285Y-109370761D01*
X187110666Y-109323142D01*
X186459904Y-113228380D02*
X186459904Y-112228380D01*
X186698000Y-112228380D01*
X186840857Y-112276000D01*
X186936095Y-112371238D01*
X186983714Y-112466476D01*
X187031333Y-112656952D01*
X187031333Y-112799809D01*
X186983714Y-112990285D01*
X186936095Y-113085523D01*
X186840857Y-113180761D01*
X186698000Y-113228380D01*
X186459904Y-113228380D01*
X187412285Y-112323619D02*
X187459904Y-112276000D01*
X187555142Y-112228380D01*
X187793238Y-112228380D01*
X187888476Y-112276000D01*
X187936095Y-112323619D01*
X187983714Y-112418857D01*
X187983714Y-112514095D01*
X187936095Y-112656952D01*
X187364666Y-113228380D01*
X187983714Y-113228380D01*
X146689904Y-116530380D02*
X146689904Y-115530380D01*
X146928000Y-115530380D01*
X147070857Y-115578000D01*
X147166095Y-115673238D01*
X147213714Y-115768476D01*
X147261333Y-115958952D01*
X147261333Y-116101809D01*
X147213714Y-116292285D01*
X147166095Y-116387523D01*
X147070857Y-116482761D01*
X146928000Y-116530380D01*
X146689904Y-116530380D01*
X148213714Y-116530380D02*
X147642285Y-116530380D01*
X147928000Y-116530380D02*
X147928000Y-115530380D01*
X147832761Y-115673238D01*
X147737523Y-115768476D01*
X147642285Y-115816095D01*
X183316142Y-76412142D02*
X183268523Y-76459761D01*
X183125666Y-76507380D01*
X183030428Y-76507380D01*
X182887571Y-76459761D01*
X182792333Y-76364523D01*
X182744714Y-76269285D01*
X182697095Y-76078809D01*
X182697095Y-75935952D01*
X182744714Y-75745476D01*
X182792333Y-75650238D01*
X182887571Y-75555000D01*
X183030428Y-75507380D01*
X183125666Y-75507380D01*
X183268523Y-75555000D01*
X183316142Y-75602619D01*
X184268523Y-76507380D02*
X183697095Y-76507380D01*
X183982809Y-76507380D02*
X183982809Y-75507380D01*
X183887571Y-75650238D01*
X183792333Y-75745476D01*
X183697095Y-75793095D01*
X184649476Y-75602619D02*
X184697095Y-75555000D01*
X184792333Y-75507380D01*
X185030428Y-75507380D01*
X185125666Y-75555000D01*
X185173285Y-75602619D01*
X185220904Y-75697857D01*
X185220904Y-75793095D01*
X185173285Y-75935952D01*
X184601857Y-76507380D01*
X185220904Y-76507380D01*
X175379142Y-76303142D02*
X175331523Y-76350761D01*
X175188666Y-76398380D01*
X175093428Y-76398380D01*
X174950571Y-76350761D01*
X174855333Y-76255523D01*
X174807714Y-76160285D01*
X174760095Y-75969809D01*
X174760095Y-75826952D01*
X174807714Y-75636476D01*
X174855333Y-75541238D01*
X174950571Y-75446000D01*
X175093428Y-75398380D01*
X175188666Y-75398380D01*
X175331523Y-75446000D01*
X175379142Y-75493619D01*
X176331523Y-76398380D02*
X175760095Y-76398380D01*
X176045809Y-76398380D02*
X176045809Y-75398380D01*
X175950571Y-75541238D01*
X175855333Y-75636476D01*
X175760095Y-75684095D01*
X177283904Y-76398380D02*
X176712476Y-76398380D01*
X176998190Y-76398380D02*
X176998190Y-75398380D01*
X176902952Y-75541238D01*
X176807714Y-75636476D01*
X176712476Y-75684095D01*
X151987142Y-81517857D02*
X152034761Y-81565476D01*
X152082380Y-81708333D01*
X152082380Y-81803571D01*
X152034761Y-81946428D01*
X151939523Y-82041666D01*
X151844285Y-82089285D01*
X151653809Y-82136904D01*
X151510952Y-82136904D01*
X151320476Y-82089285D01*
X151225238Y-82041666D01*
X151130000Y-81946428D01*
X151082380Y-81803571D01*
X151082380Y-81708333D01*
X151130000Y-81565476D01*
X151177619Y-81517857D01*
X152082380Y-80565476D02*
X152082380Y-81136904D01*
X152082380Y-80851190D02*
X151082380Y-80851190D01*
X151225238Y-80946428D01*
X151320476Y-81041666D01*
X151368095Y-81136904D01*
X151082380Y-79946428D02*
X151082380Y-79851190D01*
X151130000Y-79755952D01*
X151177619Y-79708333D01*
X151272857Y-79660714D01*
X151463333Y-79613095D01*
X151701428Y-79613095D01*
X151891904Y-79660714D01*
X151987142Y-79708333D01*
X152034761Y-79755952D01*
X152082380Y-79851190D01*
X152082380Y-79946428D01*
X152034761Y-80041666D01*
X151987142Y-80089285D01*
X151891904Y-80136904D01*
X151701428Y-80184523D01*
X151463333Y-80184523D01*
X151272857Y-80136904D01*
X151177619Y-80089285D01*
X151130000Y-80041666D01*
X151082380Y-79946428D01*
X139533333Y-120245142D02*
X139485714Y-120292761D01*
X139342857Y-120340380D01*
X139247619Y-120340380D01*
X139104761Y-120292761D01*
X139009523Y-120197523D01*
X138961904Y-120102285D01*
X138914285Y-119911809D01*
X138914285Y-119768952D01*
X138961904Y-119578476D01*
X139009523Y-119483238D01*
X139104761Y-119388000D01*
X139247619Y-119340380D01*
X139342857Y-119340380D01*
X139485714Y-119388000D01*
X139533333Y-119435619D01*
X140009523Y-120340380D02*
X140200000Y-120340380D01*
X140295238Y-120292761D01*
X140342857Y-120245142D01*
X140438095Y-120102285D01*
X140485714Y-119911809D01*
X140485714Y-119530857D01*
X140438095Y-119435619D01*
X140390476Y-119388000D01*
X140295238Y-119340380D01*
X140104761Y-119340380D01*
X140009523Y-119388000D01*
X139961904Y-119435619D01*
X139914285Y-119530857D01*
X139914285Y-119768952D01*
X139961904Y-119864190D01*
X140009523Y-119911809D01*
X140104761Y-119959428D01*
X140295238Y-119959428D01*
X140390476Y-119911809D01*
X140438095Y-119864190D01*
X140485714Y-119768952D01*
X139787333Y-125071142D02*
X139739714Y-125118761D01*
X139596857Y-125166380D01*
X139501619Y-125166380D01*
X139358761Y-125118761D01*
X139263523Y-125023523D01*
X139215904Y-124928285D01*
X139168285Y-124737809D01*
X139168285Y-124594952D01*
X139215904Y-124404476D01*
X139263523Y-124309238D01*
X139358761Y-124214000D01*
X139501619Y-124166380D01*
X139596857Y-124166380D01*
X139739714Y-124214000D01*
X139787333Y-124261619D01*
X140358761Y-124594952D02*
X140263523Y-124547333D01*
X140215904Y-124499714D01*
X140168285Y-124404476D01*
X140168285Y-124356857D01*
X140215904Y-124261619D01*
X140263523Y-124214000D01*
X140358761Y-124166380D01*
X140549238Y-124166380D01*
X140644476Y-124214000D01*
X140692095Y-124261619D01*
X140739714Y-124356857D01*
X140739714Y-124404476D01*
X140692095Y-124499714D01*
X140644476Y-124547333D01*
X140549238Y-124594952D01*
X140358761Y-124594952D01*
X140263523Y-124642571D01*
X140215904Y-124690190D01*
X140168285Y-124785428D01*
X140168285Y-124975904D01*
X140215904Y-125071142D01*
X140263523Y-125118761D01*
X140358761Y-125166380D01*
X140549238Y-125166380D01*
X140644476Y-125118761D01*
X140692095Y-125071142D01*
X140739714Y-124975904D01*
X140739714Y-124785428D01*
X140692095Y-124690190D01*
X140644476Y-124642571D01*
X140549238Y-124594952D01*
X139787333Y-122531142D02*
X139739714Y-122578761D01*
X139596857Y-122626380D01*
X139501619Y-122626380D01*
X139358761Y-122578761D01*
X139263523Y-122483523D01*
X139215904Y-122388285D01*
X139168285Y-122197809D01*
X139168285Y-122054952D01*
X139215904Y-121864476D01*
X139263523Y-121769238D01*
X139358761Y-121674000D01*
X139501619Y-121626380D01*
X139596857Y-121626380D01*
X139739714Y-121674000D01*
X139787333Y-121721619D01*
X140120666Y-121626380D02*
X140787333Y-121626380D01*
X140358761Y-122626380D01*
X189825333Y-124817142D02*
X189777714Y-124864761D01*
X189634857Y-124912380D01*
X189539619Y-124912380D01*
X189396761Y-124864761D01*
X189301523Y-124769523D01*
X189253904Y-124674285D01*
X189206285Y-124483809D01*
X189206285Y-124340952D01*
X189253904Y-124150476D01*
X189301523Y-124055238D01*
X189396761Y-123960000D01*
X189539619Y-123912380D01*
X189634857Y-123912380D01*
X189777714Y-123960000D01*
X189825333Y-124007619D01*
X190682476Y-123912380D02*
X190492000Y-123912380D01*
X190396761Y-123960000D01*
X190349142Y-124007619D01*
X190253904Y-124150476D01*
X190206285Y-124340952D01*
X190206285Y-124721904D01*
X190253904Y-124817142D01*
X190301523Y-124864761D01*
X190396761Y-124912380D01*
X190587238Y-124912380D01*
X190682476Y-124864761D01*
X190730095Y-124817142D01*
X190777714Y-124721904D01*
X190777714Y-124483809D01*
X190730095Y-124388571D01*
X190682476Y-124340952D01*
X190587238Y-124293333D01*
X190396761Y-124293333D01*
X190301523Y-124340952D01*
X190253904Y-124388571D01*
X190206285Y-124483809D01*
X189825333Y-122531142D02*
X189777714Y-122578761D01*
X189634857Y-122626380D01*
X189539619Y-122626380D01*
X189396761Y-122578761D01*
X189301523Y-122483523D01*
X189253904Y-122388285D01*
X189206285Y-122197809D01*
X189206285Y-122054952D01*
X189253904Y-121864476D01*
X189301523Y-121769238D01*
X189396761Y-121674000D01*
X189539619Y-121626380D01*
X189634857Y-121626380D01*
X189777714Y-121674000D01*
X189825333Y-121721619D01*
X190730095Y-121626380D02*
X190253904Y-121626380D01*
X190206285Y-122102571D01*
X190253904Y-122054952D01*
X190349142Y-122007333D01*
X190587238Y-122007333D01*
X190682476Y-122054952D01*
X190730095Y-122102571D01*
X190777714Y-122197809D01*
X190777714Y-122435904D01*
X190730095Y-122531142D01*
X190682476Y-122578761D01*
X190587238Y-122626380D01*
X190349142Y-122626380D01*
X190253904Y-122578761D01*
X190206285Y-122531142D01*
X189939333Y-120236142D02*
X189891714Y-120283761D01*
X189748857Y-120331380D01*
X189653619Y-120331380D01*
X189510761Y-120283761D01*
X189415523Y-120188523D01*
X189367904Y-120093285D01*
X189320285Y-119902809D01*
X189320285Y-119759952D01*
X189367904Y-119569476D01*
X189415523Y-119474238D01*
X189510761Y-119379000D01*
X189653619Y-119331380D01*
X189748857Y-119331380D01*
X189891714Y-119379000D01*
X189939333Y-119426619D01*
X190796476Y-119664714D02*
X190796476Y-120331380D01*
X190558380Y-119283761D02*
X190320285Y-119998047D01*
X190939333Y-119998047D01*
X152983333Y-91207142D02*
X152935714Y-91254761D01*
X152792857Y-91302380D01*
X152697619Y-91302380D01*
X152554761Y-91254761D01*
X152459523Y-91159523D01*
X152411904Y-91064285D01*
X152364285Y-90873809D01*
X152364285Y-90730952D01*
X152411904Y-90540476D01*
X152459523Y-90445238D01*
X152554761Y-90350000D01*
X152697619Y-90302380D01*
X152792857Y-90302380D01*
X152935714Y-90350000D01*
X152983333Y-90397619D01*
X153316666Y-90302380D02*
X153935714Y-90302380D01*
X153602380Y-90683333D01*
X153745238Y-90683333D01*
X153840476Y-90730952D01*
X153888095Y-90778571D01*
X153935714Y-90873809D01*
X153935714Y-91111904D01*
X153888095Y-91207142D01*
X153840476Y-91254761D01*
X153745238Y-91302380D01*
X153459523Y-91302380D01*
X153364285Y-91254761D01*
X153316666Y-91207142D01*
X152858333Y-83932142D02*
X152810714Y-83979761D01*
X152667857Y-84027380D01*
X152572619Y-84027380D01*
X152429761Y-83979761D01*
X152334523Y-83884523D01*
X152286904Y-83789285D01*
X152239285Y-83598809D01*
X152239285Y-83455952D01*
X152286904Y-83265476D01*
X152334523Y-83170238D01*
X152429761Y-83075000D01*
X152572619Y-83027380D01*
X152667857Y-83027380D01*
X152810714Y-83075000D01*
X152858333Y-83122619D01*
X153239285Y-83122619D02*
X153286904Y-83075000D01*
X153382142Y-83027380D01*
X153620238Y-83027380D01*
X153715476Y-83075000D01*
X153763095Y-83122619D01*
X153810714Y-83217857D01*
X153810714Y-83313095D01*
X153763095Y-83455952D01*
X153191666Y-84027380D01*
X153810714Y-84027380D01*
X118673714Y-73096380D02*
X118673714Y-72096380D01*
X119054666Y-72096380D01*
X119149904Y-72144000D01*
X119197523Y-72191619D01*
X119245142Y-72286857D01*
X119245142Y-72429714D01*
X119197523Y-72524952D01*
X119149904Y-72572571D01*
X119054666Y-72620190D01*
X118673714Y-72620190D01*
X119626095Y-73048761D02*
X119768952Y-73096380D01*
X120007047Y-73096380D01*
X120102285Y-73048761D01*
X120149904Y-73001142D01*
X120197523Y-72905904D01*
X120197523Y-72810666D01*
X120149904Y-72715428D01*
X120102285Y-72667809D01*
X120007047Y-72620190D01*
X119816571Y-72572571D01*
X119721333Y-72524952D01*
X119673714Y-72477333D01*
X119626095Y-72382095D01*
X119626095Y-72286857D01*
X119673714Y-72191619D01*
X119721333Y-72144000D01*
X119816571Y-72096380D01*
X120054666Y-72096380D01*
X120197523Y-72144000D01*
X121149904Y-73096380D02*
X120578476Y-73096380D01*
X120864190Y-73096380D02*
X120864190Y-72096380D01*
X120768952Y-72239238D01*
X120673714Y-72334476D01*
X120578476Y-72382095D01*
X136906095Y-126452380D02*
X136906095Y-127261904D01*
X136953714Y-127357142D01*
X137001333Y-127404761D01*
X137096571Y-127452380D01*
X137287047Y-127452380D01*
X137382285Y-127404761D01*
X137429904Y-127357142D01*
X137477523Y-127261904D01*
X137477523Y-126452380D01*
X137906095Y-126547619D02*
X137953714Y-126500000D01*
X138048952Y-126452380D01*
X138287047Y-126452380D01*
X138382285Y-126500000D01*
X138429904Y-126547619D01*
X138477523Y-126642857D01*
X138477523Y-126738095D01*
X138429904Y-126880952D01*
X137858476Y-127452380D01*
X138477523Y-127452380D01*
X124592495Y-95893580D02*
X125163923Y-95893580D01*
X124878209Y-96893580D02*
X124878209Y-95893580D01*
X126068685Y-96893580D02*
X125735352Y-96417390D01*
X125497257Y-96893580D02*
X125497257Y-95893580D01*
X125878209Y-95893580D01*
X125973447Y-95941200D01*
X126021066Y-95988819D01*
X126068685Y-96084057D01*
X126068685Y-96226914D01*
X126021066Y-96322152D01*
X125973447Y-96369771D01*
X125878209Y-96417390D01*
X125497257Y-96417390D01*
X127021066Y-96893580D02*
X126449638Y-96893580D01*
X126735352Y-96893580D02*
X126735352Y-95893580D01*
X126640114Y-96036438D01*
X126544876Y-96131676D01*
X126449638Y-96179295D01*
X118062914Y-101465580D02*
X117491485Y-101465580D01*
X117777200Y-101465580D02*
X117777200Y-100465580D01*
X117681961Y-100608438D01*
X117586723Y-100703676D01*
X117491485Y-100751295D01*
X118018476Y-111365314D02*
X118018476Y-112031980D01*
X117780380Y-110984361D02*
X117542285Y-111698647D01*
X118161333Y-111698647D01*
X133258476Y-110320780D02*
X133068000Y-110320780D01*
X132972761Y-110368400D01*
X132925142Y-110416019D01*
X132829904Y-110558876D01*
X132782285Y-110749352D01*
X132782285Y-111130304D01*
X132829904Y-111225542D01*
X132877523Y-111273161D01*
X132972761Y-111320780D01*
X133163238Y-111320780D01*
X133258476Y-111273161D01*
X133306095Y-111225542D01*
X133353714Y-111130304D01*
X133353714Y-110892209D01*
X133306095Y-110796971D01*
X133258476Y-110749352D01*
X133163238Y-110701733D01*
X132972761Y-110701733D01*
X132877523Y-110749352D01*
X132829904Y-110796971D01*
X132782285Y-110892209D01*
X132836266Y-100821180D02*
X133502933Y-100821180D01*
X133074361Y-101821180D01*
X174963095Y-90377380D02*
X174963095Y-91186904D01*
X175010714Y-91282142D01*
X175058333Y-91329761D01*
X175153571Y-91377380D01*
X175344047Y-91377380D01*
X175439285Y-91329761D01*
X175486904Y-91282142D01*
X175534523Y-91186904D01*
X175534523Y-90377380D01*
X176534523Y-91377380D02*
X175963095Y-91377380D01*
X176248809Y-91377380D02*
X176248809Y-90377380D01*
X176153571Y-90520238D01*
X176058333Y-90615476D01*
X175963095Y-90663095D01*
D11*
X156925000Y-72125000D02*
X156925000Y-70125000D01*
X159725000Y-72125000D02*
X156925000Y-72125000D01*
X159725000Y-70125000D02*
X159725000Y-72125000D01*
X156925000Y-70125000D02*
X159725000Y-70125000D01*
X146064000Y-118678000D02*
X148064000Y-118678000D01*
X146064000Y-119928000D02*
X146064000Y-118678000D01*
X182014000Y-125678000D02*
X181264000Y-125678000D01*
X182014000Y-121378000D02*
X182014000Y-125678000D01*
X181264000Y-121378000D02*
X182014000Y-121378000D01*
X181264000Y-121028000D02*
X181264000Y-121378000D01*
X181764000Y-121028000D02*
X181264000Y-121028000D01*
X182014000Y-120028000D02*
X181764000Y-121028000D01*
X179014000Y-120028000D02*
X182014000Y-120028000D01*
X179264000Y-121028000D02*
X179014000Y-120028000D01*
X179764000Y-121028000D02*
X179264000Y-121028000D01*
X179764000Y-121378000D02*
X179764000Y-121028000D01*
X179014000Y-121378000D02*
X179764000Y-121378000D01*
X179014000Y-125678000D02*
X179014000Y-121378000D01*
X179764000Y-125678000D02*
X179014000Y-125678000D01*
X178514000Y-125678000D02*
X177764000Y-125678000D01*
X178514000Y-121378000D02*
X178514000Y-125678000D01*
X177764000Y-121378000D02*
X178514000Y-121378000D01*
X177764000Y-121028000D02*
X177764000Y-121378000D01*
X178264000Y-121028000D02*
X177764000Y-121028000D01*
X178514000Y-120028000D02*
X178264000Y-121028000D01*
X175514000Y-120028000D02*
X178514000Y-120028000D01*
X175764000Y-121028000D02*
X175514000Y-120028000D01*
X176264000Y-121028000D02*
X175764000Y-121028000D01*
X176264000Y-121378000D02*
X176264000Y-121028000D01*
X175514000Y-121378000D02*
X176264000Y-121378000D01*
X175514000Y-125678000D02*
X175514000Y-121378000D01*
X176264000Y-125678000D02*
X175514000Y-125678000D01*
X175014000Y-125678000D02*
X174264000Y-125678000D01*
X175014000Y-121378000D02*
X175014000Y-125678000D01*
X174264000Y-121378000D02*
X175014000Y-121378000D01*
X174264000Y-121028000D02*
X174264000Y-121378000D01*
X174764000Y-121028000D02*
X174264000Y-121028000D01*
X175014000Y-120028000D02*
X174764000Y-121028000D01*
X172014000Y-120028000D02*
X175014000Y-120028000D01*
X172264000Y-121028000D02*
X172014000Y-120028000D01*
X172764000Y-121028000D02*
X172264000Y-121028000D01*
X172764000Y-121378000D02*
X172764000Y-121028000D01*
X172014000Y-121378000D02*
X172764000Y-121378000D01*
X172014000Y-125678000D02*
X172014000Y-121378000D01*
X172764000Y-125678000D02*
X172014000Y-125678000D01*
X171514000Y-125678000D02*
X170764000Y-125678000D01*
X171514000Y-121378000D02*
X171514000Y-125678000D01*
X170764000Y-121378000D02*
X171514000Y-121378000D01*
X170764000Y-121028000D02*
X170764000Y-121378000D01*
X171264000Y-121028000D02*
X170764000Y-121028000D01*
X171514000Y-120028000D02*
X171264000Y-121028000D01*
X168514000Y-120028000D02*
X171514000Y-120028000D01*
X168764000Y-121028000D02*
X168514000Y-120028000D01*
X169264000Y-121028000D02*
X168764000Y-121028000D01*
X169264000Y-121378000D02*
X169264000Y-121028000D01*
X168514000Y-121378000D02*
X169264000Y-121378000D01*
X168514000Y-125678000D02*
X168514000Y-121378000D01*
X169264000Y-125678000D02*
X168514000Y-125678000D01*
X168014000Y-125678000D02*
X167264000Y-125678000D01*
X168014000Y-121378000D02*
X168014000Y-125678000D01*
X167264000Y-121378000D02*
X168014000Y-121378000D01*
X167264000Y-121028000D02*
X167264000Y-121378000D01*
X167764000Y-121028000D02*
X167264000Y-121028000D01*
X168014000Y-120028000D02*
X167764000Y-121028000D01*
X165014000Y-120028000D02*
X168014000Y-120028000D01*
X165264000Y-121028000D02*
X165014000Y-120028000D01*
X165764000Y-121028000D02*
X165264000Y-121028000D01*
X165764000Y-121378000D02*
X165764000Y-121028000D01*
X165014000Y-121378000D02*
X165764000Y-121378000D01*
X165014000Y-125678000D02*
X165014000Y-121378000D01*
X165764000Y-125678000D02*
X165014000Y-125678000D01*
X164514000Y-125678000D02*
X163764000Y-125678000D01*
X164514000Y-121378000D02*
X164514000Y-125678000D01*
X163764000Y-121378000D02*
X164514000Y-121378000D01*
X163764000Y-121028000D02*
X163764000Y-121378000D01*
X164264000Y-121028000D02*
X163764000Y-121028000D01*
X164514000Y-120028000D02*
X164264000Y-121028000D01*
X161514000Y-120028000D02*
X164514000Y-120028000D01*
X161764000Y-121028000D02*
X161514000Y-120028000D01*
X162264000Y-121028000D02*
X161764000Y-121028000D01*
X162264000Y-121378000D02*
X162264000Y-121028000D01*
X161514000Y-121378000D02*
X162264000Y-121378000D01*
X161514000Y-125678000D02*
X161514000Y-121378000D01*
X162264000Y-125678000D02*
X161514000Y-125678000D01*
X161014000Y-125678000D02*
X160264000Y-125678000D01*
X161014000Y-121378000D02*
X161014000Y-125678000D01*
X160264000Y-121378000D02*
X161014000Y-121378000D01*
X160264000Y-121028000D02*
X160264000Y-121378000D01*
X160764000Y-121028000D02*
X160264000Y-121028000D01*
X161014000Y-120028000D02*
X160764000Y-121028000D01*
X158014000Y-120028000D02*
X161014000Y-120028000D01*
X158264000Y-121028000D02*
X158014000Y-120028000D01*
X158764000Y-121028000D02*
X158264000Y-121028000D01*
X158764000Y-121378000D02*
X158764000Y-121028000D01*
X158014000Y-121378000D02*
X158764000Y-121378000D01*
X158014000Y-125678000D02*
X158014000Y-121378000D01*
X158764000Y-125678000D02*
X158014000Y-125678000D01*
X157514000Y-125678000D02*
X156764000Y-125678000D01*
X157514000Y-121378000D02*
X157514000Y-125678000D01*
X156764000Y-121378000D02*
X157514000Y-121378000D01*
X156764000Y-121028000D02*
X156764000Y-121378000D01*
X157264000Y-121028000D02*
X156764000Y-121028000D01*
X157514000Y-120028000D02*
X157264000Y-121028000D01*
X154514000Y-120028000D02*
X157514000Y-120028000D01*
X154764000Y-121028000D02*
X154514000Y-120028000D01*
X155264000Y-121028000D02*
X154764000Y-121028000D01*
X155264000Y-121378000D02*
X155264000Y-121028000D01*
X154514000Y-121378000D02*
X155264000Y-121378000D01*
X154514000Y-125678000D02*
X154514000Y-121378000D01*
X155264000Y-125678000D02*
X154514000Y-125678000D01*
X154014000Y-125678000D02*
X153264000Y-125678000D01*
X154014000Y-121378000D02*
X154014000Y-125678000D01*
X153264000Y-121378000D02*
X154014000Y-121378000D01*
X153264000Y-121028000D02*
X153264000Y-121378000D01*
X153764000Y-121028000D02*
X153264000Y-121028000D01*
X154014000Y-120028000D02*
X153764000Y-121028000D01*
X151014000Y-120028000D02*
X154014000Y-120028000D01*
X151264000Y-121028000D02*
X151014000Y-120028000D01*
X151764000Y-121028000D02*
X151264000Y-121028000D01*
X151764000Y-121378000D02*
X151764000Y-121028000D01*
X151014000Y-121378000D02*
X151764000Y-121378000D01*
X151014000Y-125678000D02*
X151014000Y-121378000D01*
X151764000Y-125678000D02*
X151014000Y-125678000D01*
X150514000Y-125678000D02*
X149764000Y-125678000D01*
X150514000Y-121378000D02*
X150514000Y-125678000D01*
X149764000Y-121378000D02*
X150514000Y-121378000D01*
X149764000Y-121028000D02*
X149764000Y-121378000D01*
X150264000Y-121028000D02*
X149764000Y-121028000D01*
X150514000Y-120028000D02*
X150264000Y-121028000D01*
X147514000Y-120028000D02*
X150514000Y-120028000D01*
X147764000Y-121028000D02*
X147514000Y-120028000D01*
X148264000Y-121028000D02*
X147764000Y-121028000D01*
X148264000Y-121378000D02*
X148264000Y-121028000D01*
X147514000Y-121378000D02*
X148264000Y-121378000D01*
X147514000Y-125678000D02*
X147514000Y-121378000D01*
X148264000Y-125678000D02*
X147514000Y-125678000D01*
X183044000Y-119098000D02*
X146484000Y-119098000D01*
X183044000Y-126508000D02*
X183044000Y-119098000D01*
X146484000Y-126508000D02*
X183044000Y-126508000D01*
X146484000Y-119098000D02*
X146484000Y-126508000D01*
X181263647Y-125677845D02*
G75*
G03*
X179764000Y-125678000I-749647J-1700155D01*
G01*
X177763647Y-125677845D02*
G75*
G03*
X176264000Y-125678000I-749647J-1700155D01*
G01*
X174263647Y-125677845D02*
G75*
G03*
X172764000Y-125678000I-749647J-1700155D01*
G01*
X170763647Y-125677845D02*
G75*
G03*
X169264000Y-125678000I-749647J-1700155D01*
G01*
X167263647Y-125677845D02*
G75*
G03*
X165764000Y-125678000I-749647J-1700155D01*
G01*
X163763647Y-125677845D02*
G75*
G03*
X162264000Y-125678000I-749647J-1700155D01*
G01*
X160263647Y-125677845D02*
G75*
G03*
X158764000Y-125678000I-749647J-1700155D01*
G01*
X156763647Y-125677845D02*
G75*
G03*
X155264000Y-125678000I-749647J-1700155D01*
G01*
X153263647Y-125677845D02*
G75*
G03*
X151764000Y-125678000I-749647J-1700155D01*
G01*
X149763647Y-125677845D02*
G75*
G03*
X148264000Y-125678000I-749647J-1700155D01*
G01*
X175520000Y-74525000D02*
X175520000Y-75025000D01*
X175520000Y-75025000D02*
X184520000Y-75025000D01*
X184520000Y-75025000D02*
X184520000Y-74525000D01*
X184520000Y-73025000D02*
X184520000Y-72525000D01*
X184520000Y-72525000D02*
X175520000Y-72525000D01*
X175520000Y-72525000D02*
X175520000Y-73025000D01*
X150575000Y-91950000D02*
X151075000Y-91950000D01*
X151075000Y-91950000D02*
X151075000Y-82950000D01*
X151075000Y-82950000D02*
X150575000Y-82950000D01*
X149075000Y-82950000D02*
X148575000Y-82950000D01*
X148575000Y-82950000D02*
X148575000Y-91950000D01*
X148575000Y-91950000D02*
X149075000Y-91950000D01*
D10*
X181925000Y-78500000D02*
X180525000Y-78500000D01*
X181925000Y-83600000D02*
X186075000Y-83600000D01*
X181925000Y-78450000D02*
X186075000Y-78450000D01*
X181925000Y-83600000D02*
X181925000Y-83455000D01*
X186075000Y-83600000D02*
X186075000Y-83455000D01*
X186075000Y-78450000D02*
X186075000Y-78595000D01*
X181925000Y-78450000D02*
X181925000Y-78500000D01*
D11*
X186245000Y-99985000D02*
X185945000Y-99985000D01*
X186245000Y-98565000D02*
X185945000Y-98565000D01*
X191685000Y-84365000D02*
X191685000Y-86775000D01*
X189275000Y-84365000D02*
X191685000Y-84365000D01*
X189775000Y-97175000D02*
X189775000Y-85275000D01*
X183275000Y-97175000D02*
X189775000Y-97175000D01*
X183275000Y-94575000D02*
X183275000Y-97175000D01*
X184275000Y-94575000D02*
X183275000Y-94575000D01*
X184275000Y-90175000D02*
X184275000Y-94575000D01*
X183275000Y-90175000D02*
X184275000Y-90175000D01*
X183275000Y-87575000D02*
X183275000Y-90175000D01*
X184275000Y-87575000D02*
X183275000Y-87575000D01*
X184275000Y-85275000D02*
X184275000Y-87575000D01*
X189775000Y-85275000D02*
X184275000Y-85275000D01*
X191385000Y-97785000D02*
X191385000Y-84665000D01*
X182665000Y-97785000D02*
X191385000Y-97785000D01*
X182665000Y-84665000D02*
X182665000Y-97785000D01*
X191385000Y-84665000D02*
X182665000Y-84665000D01*
X138304000Y-79376000D02*
X138304000Y-71756000D01*
X139064000Y-80136000D02*
X138304000Y-79376000D01*
X146684000Y-79376000D02*
X145924000Y-80136000D01*
X146684000Y-71756000D02*
X146684000Y-79376000D01*
X138304000Y-71756000D02*
X140934000Y-71756000D01*
X146684000Y-71756000D02*
X144054000Y-71756000D01*
X145924000Y-80136000D02*
X144054000Y-80136000D01*
X139064000Y-80136000D02*
X140934000Y-80136000D01*
D13*
X122692160Y-108117640D02*
X123891040Y-105018840D01*
X123891040Y-105018840D02*
X123291600Y-105417620D01*
X122290840Y-106118660D02*
X123591320Y-103317040D01*
X122692160Y-108117640D02*
X123291600Y-107419140D01*
X123090940Y-103118920D02*
X122290840Y-106118660D01*
X122290840Y-106118660D02*
X123489720Y-105318560D01*
X123489720Y-105318560D02*
X122692160Y-108117640D01*
X122692160Y-108117640D02*
X122590560Y-107218480D01*
X123190000Y-101727000D02*
X127889000Y-108712000D01*
X127889000Y-108712000D02*
X118491000Y-108712000D01*
X118491000Y-108712000D02*
X123190000Y-101727000D01*
X113040160Y-87543640D02*
X114239040Y-84444840D01*
X114239040Y-84444840D02*
X113639600Y-84843620D01*
X112638840Y-85544660D02*
X113939320Y-82743040D01*
X113040160Y-87543640D02*
X113639600Y-86845140D01*
X113438940Y-82544920D02*
X112638840Y-85544660D01*
X112638840Y-85544660D02*
X113837720Y-84744560D01*
X113837720Y-84744560D02*
X113040160Y-87543640D01*
X113040160Y-87543640D02*
X112938560Y-86644480D01*
X113538000Y-81153000D02*
X118237000Y-88138000D01*
X118237000Y-88138000D02*
X108839000Y-88138000D01*
X108839000Y-88138000D02*
X113538000Y-81153000D01*
D11*
X170496000Y-72074000D02*
X170496000Y-70674000D01*
X171896000Y-72074000D02*
X170496000Y-72074000D01*
X171896000Y-70674000D02*
X171896000Y-72074000D01*
X170496000Y-70674000D02*
X171896000Y-70674000D01*
X167702000Y-72074000D02*
X167702000Y-70674000D01*
X169102000Y-72074000D02*
X167702000Y-72074000D01*
X169102000Y-70674000D02*
X169102000Y-72074000D01*
X167702000Y-70674000D02*
X169102000Y-70674000D01*
X175530000Y-88664000D02*
X175530000Y-85864000D01*
X175530000Y-85864000D02*
X177530000Y-85864000D01*
X177530000Y-85864000D02*
X177530000Y-88664000D01*
X177530000Y-88664000D02*
X175530000Y-88664000D01*
G36*
X185653910Y-99967348D02*
G01*
X185732454Y-99967778D01*
X185789298Y-99968942D01*
X185828105Y-99971207D01*
X185852538Y-99974940D01*
X185866262Y-99980506D01*
X185872940Y-99988273D01*
X185876236Y-99998605D01*
X185876556Y-99999943D01*
X185881562Y-100024079D01*
X185890829Y-100071701D01*
X185903392Y-100137741D01*
X185918287Y-100217128D01*
X185934551Y-100304796D01*
X185935119Y-100307875D01*
X185951410Y-100393789D01*
X185966652Y-100469696D01*
X185979861Y-100531045D01*
X185990054Y-100573282D01*
X185996248Y-100591855D01*
X185996543Y-100592184D01*
X186014788Y-100601253D01*
X186052405Y-100616367D01*
X186101271Y-100634262D01*
X186101543Y-100634358D01*
X186163093Y-100657493D01*
X186235657Y-100686965D01*
X186304057Y-100716597D01*
X186307294Y-100718062D01*
X186418702Y-100768626D01*
X186665399Y-100600160D01*
X186741077Y-100548803D01*
X186809631Y-100502889D01*
X186867088Y-100465030D01*
X186909476Y-100437837D01*
X186932825Y-100423921D01*
X186935042Y-100422889D01*
X186952010Y-100427484D01*
X186983701Y-100449655D01*
X187031352Y-100490447D01*
X187096198Y-100550905D01*
X187162397Y-100615227D01*
X187226214Y-100678612D01*
X187283329Y-100736451D01*
X187330305Y-100785175D01*
X187363703Y-100821210D01*
X187380085Y-100840984D01*
X187380694Y-100842002D01*
X187382505Y-100855572D01*
X187375683Y-100877733D01*
X187358540Y-100911478D01*
X187329393Y-100959800D01*
X187286555Y-101025692D01*
X187229448Y-101110517D01*
X187178766Y-101185177D01*
X187133461Y-101252140D01*
X187096150Y-101307516D01*
X187069452Y-101347420D01*
X187055985Y-101367962D01*
X187055137Y-101369356D01*
X187056781Y-101389038D01*
X187069245Y-101427293D01*
X187090048Y-101476889D01*
X187097462Y-101492728D01*
X187129814Y-101563290D01*
X187164328Y-101643353D01*
X187192365Y-101712629D01*
X187212568Y-101764045D01*
X187228615Y-101803119D01*
X187237888Y-101823541D01*
X187239041Y-101825114D01*
X187256096Y-101827721D01*
X187296298Y-101834863D01*
X187354302Y-101845523D01*
X187424763Y-101858685D01*
X187502335Y-101873333D01*
X187581672Y-101888449D01*
X187657431Y-101903018D01*
X187724264Y-101916022D01*
X187776828Y-101926445D01*
X187809776Y-101933270D01*
X187817857Y-101935199D01*
X187826205Y-101939962D01*
X187832506Y-101950718D01*
X187837045Y-101971098D01*
X187840104Y-102004734D01*
X187841967Y-102055255D01*
X187842918Y-102126292D01*
X187843240Y-102221476D01*
X187843257Y-102260492D01*
X187843257Y-102577799D01*
X187767057Y-102592839D01*
X187724663Y-102600995D01*
X187661400Y-102612899D01*
X187584962Y-102627116D01*
X187503043Y-102642210D01*
X187480400Y-102646355D01*
X187404806Y-102661053D01*
X187338953Y-102675505D01*
X187288366Y-102688375D01*
X187258574Y-102698322D01*
X187253612Y-102701287D01*
X187241426Y-102722283D01*
X187223953Y-102762967D01*
X187204577Y-102815322D01*
X187200734Y-102826600D01*
X187175339Y-102896523D01*
X187143817Y-102975418D01*
X187112969Y-103046266D01*
X187112817Y-103046595D01*
X187061447Y-103157733D01*
X187230399Y-103406253D01*
X187399352Y-103654772D01*
X187182429Y-103872058D01*
X187116819Y-103936726D01*
X187056979Y-103993733D01*
X187006267Y-104040033D01*
X186968046Y-104072584D01*
X186945675Y-104088343D01*
X186942466Y-104089343D01*
X186923626Y-104081469D01*
X186885180Y-104059578D01*
X186831330Y-104026267D01*
X186766276Y-103984131D01*
X186695940Y-103936943D01*
X186624555Y-103888810D01*
X186560908Y-103846928D01*
X186509041Y-103813871D01*
X186472995Y-103792218D01*
X186456867Y-103784543D01*
X186437189Y-103791037D01*
X186399875Y-103808150D01*
X186352621Y-103832326D01*
X186347612Y-103835013D01*
X186283977Y-103866927D01*
X186240341Y-103882579D01*
X186213202Y-103882745D01*
X186199057Y-103868204D01*
X186198975Y-103868000D01*
X186191905Y-103850779D01*
X186175042Y-103809899D01*
X186149695Y-103748525D01*
X186117171Y-103669819D01*
X186078778Y-103576947D01*
X186035822Y-103473072D01*
X185994222Y-103372502D01*
X185948504Y-103261516D01*
X185906526Y-103158703D01*
X185869548Y-103067215D01*
X185838827Y-102990201D01*
X185815622Y-102930815D01*
X185801190Y-102892209D01*
X185796743Y-102877800D01*
X185807896Y-102861272D01*
X185837069Y-102834930D01*
X185875971Y-102805887D01*
X185986757Y-102714039D01*
X186073351Y-102608759D01*
X186134716Y-102492266D01*
X186169815Y-102366776D01*
X186177608Y-102234507D01*
X186171943Y-102173457D01*
X186141078Y-102046795D01*
X186087920Y-101934941D01*
X186015767Y-101839001D01*
X185927917Y-101760076D01*
X185827665Y-101699270D01*
X185718310Y-101657687D01*
X185603147Y-101636428D01*
X185485475Y-101636599D01*
X185368590Y-101659301D01*
X185255789Y-101705638D01*
X185150369Y-101776713D01*
X185106368Y-101816911D01*
X185021979Y-101920129D01*
X184963222Y-102032925D01*
X184929704Y-102152010D01*
X184921035Y-102274095D01*
X184936823Y-102395893D01*
X184976678Y-102514116D01*
X185040207Y-102625475D01*
X185127021Y-102726684D01*
X185224029Y-102805887D01*
X185264437Y-102836162D01*
X185292982Y-102862219D01*
X185303257Y-102877825D01*
X185297877Y-102894843D01*
X185282575Y-102935500D01*
X185258612Y-102996642D01*
X185227244Y-103075119D01*
X185189732Y-103167780D01*
X185147333Y-103271472D01*
X185105663Y-103372526D01*
X185059690Y-103483607D01*
X185017107Y-103586541D01*
X184979221Y-103678165D01*
X184947340Y-103755316D01*
X184922771Y-103814831D01*
X184906820Y-103853544D01*
X184900910Y-103868000D01*
X184886948Y-103882685D01*
X184859940Y-103882642D01*
X184816413Y-103867099D01*
X184752890Y-103835284D01*
X184752388Y-103835013D01*
X184704560Y-103810323D01*
X184665897Y-103792338D01*
X184644095Y-103784614D01*
X184643133Y-103784543D01*
X184626721Y-103792378D01*
X184590487Y-103814165D01*
X184538474Y-103847328D01*
X184474725Y-103889291D01*
X184404060Y-103936943D01*
X184332116Y-103985191D01*
X184267274Y-104027151D01*
X184213735Y-104060227D01*
X184175697Y-104081821D01*
X184157533Y-104089343D01*
X184140808Y-104079457D01*
X184107180Y-104051826D01*
X184060010Y-104009495D01*
X184002658Y-103955505D01*
X183938484Y-103892899D01*
X183917497Y-103871983D01*
X183700499Y-103654623D01*
X183865668Y-103412220D01*
X183915864Y-103337781D01*
X183959919Y-103270972D01*
X183995362Y-103215665D01*
X184019719Y-103175729D01*
X184030522Y-103155036D01*
X184030838Y-103153563D01*
X184025143Y-103134058D01*
X184009826Y-103094822D01*
X183987537Y-103042430D01*
X183971893Y-103007355D01*
X183942641Y-102940201D01*
X183915094Y-102872358D01*
X183893737Y-102815034D01*
X183887935Y-102797572D01*
X183871452Y-102750938D01*
X183855340Y-102714905D01*
X183846490Y-102701287D01*
X183826960Y-102692952D01*
X183784334Y-102681137D01*
X183724145Y-102667181D01*
X183651922Y-102652422D01*
X183619600Y-102646355D01*
X183537522Y-102631273D01*
X183458795Y-102616669D01*
X183391109Y-102603980D01*
X183342160Y-102594642D01*
X183332943Y-102592839D01*
X183256743Y-102577799D01*
X183256743Y-102260492D01*
X183256914Y-102156154D01*
X183257616Y-102077213D01*
X183259134Y-102020038D01*
X183261749Y-101980999D01*
X183265746Y-101956465D01*
X183271409Y-101942805D01*
X183279020Y-101936389D01*
X183282143Y-101935199D01*
X183300978Y-101930980D01*
X183342588Y-101922562D01*
X183401630Y-101910961D01*
X183472757Y-101897195D01*
X183550625Y-101882280D01*
X183629887Y-101867232D01*
X183705198Y-101853069D01*
X183771213Y-101840806D01*
X183822587Y-101831461D01*
X183853975Y-101826050D01*
X183860959Y-101825114D01*
X183867285Y-101812596D01*
X183881290Y-101779246D01*
X183900355Y-101731377D01*
X183907634Y-101712629D01*
X183936996Y-101640195D01*
X183971571Y-101560170D01*
X184002537Y-101492728D01*
X184025323Y-101441159D01*
X184040482Y-101398785D01*
X184045542Y-101372834D01*
X184044736Y-101369356D01*
X184034041Y-101352936D01*
X184009620Y-101316417D01*
X183974095Y-101263687D01*
X183930087Y-101198635D01*
X183880217Y-101125151D01*
X183870356Y-101110645D01*
X183812492Y-101024704D01*
X183769956Y-100959261D01*
X183741054Y-100911304D01*
X183724090Y-100877820D01*
X183717367Y-100855795D01*
X183719190Y-100842217D01*
X183719236Y-100842131D01*
X183733586Y-100824297D01*
X183765323Y-100789817D01*
X183811010Y-100742268D01*
X183867204Y-100685222D01*
X183930468Y-100622255D01*
X183937602Y-100615227D01*
X184017330Y-100538020D01*
X184078857Y-100481330D01*
X184123421Y-100444110D01*
X184152257Y-100425315D01*
X184164958Y-100422889D01*
X184183494Y-100433471D01*
X184221961Y-100457916D01*
X184276386Y-100493612D01*
X184342798Y-100537947D01*
X184417225Y-100588311D01*
X184434601Y-100600160D01*
X184681297Y-100768626D01*
X184792706Y-100718062D01*
X184860457Y-100688595D01*
X184933183Y-100658959D01*
X184995703Y-100635330D01*
X184998457Y-100634358D01*
X185047360Y-100616457D01*
X185085057Y-100601320D01*
X185103425Y-100592210D01*
X185103456Y-100592184D01*
X185109285Y-100575717D01*
X185119192Y-100535219D01*
X185132195Y-100475242D01*
X185147309Y-100400340D01*
X185163552Y-100315064D01*
X185164881Y-100307875D01*
X185181175Y-100220014D01*
X185196133Y-100140260D01*
X185208791Y-100073681D01*
X185218186Y-100025347D01*
X185223354Y-100000325D01*
X185223444Y-99999943D01*
X185226589Y-99989299D01*
X185232704Y-99981262D01*
X185245453Y-99975467D01*
X185268500Y-99971547D01*
X185305509Y-99969135D01*
X185360144Y-99967865D01*
X185436067Y-99967371D01*
X185536944Y-99967286D01*
X185550000Y-99967286D01*
X185653910Y-99967348D01*
G37*
D14*
X185653910Y-99967348D02*
X185732454Y-99967778D01*
X185789298Y-99968942D01*
X185828105Y-99971207D01*
X185852538Y-99974940D01*
X185866262Y-99980506D01*
X185872940Y-99988273D01*
X185876236Y-99998605D01*
X185876556Y-99999943D01*
X185881562Y-100024079D01*
X185890829Y-100071701D01*
X185903392Y-100137741D01*
X185918287Y-100217128D01*
X185934551Y-100304796D01*
X185935119Y-100307875D01*
X185951410Y-100393789D01*
X185966652Y-100469696D01*
X185979861Y-100531045D01*
X185990054Y-100573282D01*
X185996248Y-100591855D01*
X185996543Y-100592184D01*
X186014788Y-100601253D01*
X186052405Y-100616367D01*
X186101271Y-100634262D01*
X186101543Y-100634358D01*
X186163093Y-100657493D01*
X186235657Y-100686965D01*
X186304057Y-100716597D01*
X186307294Y-100718062D01*
X186418702Y-100768626D01*
X186665399Y-100600160D01*
X186741077Y-100548803D01*
X186809631Y-100502889D01*
X186867088Y-100465030D01*
X186909476Y-100437837D01*
X186932825Y-100423921D01*
X186935042Y-100422889D01*
X186952010Y-100427484D01*
X186983701Y-100449655D01*
X187031352Y-100490447D01*
X187096198Y-100550905D01*
X187162397Y-100615227D01*
X187226214Y-100678612D01*
X187283329Y-100736451D01*
X187330305Y-100785175D01*
X187363703Y-100821210D01*
X187380085Y-100840984D01*
X187380694Y-100842002D01*
X187382505Y-100855572D01*
X187375683Y-100877733D01*
X187358540Y-100911478D01*
X187329393Y-100959800D01*
X187286555Y-101025692D01*
X187229448Y-101110517D01*
X187178766Y-101185177D01*
X187133461Y-101252140D01*
X187096150Y-101307516D01*
X187069452Y-101347420D01*
X187055985Y-101367962D01*
X187055137Y-101369356D01*
X187056781Y-101389038D01*
X187069245Y-101427293D01*
X187090048Y-101476889D01*
X187097462Y-101492728D01*
X187129814Y-101563290D01*
X187164328Y-101643353D01*
X187192365Y-101712629D01*
X187212568Y-101764045D01*
X187228615Y-101803119D01*
X187237888Y-101823541D01*
X187239041Y-101825114D01*
X187256096Y-101827721D01*
X187296298Y-101834863D01*
X187354302Y-101845523D01*
X187424763Y-101858685D01*
X187502335Y-101873333D01*
X187581672Y-101888449D01*
X187657431Y-101903018D01*
X187724264Y-101916022D01*
X187776828Y-101926445D01*
X187809776Y-101933270D01*
X187817857Y-101935199D01*
X187826205Y-101939962D01*
X187832506Y-101950718D01*
X187837045Y-101971098D01*
X187840104Y-102004734D01*
X187841967Y-102055255D01*
X187842918Y-102126292D01*
X187843240Y-102221476D01*
X187843257Y-102260492D01*
X187843257Y-102577799D01*
X187767057Y-102592839D01*
X187724663Y-102600995D01*
X187661400Y-102612899D01*
X187584962Y-102627116D01*
X187503043Y-102642210D01*
X187480400Y-102646355D01*
X187404806Y-102661053D01*
X187338953Y-102675505D01*
X187288366Y-102688375D01*
X187258574Y-102698322D01*
X187253612Y-102701287D01*
X187241426Y-102722283D01*
X187223953Y-102762967D01*
X187204577Y-102815322D01*
X187200734Y-102826600D01*
X187175339Y-102896523D01*
X187143817Y-102975418D01*
X187112969Y-103046266D01*
X187112817Y-103046595D01*
X187061447Y-103157733D01*
X187230399Y-103406253D01*
X187399352Y-103654772D01*
X187182429Y-103872058D01*
X187116819Y-103936726D01*
X187056979Y-103993733D01*
X187006267Y-104040033D01*
X186968046Y-104072584D01*
X186945675Y-104088343D01*
X186942466Y-104089343D01*
X186923626Y-104081469D01*
X186885180Y-104059578D01*
X186831330Y-104026267D01*
X186766276Y-103984131D01*
X186695940Y-103936943D01*
X186624555Y-103888810D01*
X186560908Y-103846928D01*
X186509041Y-103813871D01*
X186472995Y-103792218D01*
X186456867Y-103784543D01*
X186437189Y-103791037D01*
X186399875Y-103808150D01*
X186352621Y-103832326D01*
X186347612Y-103835013D01*
X186283977Y-103866927D01*
X186240341Y-103882579D01*
X186213202Y-103882745D01*
X186199057Y-103868204D01*
X186198975Y-103868000D01*
X186191905Y-103850779D01*
X186175042Y-103809899D01*
X186149695Y-103748525D01*
X186117171Y-103669819D01*
X186078778Y-103576947D01*
X186035822Y-103473072D01*
X185994222Y-103372502D01*
X185948504Y-103261516D01*
X185906526Y-103158703D01*
X185869548Y-103067215D01*
X185838827Y-102990201D01*
X185815622Y-102930815D01*
X185801190Y-102892209D01*
X185796743Y-102877800D01*
X185807896Y-102861272D01*
X185837069Y-102834930D01*
X185875971Y-102805887D01*
X185986757Y-102714039D01*
X186073351Y-102608759D01*
X186134716Y-102492266D01*
X186169815Y-102366776D01*
X186177608Y-102234507D01*
X186171943Y-102173457D01*
X186141078Y-102046795D01*
X186087920Y-101934941D01*
X186015767Y-101839001D01*
X185927917Y-101760076D01*
X185827665Y-101699270D01*
X185718310Y-101657687D01*
X185603147Y-101636428D01*
X185485475Y-101636599D01*
X185368590Y-101659301D01*
X185255789Y-101705638D01*
X185150369Y-101776713D01*
X185106368Y-101816911D01*
X185021979Y-101920129D01*
X184963222Y-102032925D01*
X184929704Y-102152010D01*
X184921035Y-102274095D01*
X184936823Y-102395893D01*
X184976678Y-102514116D01*
X185040207Y-102625475D01*
X185127021Y-102726684D01*
X185224029Y-102805887D01*
X185264437Y-102836162D01*
X185292982Y-102862219D01*
X185303257Y-102877825D01*
X185297877Y-102894843D01*
X185282575Y-102935500D01*
X185258612Y-102996642D01*
X185227244Y-103075119D01*
X185189732Y-103167780D01*
X185147333Y-103271472D01*
X185105663Y-103372526D01*
X185059690Y-103483607D01*
X185017107Y-103586541D01*
X184979221Y-103678165D01*
X184947340Y-103755316D01*
X184922771Y-103814831D01*
X184906820Y-103853544D01*
X184900910Y-103868000D01*
X184886948Y-103882685D01*
X184859940Y-103882642D01*
X184816413Y-103867099D01*
X184752890Y-103835284D01*
X184752388Y-103835013D01*
X184704560Y-103810323D01*
X184665897Y-103792338D01*
X184644095Y-103784614D01*
X184643133Y-103784543D01*
X184626721Y-103792378D01*
X184590487Y-103814165D01*
X184538474Y-103847328D01*
X184474725Y-103889291D01*
X184404060Y-103936943D01*
X184332116Y-103985191D01*
X184267274Y-104027151D01*
X184213735Y-104060227D01*
X184175697Y-104081821D01*
X184157533Y-104089343D01*
X184140808Y-104079457D01*
X184107180Y-104051826D01*
X184060010Y-104009495D01*
X184002658Y-103955505D01*
X183938484Y-103892899D01*
X183917497Y-103871983D01*
X183700499Y-103654623D01*
X183865668Y-103412220D01*
X183915864Y-103337781D01*
X183959919Y-103270972D01*
X183995362Y-103215665D01*
X184019719Y-103175729D01*
X184030522Y-103155036D01*
X184030838Y-103153563D01*
X184025143Y-103134058D01*
X184009826Y-103094822D01*
X183987537Y-103042430D01*
X183971893Y-103007355D01*
X183942641Y-102940201D01*
X183915094Y-102872358D01*
X183893737Y-102815034D01*
X183887935Y-102797572D01*
X183871452Y-102750938D01*
X183855340Y-102714905D01*
X183846490Y-102701287D01*
X183826960Y-102692952D01*
X183784334Y-102681137D01*
X183724145Y-102667181D01*
X183651922Y-102652422D01*
X183619600Y-102646355D01*
X183537522Y-102631273D01*
X183458795Y-102616669D01*
X183391109Y-102603980D01*
X183342160Y-102594642D01*
X183332943Y-102592839D01*
X183256743Y-102577799D01*
X183256743Y-102260492D01*
X183256914Y-102156154D01*
X183257616Y-102077213D01*
X183259134Y-102020038D01*
X183261749Y-101980999D01*
X183265746Y-101956465D01*
X183271409Y-101942805D01*
X183279020Y-101936389D01*
X183282143Y-101935199D01*
X183300978Y-101930980D01*
X183342588Y-101922562D01*
X183401630Y-101910961D01*
X183472757Y-101897195D01*
X183550625Y-101882280D01*
X183629887Y-101867232D01*
X183705198Y-101853069D01*
X183771213Y-101840806D01*
X183822587Y-101831461D01*
X183853975Y-101826050D01*
X183860959Y-101825114D01*
X183867285Y-101812596D01*
X183881290Y-101779246D01*
X183900355Y-101731377D01*
X183907634Y-101712629D01*
X183936996Y-101640195D01*
X183971571Y-101560170D01*
X184002537Y-101492728D01*
X184025323Y-101441159D01*
X184040482Y-101398785D01*
X184045542Y-101372834D01*
X184044736Y-101369356D01*
X184034041Y-101352936D01*
X184009620Y-101316417D01*
X183974095Y-101263687D01*
X183930087Y-101198635D01*
X183880217Y-101125151D01*
X183870356Y-101110645D01*
X183812492Y-101024704D01*
X183769956Y-100959261D01*
X183741054Y-100911304D01*
X183724090Y-100877820D01*
X183717367Y-100855795D01*
X183719190Y-100842217D01*
X183719236Y-100842131D01*
X183733586Y-100824297D01*
X183765323Y-100789817D01*
X183811010Y-100742268D01*
X183867204Y-100685222D01*
X183930468Y-100622255D01*
X183937602Y-100615227D01*
X184017330Y-100538020D01*
X184078857Y-100481330D01*
X184123421Y-100444110D01*
X184152257Y-100425315D01*
X184164958Y-100422889D01*
X184183494Y-100433471D01*
X184221961Y-100457916D01*
X184276386Y-100493612D01*
X184342798Y-100537947D01*
X184417225Y-100588311D01*
X184434601Y-100600160D01*
X184681297Y-100768626D01*
X184792706Y-100718062D01*
X184860457Y-100688595D01*
X184933183Y-100658959D01*
X184995703Y-100635330D01*
X184998457Y-100634358D01*
X185047360Y-100616457D01*
X185085057Y-100601320D01*
X185103425Y-100592210D01*
X185103456Y-100592184D01*
X185109285Y-100575717D01*
X185119192Y-100535219D01*
X185132195Y-100475242D01*
X185147309Y-100400340D01*
X185163552Y-100315064D01*
X185164881Y-100307875D01*
X185181175Y-100220014D01*
X185196133Y-100140260D01*
X185208791Y-100073681D01*
X185218186Y-100025347D01*
X185223354Y-100000325D01*
X185223444Y-99999943D01*
X185226589Y-99989299D01*
X185232704Y-99981262D01*
X185245453Y-99975467D01*
X185268500Y-99971547D01*
X185305509Y-99969135D01*
X185360144Y-99967865D01*
X185436067Y-99967371D01*
X185536944Y-99967286D01*
X185550000Y-99967286D01*
X185653910Y-99967348D01*
G36*
X188418196Y-104820384D02*
G01*
X188431884Y-104771695D01*
X188454096Y-104735849D01*
X188486574Y-104707513D01*
X188500733Y-104698355D01*
X188565053Y-104674507D01*
X188635473Y-104673006D01*
X188703595Y-104691966D01*
X188761021Y-104729497D01*
X188788719Y-104763096D01*
X188810662Y-104824064D01*
X188812405Y-104872308D01*
X188808457Y-104936816D01*
X188659686Y-105001934D01*
X188587349Y-105035202D01*
X188540084Y-105061964D01*
X188515507Y-105085144D01*
X188511237Y-105107667D01*
X188524889Y-105132455D01*
X188539943Y-105148886D01*
X188583746Y-105175235D01*
X188631389Y-105177081D01*
X188675145Y-105156546D01*
X188707289Y-105115752D01*
X188713038Y-105101347D01*
X188740576Y-105056356D01*
X188772258Y-105037182D01*
X188815714Y-105020779D01*
X188815714Y-105082966D01*
X188811872Y-105125283D01*
X188796823Y-105160969D01*
X188765280Y-105201943D01*
X188760592Y-105207267D01*
X188725506Y-105243720D01*
X188695347Y-105263283D01*
X188657615Y-105272283D01*
X188626335Y-105275230D01*
X188570385Y-105275965D01*
X188530555Y-105266660D01*
X188505708Y-105252846D01*
X188466656Y-105222467D01*
X188439625Y-105189613D01*
X188422517Y-105148294D01*
X188413238Y-105092521D01*
X188409693Y-105016305D01*
X188409410Y-104977622D01*
X188410372Y-104931247D01*
X188498007Y-104931247D01*
X188499023Y-104956126D01*
X188501556Y-104960200D01*
X188518274Y-104954665D01*
X188554249Y-104940017D01*
X188602331Y-104919190D01*
X188612386Y-104914714D01*
X188673152Y-104883814D01*
X188706632Y-104856657D01*
X188713990Y-104831220D01*
X188696391Y-104805481D01*
X188681856Y-104794109D01*
X188629410Y-104771364D01*
X188580322Y-104775122D01*
X188539227Y-104802884D01*
X188510758Y-104852152D01*
X188501631Y-104891257D01*
X188498007Y-104931247D01*
X188410372Y-104931247D01*
X188411285Y-104887249D01*
X188418196Y-104820384D01*
G37*
X188418196Y-104820384D02*
X188431884Y-104771695D01*
X188454096Y-104735849D01*
X188486574Y-104707513D01*
X188500733Y-104698355D01*
X188565053Y-104674507D01*
X188635473Y-104673006D01*
X188703595Y-104691966D01*
X188761021Y-104729497D01*
X188788719Y-104763096D01*
X188810662Y-104824064D01*
X188812405Y-104872308D01*
X188808457Y-104936816D01*
X188659686Y-105001934D01*
X188587349Y-105035202D01*
X188540084Y-105061964D01*
X188515507Y-105085144D01*
X188511237Y-105107667D01*
X188524889Y-105132455D01*
X188539943Y-105148886D01*
X188583746Y-105175235D01*
X188631389Y-105177081D01*
X188675145Y-105156546D01*
X188707289Y-105115752D01*
X188713038Y-105101347D01*
X188740576Y-105056356D01*
X188772258Y-105037182D01*
X188815714Y-105020779D01*
X188815714Y-105082966D01*
X188811872Y-105125283D01*
X188796823Y-105160969D01*
X188765280Y-105201943D01*
X188760592Y-105207267D01*
X188725506Y-105243720D01*
X188695347Y-105263283D01*
X188657615Y-105272283D01*
X188626335Y-105275230D01*
X188570385Y-105275965D01*
X188530555Y-105266660D01*
X188505708Y-105252846D01*
X188466656Y-105222467D01*
X188439625Y-105189613D01*
X188422517Y-105148294D01*
X188413238Y-105092521D01*
X188409693Y-105016305D01*
X188409410Y-104977622D01*
X188410372Y-104931247D01*
X188498007Y-104931247D01*
X188499023Y-104956126D01*
X188501556Y-104960200D01*
X188518274Y-104954665D01*
X188554249Y-104940017D01*
X188602331Y-104919190D01*
X188612386Y-104914714D01*
X188673152Y-104883814D01*
X188706632Y-104856657D01*
X188713990Y-104831220D01*
X188696391Y-104805481D01*
X188681856Y-104794109D01*
X188629410Y-104771364D01*
X188580322Y-104775122D01*
X188539227Y-104802884D01*
X188510758Y-104852152D01*
X188501631Y-104891257D01*
X188498007Y-104931247D01*
X188410372Y-104931247D01*
X188411285Y-104887249D01*
X188418196Y-104820384D01*
G36*
X188202600Y-104683752D02*
G01*
X188219948Y-104691334D01*
X188261356Y-104724128D01*
X188296765Y-104771547D01*
X188318664Y-104822151D01*
X188322229Y-104847098D01*
X188310279Y-104881927D01*
X188284067Y-104900357D01*
X188255964Y-104911516D01*
X188243095Y-104913572D01*
X188236829Y-104898649D01*
X188224456Y-104866175D01*
X188219028Y-104851502D01*
X188188590Y-104800744D01*
X188144520Y-104775427D01*
X188088010Y-104776206D01*
X188083825Y-104777203D01*
X188053655Y-104791507D01*
X188031476Y-104819393D01*
X188016327Y-104864287D01*
X188007250Y-104929615D01*
X188003286Y-105018804D01*
X188002914Y-105066261D01*
X188002730Y-105141071D01*
X188001522Y-105192069D01*
X187998309Y-105224471D01*
X187992109Y-105243495D01*
X187981940Y-105254356D01*
X187966819Y-105262272D01*
X187965946Y-105262670D01*
X187936828Y-105274981D01*
X187922403Y-105279514D01*
X187920186Y-105265809D01*
X187918289Y-105227925D01*
X187916847Y-105170715D01*
X187915998Y-105099027D01*
X187915829Y-105046565D01*
X187916692Y-104945047D01*
X187920070Y-104868032D01*
X187927142Y-104811023D01*
X187939088Y-104769526D01*
X187957090Y-104739043D01*
X187982327Y-104715080D01*
X188007247Y-104698355D01*
X188067171Y-104676097D01*
X188136911Y-104671076D01*
X188202600Y-104683752D01*
G37*
X188202600Y-104683752D02*
X188219948Y-104691334D01*
X188261356Y-104724128D01*
X188296765Y-104771547D01*
X188318664Y-104822151D01*
X188322229Y-104847098D01*
X188310279Y-104881927D01*
X188284067Y-104900357D01*
X188255964Y-104911516D01*
X188243095Y-104913572D01*
X188236829Y-104898649D01*
X188224456Y-104866175D01*
X188219028Y-104851502D01*
X188188590Y-104800744D01*
X188144520Y-104775427D01*
X188088010Y-104776206D01*
X188083825Y-104777203D01*
X188053655Y-104791507D01*
X188031476Y-104819393D01*
X188016327Y-104864287D01*
X188007250Y-104929615D01*
X188003286Y-105018804D01*
X188002914Y-105066261D01*
X188002730Y-105141071D01*
X188001522Y-105192069D01*
X187998309Y-105224471D01*
X187992109Y-105243495D01*
X187981940Y-105254356D01*
X187966819Y-105262272D01*
X187965946Y-105262670D01*
X187936828Y-105274981D01*
X187922403Y-105279514D01*
X187920186Y-105265809D01*
X187918289Y-105227925D01*
X187916847Y-105170715D01*
X187915998Y-105099027D01*
X187915829Y-105046565D01*
X187916692Y-104945047D01*
X187920070Y-104868032D01*
X187927142Y-104811023D01*
X187939088Y-104769526D01*
X187957090Y-104739043D01*
X187982327Y-104715080D01*
X188007247Y-104698355D01*
X188067171Y-104676097D01*
X188136911Y-104671076D01*
X188202600Y-104683752D01*
G36*
X187694876Y-104681335D02*
G01*
X187736667Y-104700344D01*
X187769469Y-104723378D01*
X187793503Y-104749133D01*
X187810097Y-104782358D01*
X187820577Y-104827800D01*
X187826271Y-104890207D01*
X187828507Y-104974327D01*
X187828743Y-105029721D01*
X187828743Y-105245826D01*
X187791774Y-105262670D01*
X187762656Y-105274981D01*
X187748231Y-105279514D01*
X187745472Y-105266025D01*
X187743282Y-105229653D01*
X187741942Y-105176542D01*
X187741657Y-105134372D01*
X187740434Y-105073447D01*
X187737136Y-105025115D01*
X187732321Y-104995518D01*
X187728496Y-104989229D01*
X187702783Y-104995652D01*
X187662418Y-105012125D01*
X187615679Y-105034458D01*
X187570845Y-105058457D01*
X187536193Y-105079930D01*
X187520002Y-105094685D01*
X187519938Y-105094845D01*
X187521330Y-105122152D01*
X187533818Y-105148219D01*
X187555743Y-105169392D01*
X187587743Y-105176474D01*
X187615092Y-105175649D01*
X187653826Y-105175042D01*
X187674158Y-105184116D01*
X187686369Y-105208092D01*
X187687909Y-105212613D01*
X187693203Y-105246806D01*
X187679047Y-105267568D01*
X187642148Y-105277462D01*
X187602289Y-105279292D01*
X187530562Y-105265727D01*
X187493432Y-105246355D01*
X187447576Y-105200845D01*
X187423256Y-105144983D01*
X187421073Y-105085957D01*
X187441629Y-105030953D01*
X187472549Y-104996486D01*
X187503420Y-104977189D01*
X187551942Y-104952759D01*
X187608485Y-104927985D01*
X187617910Y-104924199D01*
X187680019Y-104896791D01*
X187715822Y-104872634D01*
X187727337Y-104848619D01*
X187716580Y-104821635D01*
X187698114Y-104800543D01*
X187654469Y-104774572D01*
X187606446Y-104772624D01*
X187562406Y-104792637D01*
X187530709Y-104832551D01*
X187526549Y-104842848D01*
X187502327Y-104880724D01*
X187466965Y-104908842D01*
X187422343Y-104931917D01*
X187422343Y-104866485D01*
X187424969Y-104826506D01*
X187436230Y-104794997D01*
X187461199Y-104761378D01*
X187485169Y-104735484D01*
X187522441Y-104698817D01*
X187551401Y-104679121D01*
X187582505Y-104671220D01*
X187617713Y-104669914D01*
X187694876Y-104681335D01*
G37*
X187694876Y-104681335D02*
X187736667Y-104700344D01*
X187769469Y-104723378D01*
X187793503Y-104749133D01*
X187810097Y-104782358D01*
X187820577Y-104827800D01*
X187826271Y-104890207D01*
X187828507Y-104974327D01*
X187828743Y-105029721D01*
X187828743Y-105245826D01*
X187791774Y-105262670D01*
X187762656Y-105274981D01*
X187748231Y-105279514D01*
X187745472Y-105266025D01*
X187743282Y-105229653D01*
X187741942Y-105176542D01*
X187741657Y-105134372D01*
X187740434Y-105073447D01*
X187737136Y-105025115D01*
X187732321Y-104995518D01*
X187728496Y-104989229D01*
X187702783Y-104995652D01*
X187662418Y-105012125D01*
X187615679Y-105034458D01*
X187570845Y-105058457D01*
X187536193Y-105079930D01*
X187520002Y-105094685D01*
X187519938Y-105094845D01*
X187521330Y-105122152D01*
X187533818Y-105148219D01*
X187555743Y-105169392D01*
X187587743Y-105176474D01*
X187615092Y-105175649D01*
X187653826Y-105175042D01*
X187674158Y-105184116D01*
X187686369Y-105208092D01*
X187687909Y-105212613D01*
X187693203Y-105246806D01*
X187679047Y-105267568D01*
X187642148Y-105277462D01*
X187602289Y-105279292D01*
X187530562Y-105265727D01*
X187493432Y-105246355D01*
X187447576Y-105200845D01*
X187423256Y-105144983D01*
X187421073Y-105085957D01*
X187441629Y-105030953D01*
X187472549Y-104996486D01*
X187503420Y-104977189D01*
X187551942Y-104952759D01*
X187608485Y-104927985D01*
X187617910Y-104924199D01*
X187680019Y-104896791D01*
X187715822Y-104872634D01*
X187727337Y-104848619D01*
X187716580Y-104821635D01*
X187698114Y-104800543D01*
X187654469Y-104774572D01*
X187606446Y-104772624D01*
X187562406Y-104792637D01*
X187530709Y-104832551D01*
X187526549Y-104842848D01*
X187502327Y-104880724D01*
X187466965Y-104908842D01*
X187422343Y-104931917D01*
X187422343Y-104866485D01*
X187424969Y-104826506D01*
X187436230Y-104794997D01*
X187461199Y-104761378D01*
X187485169Y-104735484D01*
X187522441Y-104698817D01*
X187551401Y-104679121D01*
X187582505Y-104671220D01*
X187617713Y-104669914D01*
X187694876Y-104681335D01*
G36*
X187329833Y-104683663D02*
G01*
X187332048Y-104721850D01*
X187333784Y-104779886D01*
X187334899Y-104853180D01*
X187335257Y-104930055D01*
X187335257Y-105190196D01*
X187289326Y-105236127D01*
X187257675Y-105264429D01*
X187229890Y-105275893D01*
X187191915Y-105275168D01*
X187176840Y-105273321D01*
X187129726Y-105267948D01*
X187090756Y-105264869D01*
X187081257Y-105264585D01*
X187049233Y-105266445D01*
X187003432Y-105271114D01*
X186985674Y-105273321D01*
X186942057Y-105276735D01*
X186912745Y-105269320D01*
X186883680Y-105246427D01*
X186873188Y-105236127D01*
X186827257Y-105190196D01*
X186827257Y-104703602D01*
X186864226Y-104686758D01*
X186896059Y-104674282D01*
X186914683Y-104669914D01*
X186919458Y-104683718D01*
X186923921Y-104722286D01*
X186927775Y-104781356D01*
X186930722Y-104856663D01*
X186932143Y-104920286D01*
X186936114Y-105170657D01*
X186970759Y-105175556D01*
X187002268Y-105172131D01*
X187017708Y-105161041D01*
X187022023Y-105140308D01*
X187025708Y-105096145D01*
X187028469Y-105034146D01*
X187030012Y-104959909D01*
X187030235Y-104921706D01*
X187030457Y-104701783D01*
X187076166Y-104685849D01*
X187108518Y-104675015D01*
X187126115Y-104669962D01*
X187126623Y-104669914D01*
X187128388Y-104683648D01*
X187130329Y-104721730D01*
X187132282Y-104779482D01*
X187134084Y-104852227D01*
X187135343Y-104920286D01*
X187139314Y-105170657D01*
X187226400Y-105170657D01*
X187230396Y-104942240D01*
X187234392Y-104713822D01*
X187276847Y-104691868D01*
X187308192Y-104676793D01*
X187326744Y-104669951D01*
X187327279Y-104669914D01*
X187329833Y-104683663D01*
G37*
X187329833Y-104683663D02*
X187332048Y-104721850D01*
X187333784Y-104779886D01*
X187334899Y-104853180D01*
X187335257Y-104930055D01*
X187335257Y-105190196D01*
X187289326Y-105236127D01*
X187257675Y-105264429D01*
X187229890Y-105275893D01*
X187191915Y-105275168D01*
X187176840Y-105273321D01*
X187129726Y-105267948D01*
X187090756Y-105264869D01*
X187081257Y-105264585D01*
X187049233Y-105266445D01*
X187003432Y-105271114D01*
X186985674Y-105273321D01*
X186942057Y-105276735D01*
X186912745Y-105269320D01*
X186883680Y-105246427D01*
X186873188Y-105236127D01*
X186827257Y-105190196D01*
X186827257Y-104703602D01*
X186864226Y-104686758D01*
X186896059Y-104674282D01*
X186914683Y-104669914D01*
X186919458Y-104683718D01*
X186923921Y-104722286D01*
X186927775Y-104781356D01*
X186930722Y-104856663D01*
X186932143Y-104920286D01*
X186936114Y-105170657D01*
X186970759Y-105175556D01*
X187002268Y-105172131D01*
X187017708Y-105161041D01*
X187022023Y-105140308D01*
X187025708Y-105096145D01*
X187028469Y-105034146D01*
X187030012Y-104959909D01*
X187030235Y-104921706D01*
X187030457Y-104701783D01*
X187076166Y-104685849D01*
X187108518Y-104675015D01*
X187126115Y-104669962D01*
X187126623Y-104669914D01*
X187128388Y-104683648D01*
X187130329Y-104721730D01*
X187132282Y-104779482D01*
X187134084Y-104852227D01*
X187135343Y-104920286D01*
X187139314Y-105170657D01*
X187226400Y-105170657D01*
X187230396Y-104942240D01*
X187234392Y-104713822D01*
X187276847Y-104691868D01*
X187308192Y-104676793D01*
X187326744Y-104669951D01*
X187327279Y-104669914D01*
X187329833Y-104683663D01*
G36*
X186334726Y-104815086D02*
G01*
X186357135Y-104763600D01*
X186392124Y-104723443D01*
X186419375Y-104702861D01*
X186468907Y-104680625D01*
X186526316Y-104670304D01*
X186579682Y-104673067D01*
X186609543Y-104684212D01*
X186621261Y-104687383D01*
X186629037Y-104675557D01*
X186634465Y-104643866D01*
X186638571Y-104595593D01*
X186643067Y-104541829D01*
X186649313Y-104509482D01*
X186660676Y-104490985D01*
X186680528Y-104478770D01*
X186693000Y-104473362D01*
X186740171Y-104453601D01*
X186740117Y-104790358D01*
X186739933Y-104898837D01*
X186739219Y-104982287D01*
X186737675Y-105044704D01*
X186735001Y-105090085D01*
X186730894Y-105122429D01*
X186725055Y-105145733D01*
X186717182Y-105163995D01*
X186711221Y-105174418D01*
X186661855Y-105230945D01*
X186599264Y-105266377D01*
X186530013Y-105279090D01*
X186460668Y-105267463D01*
X186419375Y-105246568D01*
X186376025Y-105210422D01*
X186346481Y-105166276D01*
X186328655Y-105108462D01*
X186320463Y-105031313D01*
X186319302Y-104974714D01*
X186319458Y-104970647D01*
X186420857Y-104970647D01*
X186421476Y-105035550D01*
X186424314Y-105078514D01*
X186430840Y-105106622D01*
X186442523Y-105126953D01*
X186456483Y-105142288D01*
X186503365Y-105171890D01*
X186553701Y-105174419D01*
X186601276Y-105149705D01*
X186604979Y-105146356D01*
X186620783Y-105128935D01*
X186630693Y-105108209D01*
X186636058Y-105077362D01*
X186638228Y-105029577D01*
X186638571Y-104976748D01*
X186637827Y-104910381D01*
X186634748Y-104866106D01*
X186628061Y-104837009D01*
X186616496Y-104816173D01*
X186607013Y-104805107D01*
X186562960Y-104777198D01*
X186512224Y-104773843D01*
X186463796Y-104795159D01*
X186454450Y-104803073D01*
X186438540Y-104820647D01*
X186428610Y-104841587D01*
X186423278Y-104872782D01*
X186421163Y-104921122D01*
X186420857Y-104970647D01*
X186319458Y-104970647D01*
X186322810Y-104883568D01*
X186334726Y-104815086D01*
G37*
X186334726Y-104815086D02*
X186357135Y-104763600D01*
X186392124Y-104723443D01*
X186419375Y-104702861D01*
X186468907Y-104680625D01*
X186526316Y-104670304D01*
X186579682Y-104673067D01*
X186609543Y-104684212D01*
X186621261Y-104687383D01*
X186629037Y-104675557D01*
X186634465Y-104643866D01*
X186638571Y-104595593D01*
X186643067Y-104541829D01*
X186649313Y-104509482D01*
X186660676Y-104490985D01*
X186680528Y-104478770D01*
X186693000Y-104473362D01*
X186740171Y-104453601D01*
X186740117Y-104790358D01*
X186739933Y-104898837D01*
X186739219Y-104982287D01*
X186737675Y-105044704D01*
X186735001Y-105090085D01*
X186730894Y-105122429D01*
X186725055Y-105145733D01*
X186717182Y-105163995D01*
X186711221Y-105174418D01*
X186661855Y-105230945D01*
X186599264Y-105266377D01*
X186530013Y-105279090D01*
X186460668Y-105267463D01*
X186419375Y-105246568D01*
X186376025Y-105210422D01*
X186346481Y-105166276D01*
X186328655Y-105108462D01*
X186320463Y-105031313D01*
X186319302Y-104974714D01*
X186319458Y-104970647D01*
X186420857Y-104970647D01*
X186421476Y-105035550D01*
X186424314Y-105078514D01*
X186430840Y-105106622D01*
X186442523Y-105126953D01*
X186456483Y-105142288D01*
X186503365Y-105171890D01*
X186553701Y-105174419D01*
X186601276Y-105149705D01*
X186604979Y-105146356D01*
X186620783Y-105128935D01*
X186630693Y-105108209D01*
X186636058Y-105077362D01*
X186638228Y-105029577D01*
X186638571Y-104976748D01*
X186637827Y-104910381D01*
X186634748Y-104866106D01*
X186628061Y-104837009D01*
X186616496Y-104816173D01*
X186607013Y-104805107D01*
X186562960Y-104777198D01*
X186512224Y-104773843D01*
X186463796Y-104795159D01*
X186454450Y-104803073D01*
X186438540Y-104820647D01*
X186428610Y-104841587D01*
X186423278Y-104872782D01*
X186421163Y-104921122D01*
X186420857Y-104970647D01*
X186319458Y-104970647D01*
X186322810Y-104883568D01*
X186334726Y-104815086D01*
G36*
X186079926Y-104674755D02*
G01*
X186145858Y-104699084D01*
X186199273Y-104742117D01*
X186220164Y-104772409D01*
X186242939Y-104827994D01*
X186242466Y-104868186D01*
X186218562Y-104895217D01*
X186209717Y-104899813D01*
X186171530Y-104914144D01*
X186152028Y-104910472D01*
X186145422Y-104886407D01*
X186145086Y-104873114D01*
X186132992Y-104824210D01*
X186101471Y-104789999D01*
X186057659Y-104773476D01*
X186008695Y-104777634D01*
X185968894Y-104799227D01*
X185955450Y-104811544D01*
X185945921Y-104826487D01*
X185939485Y-104849075D01*
X185935317Y-104884328D01*
X185932597Y-104937266D01*
X185930502Y-105012907D01*
X185929960Y-105036857D01*
X185927981Y-105118790D01*
X185925731Y-105176455D01*
X185922357Y-105214608D01*
X185917006Y-105238004D01*
X185908824Y-105251398D01*
X185896959Y-105259545D01*
X185889362Y-105263144D01*
X185857102Y-105275452D01*
X185838111Y-105279514D01*
X185831836Y-105265948D01*
X185828006Y-105224934D01*
X185826600Y-105155999D01*
X185827598Y-105058669D01*
X185827908Y-105043657D01*
X185830101Y-104954859D01*
X185832693Y-104890019D01*
X185836382Y-104844067D01*
X185841864Y-104811935D01*
X185849835Y-104788553D01*
X185860993Y-104768852D01*
X185866830Y-104760410D01*
X185900296Y-104723057D01*
X185937727Y-104694003D01*
X185942309Y-104691467D01*
X186009426Y-104671443D01*
X186079926Y-104674755D01*
G37*
X186079926Y-104674755D02*
X186145858Y-104699084D01*
X186199273Y-104742117D01*
X186220164Y-104772409D01*
X186242939Y-104827994D01*
X186242466Y-104868186D01*
X186218562Y-104895217D01*
X186209717Y-104899813D01*
X186171530Y-104914144D01*
X186152028Y-104910472D01*
X186145422Y-104886407D01*
X186145086Y-104873114D01*
X186132992Y-104824210D01*
X186101471Y-104789999D01*
X186057659Y-104773476D01*
X186008695Y-104777634D01*
X185968894Y-104799227D01*
X185955450Y-104811544D01*
X185945921Y-104826487D01*
X185939485Y-104849075D01*
X185935317Y-104884328D01*
X185932597Y-104937266D01*
X185930502Y-105012907D01*
X185929960Y-105036857D01*
X185927981Y-105118790D01*
X185925731Y-105176455D01*
X185922357Y-105214608D01*
X185917006Y-105238004D01*
X185908824Y-105251398D01*
X185896959Y-105259545D01*
X185889362Y-105263144D01*
X185857102Y-105275452D01*
X185838111Y-105279514D01*
X185831836Y-105265948D01*
X185828006Y-105224934D01*
X185826600Y-105155999D01*
X185827598Y-105058669D01*
X185827908Y-105043657D01*
X185830101Y-104954859D01*
X185832693Y-104890019D01*
X185836382Y-104844067D01*
X185841864Y-104811935D01*
X185849835Y-104788553D01*
X185860993Y-104768852D01*
X185866830Y-104760410D01*
X185900296Y-104723057D01*
X185937727Y-104694003D01*
X185942309Y-104691467D01*
X186009426Y-104671443D01*
X186079926Y-104674755D01*
G36*
X185589744Y-104675968D02*
G01*
X185646616Y-104697087D01*
X185647267Y-104697493D01*
X185682440Y-104723380D01*
X185708407Y-104753633D01*
X185726670Y-104793058D01*
X185738732Y-104846462D01*
X185746096Y-104918651D01*
X185750264Y-105014432D01*
X185750629Y-105028078D01*
X185755876Y-105233842D01*
X185711716Y-105256678D01*
X185679763Y-105272110D01*
X185660470Y-105279423D01*
X185659578Y-105279514D01*
X185656239Y-105266022D01*
X185653587Y-105229626D01*
X185651956Y-105176452D01*
X185651600Y-105133393D01*
X185651592Y-105063641D01*
X185648403Y-105019837D01*
X185637288Y-104998944D01*
X185613501Y-104997925D01*
X185572296Y-105013741D01*
X185510086Y-105042815D01*
X185464341Y-105066963D01*
X185440813Y-105087913D01*
X185433896Y-105110747D01*
X185433886Y-105111877D01*
X185445299Y-105151212D01*
X185479092Y-105172462D01*
X185530809Y-105175539D01*
X185568061Y-105175006D01*
X185587703Y-105185735D01*
X185599952Y-105211505D01*
X185607002Y-105244337D01*
X185596842Y-105262966D01*
X185593017Y-105265632D01*
X185557001Y-105276340D01*
X185506566Y-105277856D01*
X185454626Y-105270759D01*
X185417822Y-105257788D01*
X185366938Y-105214585D01*
X185338014Y-105154446D01*
X185332286Y-105107462D01*
X185336657Y-105065082D01*
X185352475Y-105030488D01*
X185383797Y-104999763D01*
X185434678Y-104968990D01*
X185509176Y-104934252D01*
X185513714Y-104932288D01*
X185580821Y-104901287D01*
X185622232Y-104875862D01*
X185639981Y-104853014D01*
X185636107Y-104829745D01*
X185612643Y-104803056D01*
X185605627Y-104796914D01*
X185558630Y-104773100D01*
X185509933Y-104774103D01*
X185467522Y-104797451D01*
X185439384Y-104840675D01*
X185436769Y-104849160D01*
X185411308Y-104890308D01*
X185379001Y-104910128D01*
X185332286Y-104929770D01*
X185332286Y-104878950D01*
X185346496Y-104805082D01*
X185388675Y-104737327D01*
X185410624Y-104714661D01*
X185460517Y-104685569D01*
X185523967Y-104672400D01*
X185589744Y-104675968D01*
G37*
X185589744Y-104675968D02*
X185646616Y-104697087D01*
X185647267Y-104697493D01*
X185682440Y-104723380D01*
X185708407Y-104753633D01*
X185726670Y-104793058D01*
X185738732Y-104846462D01*
X185746096Y-104918651D01*
X185750264Y-105014432D01*
X185750629Y-105028078D01*
X185755876Y-105233842D01*
X185711716Y-105256678D01*
X185679763Y-105272110D01*
X185660470Y-105279423D01*
X185659578Y-105279514D01*
X185656239Y-105266022D01*
X185653587Y-105229626D01*
X185651956Y-105176452D01*
X185651600Y-105133393D01*
X185651592Y-105063641D01*
X185648403Y-105019837D01*
X185637288Y-104998944D01*
X185613501Y-104997925D01*
X185572296Y-105013741D01*
X185510086Y-105042815D01*
X185464341Y-105066963D01*
X185440813Y-105087913D01*
X185433896Y-105110747D01*
X185433886Y-105111877D01*
X185445299Y-105151212D01*
X185479092Y-105172462D01*
X185530809Y-105175539D01*
X185568061Y-105175006D01*
X185587703Y-105185735D01*
X185599952Y-105211505D01*
X185607002Y-105244337D01*
X185596842Y-105262966D01*
X185593017Y-105265632D01*
X185557001Y-105276340D01*
X185506566Y-105277856D01*
X185454626Y-105270759D01*
X185417822Y-105257788D01*
X185366938Y-105214585D01*
X185338014Y-105154446D01*
X185332286Y-105107462D01*
X185336657Y-105065082D01*
X185352475Y-105030488D01*
X185383797Y-104999763D01*
X185434678Y-104968990D01*
X185509176Y-104934252D01*
X185513714Y-104932288D01*
X185580821Y-104901287D01*
X185622232Y-104875862D01*
X185639981Y-104853014D01*
X185636107Y-104829745D01*
X185612643Y-104803056D01*
X185605627Y-104796914D01*
X185558630Y-104773100D01*
X185509933Y-104774103D01*
X185467522Y-104797451D01*
X185439384Y-104840675D01*
X185436769Y-104849160D01*
X185411308Y-104890308D01*
X185379001Y-104910128D01*
X185332286Y-104929770D01*
X185332286Y-104878950D01*
X185346496Y-104805082D01*
X185388675Y-104737327D01*
X185410624Y-104714661D01*
X185460517Y-104685569D01*
X185523967Y-104672400D01*
X185589744Y-104675968D01*
G36*
X184925886Y-104576289D02*
G01*
X184930139Y-104635613D01*
X184935025Y-104670572D01*
X184941795Y-104685820D01*
X184951702Y-104686015D01*
X184954914Y-104684195D01*
X184997644Y-104671015D01*
X185053227Y-104671785D01*
X185109737Y-104685333D01*
X185145082Y-104702861D01*
X185181321Y-104730861D01*
X185207813Y-104762549D01*
X185225999Y-104802813D01*
X185237322Y-104856543D01*
X185243222Y-104928626D01*
X185245143Y-105023951D01*
X185245177Y-105042237D01*
X185245200Y-105247646D01*
X185199491Y-105263580D01*
X185167027Y-105274420D01*
X185149215Y-105279468D01*
X185148691Y-105279514D01*
X185146937Y-105265828D01*
X185145444Y-105228076D01*
X185144326Y-105171224D01*
X185143697Y-105100234D01*
X185143600Y-105057073D01*
X185143398Y-104971973D01*
X185142358Y-104910981D01*
X185139831Y-104869177D01*
X185135164Y-104841642D01*
X185127707Y-104823456D01*
X185116811Y-104809698D01*
X185110007Y-104803073D01*
X185063272Y-104776375D01*
X185012272Y-104774375D01*
X184966001Y-104796955D01*
X184957444Y-104805107D01*
X184944893Y-104820436D01*
X184936188Y-104838618D01*
X184930631Y-104864909D01*
X184927526Y-104904562D01*
X184926176Y-104962832D01*
X184925886Y-105043173D01*
X184925886Y-105247646D01*
X184880177Y-105263580D01*
X184847713Y-105274420D01*
X184829901Y-105279468D01*
X184829377Y-105279514D01*
X184828037Y-105265623D01*
X184826828Y-105226439D01*
X184825801Y-105165700D01*
X184825002Y-105087141D01*
X184824481Y-104994498D01*
X184824286Y-104891509D01*
X184824286Y-104494342D01*
X184871457Y-104474444D01*
X184918629Y-104454547D01*
X184925886Y-104576289D01*
G37*
X184925886Y-104576289D02*
X184930139Y-104635613D01*
X184935025Y-104670572D01*
X184941795Y-104685820D01*
X184951702Y-104686015D01*
X184954914Y-104684195D01*
X184997644Y-104671015D01*
X185053227Y-104671785D01*
X185109737Y-104685333D01*
X185145082Y-104702861D01*
X185181321Y-104730861D01*
X185207813Y-104762549D01*
X185225999Y-104802813D01*
X185237322Y-104856543D01*
X185243222Y-104928626D01*
X185245143Y-105023951D01*
X185245177Y-105042237D01*
X185245200Y-105247646D01*
X185199491Y-105263580D01*
X185167027Y-105274420D01*
X185149215Y-105279468D01*
X185148691Y-105279514D01*
X185146937Y-105265828D01*
X185145444Y-105228076D01*
X185144326Y-105171224D01*
X185143697Y-105100234D01*
X185143600Y-105057073D01*
X185143398Y-104971973D01*
X185142358Y-104910981D01*
X185139831Y-104869177D01*
X185135164Y-104841642D01*
X185127707Y-104823456D01*
X185116811Y-104809698D01*
X185110007Y-104803073D01*
X185063272Y-104776375D01*
X185012272Y-104774375D01*
X184966001Y-104796955D01*
X184957444Y-104805107D01*
X184944893Y-104820436D01*
X184936188Y-104838618D01*
X184930631Y-104864909D01*
X184927526Y-104904562D01*
X184926176Y-104962832D01*
X184925886Y-105043173D01*
X184925886Y-105247646D01*
X184880177Y-105263580D01*
X184847713Y-105274420D01*
X184829901Y-105279468D01*
X184829377Y-105279514D01*
X184828037Y-105265623D01*
X184826828Y-105226439D01*
X184825801Y-105165700D01*
X184825002Y-105087141D01*
X184824481Y-104994498D01*
X184824286Y-104891509D01*
X184824286Y-104494342D01*
X184871457Y-104474444D01*
X184918629Y-104454547D01*
X184925886Y-104576289D01*
G36*
X183421550Y-104761212D02*
G01*
X183455456Y-104712302D01*
X183516653Y-104662878D01*
X183584063Y-104638359D01*
X183652880Y-104636797D01*
X183718303Y-104656239D01*
X183775527Y-104694735D01*
X183819749Y-104750335D01*
X183846167Y-104821086D01*
X183851510Y-104873162D01*
X183850903Y-104894893D01*
X183845822Y-104911531D01*
X183831855Y-104926437D01*
X183804589Y-104942973D01*
X183759612Y-104964498D01*
X183692511Y-104994374D01*
X183692171Y-104994524D01*
X183630407Y-105022813D01*
X183579759Y-105047933D01*
X183545404Y-105067179D01*
X183532518Y-105077848D01*
X183532514Y-105077934D01*
X183543872Y-105101166D01*
X183570431Y-105126774D01*
X183600923Y-105145221D01*
X183616370Y-105148886D01*
X183658515Y-105136212D01*
X183694808Y-105104471D01*
X183712517Y-105069572D01*
X183729552Y-105043845D01*
X183762922Y-105014546D01*
X183802149Y-104989235D01*
X183836756Y-104975471D01*
X183843993Y-104974714D01*
X183852139Y-104987160D01*
X183852630Y-105018972D01*
X183846643Y-105061866D01*
X183835357Y-105107558D01*
X183819950Y-105147761D01*
X183819171Y-105149322D01*
X183772804Y-105214062D01*
X183712711Y-105258097D01*
X183644465Y-105279711D01*
X183573638Y-105277185D01*
X183505804Y-105248804D01*
X183502788Y-105246808D01*
X183449427Y-105198448D01*
X183414340Y-105135352D01*
X183394922Y-105052387D01*
X183392316Y-105029078D01*
X183387701Y-104919055D01*
X183393233Y-104867748D01*
X183532514Y-104867748D01*
X183534324Y-104899753D01*
X183544222Y-104909093D01*
X183568898Y-104902105D01*
X183607795Y-104885587D01*
X183651275Y-104864881D01*
X183652356Y-104864333D01*
X183689209Y-104844949D01*
X183704000Y-104832013D01*
X183700353Y-104818451D01*
X183684995Y-104800632D01*
X183645923Y-104774845D01*
X183603846Y-104772950D01*
X183566103Y-104791717D01*
X183540034Y-104827915D01*
X183532514Y-104867748D01*
X183393233Y-104867748D01*
X183397194Y-104831027D01*
X183421550Y-104761212D01*
G37*
X183421550Y-104761212D02*
X183455456Y-104712302D01*
X183516653Y-104662878D01*
X183584063Y-104638359D01*
X183652880Y-104636797D01*
X183718303Y-104656239D01*
X183775527Y-104694735D01*
X183819749Y-104750335D01*
X183846167Y-104821086D01*
X183851510Y-104873162D01*
X183850903Y-104894893D01*
X183845822Y-104911531D01*
X183831855Y-104926437D01*
X183804589Y-104942973D01*
X183759612Y-104964498D01*
X183692511Y-104994374D01*
X183692171Y-104994524D01*
X183630407Y-105022813D01*
X183579759Y-105047933D01*
X183545404Y-105067179D01*
X183532518Y-105077848D01*
X183532514Y-105077934D01*
X183543872Y-105101166D01*
X183570431Y-105126774D01*
X183600923Y-105145221D01*
X183616370Y-105148886D01*
X183658515Y-105136212D01*
X183694808Y-105104471D01*
X183712517Y-105069572D01*
X183729552Y-105043845D01*
X183762922Y-105014546D01*
X183802149Y-104989235D01*
X183836756Y-104975471D01*
X183843993Y-104974714D01*
X183852139Y-104987160D01*
X183852630Y-105018972D01*
X183846643Y-105061866D01*
X183835357Y-105107558D01*
X183819950Y-105147761D01*
X183819171Y-105149322D01*
X183772804Y-105214062D01*
X183712711Y-105258097D01*
X183644465Y-105279711D01*
X183573638Y-105277185D01*
X183505804Y-105248804D01*
X183502788Y-105246808D01*
X183449427Y-105198448D01*
X183414340Y-105135352D01*
X183394922Y-105052387D01*
X183392316Y-105029078D01*
X183387701Y-104919055D01*
X183393233Y-104867748D01*
X183532514Y-104867748D01*
X183534324Y-104899753D01*
X183544222Y-104909093D01*
X183568898Y-104902105D01*
X183607795Y-104885587D01*
X183651275Y-104864881D01*
X183652356Y-104864333D01*
X183689209Y-104844949D01*
X183704000Y-104832013D01*
X183700353Y-104818451D01*
X183684995Y-104800632D01*
X183645923Y-104774845D01*
X183603846Y-104772950D01*
X183566103Y-104791717D01*
X183540034Y-104827915D01*
X183532514Y-104867748D01*
X183393233Y-104867748D01*
X183397194Y-104831027D01*
X183421550Y-104761212D01*
G36*
X182287096Y-104833159D02*
G01*
X182292068Y-104796949D01*
X182300713Y-104770299D01*
X182314005Y-104746722D01*
X182316943Y-104742338D01*
X182366313Y-104683249D01*
X182420109Y-104648947D01*
X182485602Y-104635331D01*
X182507842Y-104634665D01*
X182591115Y-104646962D01*
X182659145Y-104682733D01*
X182709351Y-104740301D01*
X182727185Y-104777312D01*
X182741063Y-104832882D01*
X182748167Y-104903096D01*
X182748840Y-104979727D01*
X182743427Y-105054552D01*
X182732270Y-105119342D01*
X182715714Y-105165873D01*
X182710626Y-105173887D01*
X182650355Y-105233707D01*
X182578769Y-105269535D01*
X182501092Y-105280020D01*
X182422548Y-105263810D01*
X182400689Y-105254092D01*
X182358122Y-105224143D01*
X182320763Y-105184433D01*
X182317232Y-105179397D01*
X182302881Y-105155124D01*
X182293394Y-105129178D01*
X182287790Y-105095022D01*
X182285086Y-105046119D01*
X182284299Y-104975935D01*
X182284286Y-104960200D01*
X182284322Y-104955192D01*
X182429429Y-104955192D01*
X182430273Y-105021430D01*
X182433596Y-105065386D01*
X182440583Y-105093779D01*
X182452416Y-105113325D01*
X182458457Y-105119857D01*
X182493186Y-105144680D01*
X182526903Y-105143548D01*
X182560995Y-105122016D01*
X182581329Y-105099029D01*
X182593371Y-105065478D01*
X182600134Y-105012569D01*
X182600598Y-105006399D01*
X182601752Y-104910513D01*
X182589688Y-104839299D01*
X182564570Y-104793194D01*
X182526560Y-104772635D01*
X182512992Y-104771514D01*
X182477364Y-104777152D01*
X182452994Y-104796686D01*
X182438093Y-104834042D01*
X182430875Y-104893150D01*
X182429429Y-104955192D01*
X182284322Y-104955192D01*
X182284826Y-104885413D01*
X182287096Y-104833159D01*
G37*
X182287096Y-104833159D02*
X182292068Y-104796949D01*
X182300713Y-104770299D01*
X182314005Y-104746722D01*
X182316943Y-104742338D01*
X182366313Y-104683249D01*
X182420109Y-104648947D01*
X182485602Y-104635331D01*
X182507842Y-104634665D01*
X182591115Y-104646962D01*
X182659145Y-104682733D01*
X182709351Y-104740301D01*
X182727185Y-104777312D01*
X182741063Y-104832882D01*
X182748167Y-104903096D01*
X182748840Y-104979727D01*
X182743427Y-105054552D01*
X182732270Y-105119342D01*
X182715714Y-105165873D01*
X182710626Y-105173887D01*
X182650355Y-105233707D01*
X182578769Y-105269535D01*
X182501092Y-105280020D01*
X182422548Y-105263810D01*
X182400689Y-105254092D01*
X182358122Y-105224143D01*
X182320763Y-105184433D01*
X182317232Y-105179397D01*
X182302881Y-105155124D01*
X182293394Y-105129178D01*
X182287790Y-105095022D01*
X182285086Y-105046119D01*
X182284299Y-104975935D01*
X182284286Y-104960200D01*
X182284322Y-104955192D01*
X182429429Y-104955192D01*
X182430273Y-105021430D01*
X182433596Y-105065386D01*
X182440583Y-105093779D01*
X182452416Y-105113325D01*
X182458457Y-105119857D01*
X182493186Y-105144680D01*
X182526903Y-105143548D01*
X182560995Y-105122016D01*
X182581329Y-105099029D01*
X182593371Y-105065478D01*
X182600134Y-105012569D01*
X182600598Y-105006399D01*
X182601752Y-104910513D01*
X182589688Y-104839299D01*
X182564570Y-104793194D01*
X182526560Y-104772635D01*
X182512992Y-104771514D01*
X182477364Y-104777152D01*
X182452994Y-104796686D01*
X182438093Y-104834042D01*
X182430875Y-104893150D01*
X182429429Y-104955192D01*
X182284322Y-104955192D01*
X182284826Y-104885413D01*
X182287096Y-104833159D01*
G36*
X184266093Y-104652780D02*
G01*
X184312672Y-104679723D01*
X184345057Y-104706466D01*
X184368742Y-104734484D01*
X184385059Y-104768748D01*
X184395339Y-104814227D01*
X184400914Y-104875892D01*
X184403116Y-104958711D01*
X184403371Y-105018246D01*
X184403371Y-105237391D01*
X184341686Y-105265044D01*
X184280000Y-105292697D01*
X184272743Y-105052670D01*
X184269744Y-104963028D01*
X184266598Y-104897962D01*
X184262701Y-104853026D01*
X184257447Y-104823770D01*
X184250231Y-104805748D01*
X184240450Y-104794511D01*
X184237312Y-104792079D01*
X184189761Y-104773083D01*
X184141697Y-104780600D01*
X184113086Y-104800543D01*
X184101447Y-104814675D01*
X184093391Y-104833220D01*
X184088271Y-104861334D01*
X184085441Y-104904173D01*
X184084256Y-104966895D01*
X184084057Y-105032261D01*
X184084018Y-105114268D01*
X184082614Y-105172316D01*
X184077914Y-105211465D01*
X184067987Y-105236780D01*
X184050903Y-105253323D01*
X184024732Y-105266156D01*
X183989775Y-105279491D01*
X183951596Y-105294007D01*
X183956141Y-105036389D01*
X183957971Y-104943519D01*
X183960112Y-104874889D01*
X183963181Y-104825711D01*
X183967794Y-104791198D01*
X183974568Y-104766562D01*
X183984119Y-104747016D01*
X183995634Y-104729770D01*
X184051190Y-104674680D01*
X184118980Y-104642822D01*
X184192713Y-104635191D01*
X184266093Y-104652780D01*
G37*
X184266093Y-104652780D02*
X184312672Y-104679723D01*
X184345057Y-104706466D01*
X184368742Y-104734484D01*
X184385059Y-104768748D01*
X184395339Y-104814227D01*
X184400914Y-104875892D01*
X184403116Y-104958711D01*
X184403371Y-105018246D01*
X184403371Y-105237391D01*
X184341686Y-105265044D01*
X184280000Y-105292697D01*
X184272743Y-105052670D01*
X184269744Y-104963028D01*
X184266598Y-104897962D01*
X184262701Y-104853026D01*
X184257447Y-104823770D01*
X184250231Y-104805748D01*
X184240450Y-104794511D01*
X184237312Y-104792079D01*
X184189761Y-104773083D01*
X184141697Y-104780600D01*
X184113086Y-104800543D01*
X184101447Y-104814675D01*
X184093391Y-104833220D01*
X184088271Y-104861334D01*
X184085441Y-104904173D01*
X184084256Y-104966895D01*
X184084057Y-105032261D01*
X184084018Y-105114268D01*
X184082614Y-105172316D01*
X184077914Y-105211465D01*
X184067987Y-105236780D01*
X184050903Y-105253323D01*
X184024732Y-105266156D01*
X183989775Y-105279491D01*
X183951596Y-105294007D01*
X183956141Y-105036389D01*
X183957971Y-104943519D01*
X183960112Y-104874889D01*
X183963181Y-104825711D01*
X183967794Y-104791198D01*
X183974568Y-104766562D01*
X183984119Y-104747016D01*
X183995634Y-104729770D01*
X184051190Y-104674680D01*
X184118980Y-104642822D01*
X184192713Y-104635191D01*
X184266093Y-104652780D01*
G36*
X182843677Y-104875333D02*
G01*
X182846450Y-104827958D01*
X182850388Y-104794290D01*
X182855849Y-104770498D01*
X182863192Y-104752753D01*
X182872777Y-104737224D01*
X182876887Y-104731381D01*
X182931405Y-104676185D01*
X183000336Y-104644890D01*
X183080072Y-104636165D01*
X183149744Y-104644918D01*
X183205201Y-104672568D01*
X183254148Y-104723480D01*
X183267629Y-104742338D01*
X183282314Y-104767015D01*
X183291842Y-104793816D01*
X183297293Y-104829587D01*
X183299747Y-104881169D01*
X183300286Y-104949267D01*
X183297852Y-105042588D01*
X183289394Y-105112657D01*
X183273174Y-105164931D01*
X183247454Y-105204869D01*
X183210497Y-105237929D01*
X183207782Y-105239886D01*
X183171360Y-105259908D01*
X183127502Y-105269815D01*
X183071724Y-105272257D01*
X182981048Y-105272257D01*
X182981010Y-105360283D01*
X182980166Y-105409308D01*
X182975024Y-105438065D01*
X182961587Y-105455311D01*
X182935858Y-105469808D01*
X182929679Y-105472769D01*
X182900764Y-105486648D01*
X182878376Y-105495414D01*
X182861729Y-105496171D01*
X182850036Y-105486023D01*
X182842510Y-105462073D01*
X182838366Y-105421426D01*
X182836815Y-105361186D01*
X182837071Y-105278455D01*
X182838349Y-105170339D01*
X182838748Y-105138000D01*
X182840185Y-105026524D01*
X182841472Y-104953603D01*
X182980971Y-104953603D01*
X182981755Y-105015499D01*
X182985240Y-105055997D01*
X182993124Y-105082708D01*
X183007105Y-105103244D01*
X183016597Y-105113260D01*
X183055404Y-105142567D01*
X183089763Y-105144952D01*
X183125216Y-105120750D01*
X183126114Y-105119857D01*
X183140539Y-105101153D01*
X183149313Y-105075732D01*
X183153739Y-105036584D01*
X183155118Y-104976697D01*
X183155143Y-104963430D01*
X183151812Y-104880901D01*
X183140969Y-104823691D01*
X183121340Y-104788766D01*
X183091650Y-104773094D01*
X183074491Y-104771514D01*
X183033766Y-104778926D01*
X183005832Y-104803330D01*
X182989017Y-104847980D01*
X182981650Y-104916130D01*
X182980971Y-104953603D01*
X182841472Y-104953603D01*
X182841708Y-104940245D01*
X182843677Y-104875333D01*
G37*
X182843677Y-104875333D02*
X182846450Y-104827958D01*
X182850388Y-104794290D01*
X182855849Y-104770498D01*
X182863192Y-104752753D01*
X182872777Y-104737224D01*
X182876887Y-104731381D01*
X182931405Y-104676185D01*
X183000336Y-104644890D01*
X183080072Y-104636165D01*
X183149744Y-104644918D01*
X183205201Y-104672568D01*
X183254148Y-104723480D01*
X183267629Y-104742338D01*
X183282314Y-104767015D01*
X183291842Y-104793816D01*
X183297293Y-104829587D01*
X183299747Y-104881169D01*
X183300286Y-104949267D01*
X183297852Y-105042588D01*
X183289394Y-105112657D01*
X183273174Y-105164931D01*
X183247454Y-105204869D01*
X183210497Y-105237929D01*
X183207782Y-105239886D01*
X183171360Y-105259908D01*
X183127502Y-105269815D01*
X183071724Y-105272257D01*
X182981048Y-105272257D01*
X182981010Y-105360283D01*
X182980166Y-105409308D01*
X182975024Y-105438065D01*
X182961587Y-105455311D01*
X182935858Y-105469808D01*
X182929679Y-105472769D01*
X182900764Y-105486648D01*
X182878376Y-105495414D01*
X182861729Y-105496171D01*
X182850036Y-105486023D01*
X182842510Y-105462073D01*
X182838366Y-105421426D01*
X182836815Y-105361186D01*
X182837071Y-105278455D01*
X182838349Y-105170339D01*
X182838748Y-105138000D01*
X182840185Y-105026524D01*
X182841472Y-104953603D01*
X182980971Y-104953603D01*
X182981755Y-105015499D01*
X182985240Y-105055997D01*
X182993124Y-105082708D01*
X183007105Y-105103244D01*
X183016597Y-105113260D01*
X183055404Y-105142567D01*
X183089763Y-105144952D01*
X183125216Y-105120750D01*
X183126114Y-105119857D01*
X183140539Y-105101153D01*
X183149313Y-105075732D01*
X183153739Y-105036584D01*
X183155118Y-104976697D01*
X183155143Y-104963430D01*
X183151812Y-104880901D01*
X183140969Y-104823691D01*
X183121340Y-104788766D01*
X183091650Y-104773094D01*
X183074491Y-104771514D01*
X183033766Y-104778926D01*
X183005832Y-104803330D01*
X182989017Y-104847980D01*
X182981650Y-104916130D01*
X182980971Y-104953603D01*
X182841472Y-104953603D01*
X182841708Y-104940245D01*
X182843677Y-104875333D01*
D11*
X191801000Y-106900000D02*
G75*
G03*
X191801000Y-106900000I-1251000J0D01*
G01*
D10*
X111614000Y-105578000D02*
X104614000Y-105578000D01*
X111614000Y-109078000D02*
X104614000Y-109078000D01*
X104614000Y-109078000D02*
X104614000Y-105578000D01*
X111614000Y-109078000D02*
X111614000Y-105578000D01*
D11*
X151473000Y-78180000D02*
X151173000Y-78180000D01*
X151473000Y-76760000D02*
X151173000Y-76760000D01*
X178360000Y-87526000D02*
X178360000Y-87226000D01*
X179780000Y-87526000D02*
X179780000Y-87226000D01*
X177580000Y-81185000D02*
X177280000Y-81185000D01*
X177580000Y-79765000D02*
X177280000Y-79765000D01*
X177600000Y-83610000D02*
X177300000Y-83610000D01*
X177600000Y-82190000D02*
X177300000Y-82190000D01*
X150685000Y-80720000D02*
X150685000Y-81020000D01*
X149265000Y-80720000D02*
X149265000Y-81020000D01*
X143520000Y-96235000D02*
X140780000Y-96235000D01*
X140780000Y-96235000D02*
X140780000Y-102775000D01*
X140780000Y-102775000D02*
X143520000Y-102775000D01*
X143520000Y-102775000D02*
X143520000Y-96235000D01*
X142150000Y-95465000D02*
X142150000Y-96235000D01*
X142150000Y-103545000D02*
X142150000Y-102775000D01*
X140774000Y-115408000D02*
X143514000Y-115408000D01*
X143514000Y-115408000D02*
X143514000Y-108868000D01*
X143514000Y-108868000D02*
X140774000Y-108868000D01*
X140774000Y-108868000D02*
X140774000Y-115408000D01*
X142144000Y-116178000D02*
X142144000Y-115408000D01*
X142144000Y-108098000D02*
X142144000Y-108868000D01*
X157344000Y-96408000D02*
X154604000Y-96408000D01*
X154604000Y-96408000D02*
X154604000Y-102948000D01*
X154604000Y-102948000D02*
X157344000Y-102948000D01*
X157344000Y-102948000D02*
X157344000Y-96408000D01*
X155974000Y-95638000D02*
X155974000Y-96408000D01*
X155974000Y-103718000D02*
X155974000Y-102948000D01*
X158114000Y-102958000D02*
X160854000Y-102958000D01*
X160854000Y-102958000D02*
X160854000Y-96418000D01*
X160854000Y-96418000D02*
X158114000Y-96418000D01*
X158114000Y-96418000D02*
X158114000Y-102958000D01*
X159484000Y-103728000D02*
X159484000Y-102958000D01*
X159484000Y-95648000D02*
X159484000Y-96418000D01*
X150414000Y-96408000D02*
X147674000Y-96408000D01*
X147674000Y-96408000D02*
X147674000Y-102948000D01*
X147674000Y-102948000D02*
X150414000Y-102948000D01*
X150414000Y-102948000D02*
X150414000Y-96408000D01*
X149044000Y-95638000D02*
X149044000Y-96408000D01*
X149044000Y-103718000D02*
X149044000Y-102948000D01*
X151154000Y-103018000D02*
X153894000Y-103018000D01*
X153894000Y-103018000D02*
X153894000Y-96478000D01*
X153894000Y-96478000D02*
X151154000Y-96478000D01*
X151154000Y-96478000D02*
X151154000Y-103018000D01*
X152524000Y-103788000D02*
X152524000Y-103018000D01*
X152524000Y-95708000D02*
X152524000Y-96478000D01*
X157374000Y-108928000D02*
X154634000Y-108928000D01*
X154634000Y-108928000D02*
X154634000Y-115468000D01*
X154634000Y-115468000D02*
X157374000Y-115468000D01*
X157374000Y-115468000D02*
X157374000Y-108928000D01*
X156004000Y-108158000D02*
X156004000Y-108928000D01*
X156004000Y-116238000D02*
X156004000Y-115468000D01*
X150394000Y-108968000D02*
X147654000Y-108968000D01*
X147654000Y-108968000D02*
X147654000Y-115508000D01*
X147654000Y-115508000D02*
X150394000Y-115508000D01*
X150394000Y-115508000D02*
X150394000Y-108968000D01*
X149024000Y-108198000D02*
X149024000Y-108968000D01*
X149024000Y-116278000D02*
X149024000Y-115508000D01*
X160874000Y-108918000D02*
X158134000Y-108918000D01*
X158134000Y-108918000D02*
X158134000Y-115458000D01*
X158134000Y-115458000D02*
X160874000Y-115458000D01*
X160874000Y-115458000D02*
X160874000Y-108918000D01*
X159504000Y-108148000D02*
X159504000Y-108918000D01*
X159504000Y-116228000D02*
X159504000Y-115458000D01*
X153894000Y-108928000D02*
X151154000Y-108928000D01*
X151154000Y-108928000D02*
X151154000Y-115468000D01*
X151154000Y-115468000D02*
X153894000Y-115468000D01*
X153894000Y-115468000D02*
X153894000Y-108928000D01*
X152524000Y-108158000D02*
X152524000Y-108928000D01*
X152524000Y-116238000D02*
X152524000Y-115468000D01*
X139984000Y-108818000D02*
X137244000Y-108818000D01*
X137244000Y-108818000D02*
X137244000Y-115358000D01*
X137244000Y-115358000D02*
X139984000Y-115358000D01*
X139984000Y-115358000D02*
X139984000Y-108818000D01*
X138614000Y-108048000D02*
X138614000Y-108818000D01*
X138614000Y-116128000D02*
X138614000Y-115358000D01*
X137314000Y-102838000D02*
X140054000Y-102838000D01*
X140054000Y-102838000D02*
X140054000Y-96298000D01*
X140054000Y-96298000D02*
X137314000Y-96298000D01*
X137314000Y-96298000D02*
X137314000Y-102838000D01*
X138684000Y-103608000D02*
X138684000Y-102838000D01*
X138684000Y-95528000D02*
X138684000Y-96298000D01*
X178554000Y-96278000D02*
X175814000Y-96278000D01*
X175814000Y-96278000D02*
X175814000Y-102818000D01*
X175814000Y-102818000D02*
X178554000Y-102818000D01*
X178554000Y-102818000D02*
X178554000Y-96278000D01*
X177184000Y-95508000D02*
X177184000Y-96278000D01*
X177184000Y-103588000D02*
X177184000Y-102818000D01*
X179314000Y-102838000D02*
X182054000Y-102838000D01*
X182054000Y-102838000D02*
X182054000Y-96298000D01*
X182054000Y-96298000D02*
X179314000Y-96298000D01*
X179314000Y-96298000D02*
X179314000Y-102838000D01*
X180684000Y-103608000D02*
X180684000Y-102838000D01*
X180684000Y-95528000D02*
X180684000Y-96298000D01*
X171454000Y-96288000D02*
X168714000Y-96288000D01*
X168714000Y-96288000D02*
X168714000Y-102828000D01*
X168714000Y-102828000D02*
X171454000Y-102828000D01*
X171454000Y-102828000D02*
X171454000Y-96288000D01*
X170084000Y-95518000D02*
X170084000Y-96288000D01*
X170084000Y-103598000D02*
X170084000Y-102828000D01*
X172194000Y-102918000D02*
X174934000Y-102918000D01*
X174934000Y-102918000D02*
X174934000Y-96378000D01*
X174934000Y-96378000D02*
X172194000Y-96378000D01*
X172194000Y-96378000D02*
X172194000Y-102918000D01*
X173564000Y-103688000D02*
X173564000Y-102918000D01*
X173564000Y-95608000D02*
X173564000Y-96378000D01*
X164434000Y-96348000D02*
X161694000Y-96348000D01*
X161694000Y-96348000D02*
X161694000Y-102888000D01*
X161694000Y-102888000D02*
X164434000Y-102888000D01*
X164434000Y-102888000D02*
X164434000Y-96348000D01*
X163064000Y-95578000D02*
X163064000Y-96348000D01*
X163064000Y-103658000D02*
X163064000Y-102888000D01*
X165204000Y-102908000D02*
X167944000Y-102908000D01*
X167944000Y-102908000D02*
X167944000Y-96368000D01*
X167944000Y-96368000D02*
X165204000Y-96368000D01*
X165204000Y-96368000D02*
X165204000Y-102908000D01*
X166574000Y-103678000D02*
X166574000Y-102908000D01*
X166574000Y-95598000D02*
X166574000Y-96368000D01*
X178384000Y-108938000D02*
X175644000Y-108938000D01*
X175644000Y-108938000D02*
X175644000Y-115478000D01*
X175644000Y-115478000D02*
X178384000Y-115478000D01*
X178384000Y-115478000D02*
X178384000Y-108938000D01*
X177014000Y-108168000D02*
X177014000Y-108938000D01*
X177014000Y-116248000D02*
X177014000Y-115478000D01*
X171344000Y-108908000D02*
X168604000Y-108908000D01*
X168604000Y-108908000D02*
X168604000Y-115448000D01*
X168604000Y-115448000D02*
X171344000Y-115448000D01*
X171344000Y-115448000D02*
X171344000Y-108908000D01*
X169974000Y-108138000D02*
X169974000Y-108908000D01*
X169974000Y-116218000D02*
X169974000Y-115448000D01*
X164414000Y-108928000D02*
X161674000Y-108928000D01*
X161674000Y-108928000D02*
X161674000Y-115468000D01*
X161674000Y-115468000D02*
X164414000Y-115468000D01*
X164414000Y-115468000D02*
X164414000Y-108928000D01*
X163044000Y-108158000D02*
X163044000Y-108928000D01*
X163044000Y-116238000D02*
X163044000Y-115468000D01*
X181924000Y-108918000D02*
X179184000Y-108918000D01*
X179184000Y-108918000D02*
X179184000Y-115458000D01*
X179184000Y-115458000D02*
X181924000Y-115458000D01*
X181924000Y-115458000D02*
X181924000Y-108918000D01*
X180554000Y-108148000D02*
X180554000Y-108918000D01*
X180554000Y-116228000D02*
X180554000Y-115458000D01*
X174904000Y-108948000D02*
X172164000Y-108948000D01*
X172164000Y-108948000D02*
X172164000Y-115488000D01*
X172164000Y-115488000D02*
X174904000Y-115488000D01*
X174904000Y-115488000D02*
X174904000Y-108948000D01*
X173534000Y-108178000D02*
X173534000Y-108948000D01*
X173534000Y-116258000D02*
X173534000Y-115488000D01*
X167924000Y-108888000D02*
X165184000Y-108888000D01*
X165184000Y-108888000D02*
X165184000Y-115428000D01*
X165184000Y-115428000D02*
X167924000Y-115428000D01*
X167924000Y-115428000D02*
X167924000Y-108888000D01*
X166554000Y-108118000D02*
X166554000Y-108888000D01*
X166554000Y-116198000D02*
X166554000Y-115428000D01*
X117126000Y-122836000D02*
X117126000Y-125576000D01*
X117126000Y-125576000D02*
X123666000Y-125576000D01*
X123666000Y-125576000D02*
X123666000Y-122836000D01*
X123666000Y-122836000D02*
X117126000Y-122836000D01*
X116356000Y-124206000D02*
X117126000Y-124206000D01*
X124436000Y-124206000D02*
X123666000Y-124206000D01*
X117126000Y-118772000D02*
X117126000Y-121512000D01*
X117126000Y-121512000D02*
X123666000Y-121512000D01*
X123666000Y-121512000D02*
X123666000Y-118772000D01*
X123666000Y-118772000D02*
X117126000Y-118772000D01*
X116356000Y-120142000D02*
X117126000Y-120142000D01*
X124436000Y-120142000D02*
X123666000Y-120142000D01*
X191826000Y-102725000D02*
G75*
G03*
X191826000Y-102725000I-1251000J0D01*
G01*
X191801000Y-77300000D02*
G75*
G03*
X191801000Y-77300000I-1251000J0D01*
G01*
X191876000Y-81375000D02*
G75*
G03*
X191876000Y-81375000I-1251000J0D01*
G01*
X180025000Y-92300000D02*
X178025000Y-92300000D01*
X180025000Y-89500000D02*
X180025000Y-92300000D01*
X178025000Y-89500000D02*
X180025000Y-89500000D01*
X178025000Y-92300000D02*
X178025000Y-89500000D01*
X112268000Y-124868000D02*
X104648000Y-124868000D01*
X112268000Y-109628000D02*
X104648000Y-109628000D01*
X110998000Y-124868000D02*
X110998000Y-109628000D01*
X104648000Y-124868000D02*
X104648000Y-109628000D01*
X112268000Y-124868000D02*
X112268000Y-109628000D01*
X138564000Y-84408000D02*
X138444000Y-84268000D01*
X138444000Y-84268000D02*
X138354000Y-84108000D01*
X138354000Y-84108000D02*
X138304000Y-83858000D01*
X138304000Y-83858000D02*
X138334000Y-83598000D01*
X138334000Y-83598000D02*
X138484000Y-83338000D01*
X138484000Y-83338000D02*
X138704000Y-83168000D01*
X138704000Y-83168000D02*
X138994000Y-83088000D01*
X138994000Y-83088000D02*
X139284000Y-83128000D01*
X139284000Y-83128000D02*
X139464000Y-83208000D01*
X139464000Y-83208000D02*
X139594000Y-83358000D01*
X147164000Y-87188000D02*
G75*
G03*
X147164000Y-87188000I-4750000J0D01*
G01*
X104304000Y-97348000D02*
X104184000Y-97208000D01*
X104184000Y-97208000D02*
X104094000Y-97048000D01*
X104094000Y-97048000D02*
X104044000Y-96798000D01*
X104044000Y-96798000D02*
X104074000Y-96538000D01*
X104074000Y-96538000D02*
X104224000Y-96278000D01*
X104224000Y-96278000D02*
X104444000Y-96108000D01*
X104444000Y-96108000D02*
X104734000Y-96028000D01*
X104734000Y-96028000D02*
X105024000Y-96068000D01*
X105024000Y-96068000D02*
X105204000Y-96148000D01*
X105204000Y-96148000D02*
X105334000Y-96298000D01*
X112904000Y-100128000D02*
G75*
G03*
X112904000Y-100128000I-4750000J0D01*
G01*
X152325000Y-74678000D02*
X150055000Y-74678000D01*
X150055000Y-74678000D02*
X150055000Y-76198000D01*
X150055000Y-76198000D02*
X152325000Y-76198000D01*
X146302000Y-105212000D02*
X144842000Y-105212000D01*
X146302000Y-102052000D02*
X144142000Y-102052000D01*
X146302000Y-102052000D02*
X146302000Y-102982000D01*
X146302000Y-105212000D02*
X146302000Y-104282000D01*
X146302000Y-112948000D02*
X144842000Y-112948000D01*
X146302000Y-109788000D02*
X144142000Y-109788000D01*
X146302000Y-109788000D02*
X146302000Y-110718000D01*
X146302000Y-112948000D02*
X146302000Y-112018000D01*
X146302000Y-109378000D02*
X144842000Y-109378000D01*
X146302000Y-106218000D02*
X144142000Y-106218000D01*
X146302000Y-106218000D02*
X146302000Y-107148000D01*
X146302000Y-109378000D02*
X146302000Y-108448000D01*
X183334000Y-107198000D02*
X184794000Y-107198000D01*
X183334000Y-110358000D02*
X185494000Y-110358000D01*
X183334000Y-110358000D02*
X183334000Y-109428000D01*
X183334000Y-107198000D02*
X183334000Y-108128000D01*
X183390000Y-110942000D02*
X184850000Y-110942000D01*
X183390000Y-114102000D02*
X185550000Y-114102000D01*
X183390000Y-114102000D02*
X183390000Y-113172000D01*
X183390000Y-110942000D02*
X183390000Y-111872000D01*
X146302000Y-116568000D02*
X144842000Y-116568000D01*
X146302000Y-113408000D02*
X144142000Y-113408000D01*
X146302000Y-113408000D02*
X146302000Y-114338000D01*
X146302000Y-116568000D02*
X146302000Y-115638000D01*
X184170000Y-78035000D02*
X183870000Y-78035000D01*
X184170000Y-76615000D02*
X183870000Y-76615000D01*
X178966000Y-77418000D02*
X178666000Y-77418000D01*
X178966000Y-75998000D02*
X178666000Y-75998000D01*
X152190000Y-81025000D02*
X152190000Y-80725000D01*
X153610000Y-81025000D02*
X153610000Y-80725000D01*
X144746000Y-118574000D02*
X140826000Y-118574000D01*
X140826000Y-118574000D02*
X140826000Y-120694000D01*
X140826000Y-120694000D02*
X144746000Y-120694000D01*
X141546000Y-125520000D02*
X145466000Y-125520000D01*
X145466000Y-125520000D02*
X145466000Y-123400000D01*
X145466000Y-123400000D02*
X141546000Y-123400000D01*
X141546000Y-123234000D02*
X145466000Y-123234000D01*
X145466000Y-123234000D02*
X145466000Y-121114000D01*
X145466000Y-121114000D02*
X141546000Y-121114000D01*
X188036000Y-123400000D02*
X184116000Y-123400000D01*
X184116000Y-123400000D02*
X184116000Y-125520000D01*
X184116000Y-125520000D02*
X188036000Y-125520000D01*
X188146000Y-121114000D02*
X184226000Y-121114000D01*
X184226000Y-121114000D02*
X184226000Y-123234000D01*
X184226000Y-123234000D02*
X188146000Y-123234000D01*
X188150000Y-118565000D02*
X184230000Y-118565000D01*
X184230000Y-118565000D02*
X184230000Y-120685000D01*
X184230000Y-120685000D02*
X188150000Y-120685000D01*
X152315000Y-89950000D02*
X152315000Y-89650000D01*
X153735000Y-89950000D02*
X153735000Y-89650000D01*
X151940000Y-84030000D02*
X151940000Y-87950000D01*
X151940000Y-87950000D02*
X154060000Y-87950000D01*
X154060000Y-87950000D02*
X154060000Y-84030000D01*
D10*
X102924000Y-74678000D02*
X136924000Y-74678000D01*
X136924000Y-74678000D02*
X136924000Y-94878000D01*
X136924000Y-94878000D02*
X102924000Y-94878000D01*
X102924000Y-94878000D02*
X102924000Y-74678000D01*
D11*
X136458000Y-123682000D02*
G75*
G02*
X136458000Y-121682000I0J1000000D01*
G01*
X136458000Y-121682000D02*
X136458000Y-120432000D01*
X136458000Y-120432000D02*
X128718000Y-120432000D01*
X128718000Y-120432000D02*
X128718000Y-124932000D01*
X128718000Y-124932000D02*
X136458000Y-124932000D01*
X136458000Y-124932000D02*
X136458000Y-123682000D01*
X136573200Y-116862800D02*
X114224000Y-116862800D01*
X136573200Y-116862800D02*
X136573200Y-95398000D01*
X114224000Y-95398000D02*
X114224000Y-116862800D01*
X114224000Y-95398000D02*
X136573200Y-95398000D01*
D10*
X116202400Y-97457200D02*
X134541200Y-97457200D01*
X134541200Y-97457200D02*
X134541200Y-115186400D01*
X134541200Y-115186400D02*
X116202400Y-115186400D01*
X116202400Y-115186400D02*
X116202400Y-97457200D01*
D11*
X155384000Y-91398000D02*
X155384000Y-91778000D01*
X154964000Y-91398000D02*
X155384000Y-91398000D01*
X154964000Y-73158000D02*
X155384000Y-73158000D01*
X154964000Y-91398000D02*
X154964000Y-73158000D01*
X174404000Y-73158000D02*
X174404000Y-74158000D01*
X173784000Y-73158000D02*
X174404000Y-73158000D01*
X174404000Y-91398000D02*
X174404000Y-90398000D01*
X173784000Y-91398000D02*
X174404000Y-91398000D01*
M02*
