M48
; DRILL file {KiCad 5.99.0-unknown-c3175b4~86~ubuntu16.04.1} date vie 11 oct 2019 06:52:16 CEST
; FORMAT={-:-/ absolute / metric / decimal}
; #@! TF.CreationDate,2019-10-11T06:52:16+02:00
; #@! TF.GenerationSoftware,Kicad,Pcbnew,5.99.0-unknown-c3175b4~86~ubuntu16.04.1
FMAT,2
METRIC
T1C0.400
T2C0.600
T3C0.800
T4C0.900
T5C1.000
T6C1.200
T7C1.520
T8C1.600
T9C2.200
%
G90
G05
T1
X140.208Y-101.092
X145.034Y-79.248
X145.542Y-104.902
X145.542Y-108.966
X145.542Y-113.03
X145.542Y-116.586
X149.096Y-72.896
X149.098Y-87.122
X149.098Y-102.362
X150.025Y-78.925
X154.178Y-75.438
X155.05Y-82.15
X155.05Y-85.925
X155.194Y-88.392
X157.734Y-75.438
X160.909Y-87.884
X161.29Y-92.456
X161.29Y-96.774
X165.85Y-92.6
X167.325Y-92.575
X168.91Y-77.216
X170.942Y-78.15
X170.942Y-79.502
X176.276Y-78.74
X179.525Y-80.4
X179.525Y-81.7
X180.848Y-87.63
X185.225Y-80.925
X186.182Y-107.696
X186.182Y-111.506
X186.725Y-77.05
T2
X105.614Y-106.678
X110.614Y-107.978
T3
X149.044Y-94.598
X149.044Y-104.758
X159.504Y-107.108
X159.504Y-117.268
X130.048Y-118.872
X130.048Y-126.492
X132.588Y-118.872
X132.588Y-126.492
X135.128Y-118.872
X135.128Y-126.492
X173.564Y-94.568
X173.564Y-104.728
X173.534Y-107.138
X173.534Y-117.298
X115.316Y-124.206
X125.476Y-124.206
X163.064Y-94.538
X163.064Y-104.698
X163.044Y-107.118
X163.044Y-117.278
X138.614Y-107.008
X138.614Y-117.168
X152.524Y-94.668
X152.524Y-104.828
X156.004Y-107.118
X156.004Y-117.278
X142.15Y-94.425
X142.15Y-104.585
X177.014Y-107.128
X177.014Y-117.288
X177.184Y-94.468
X177.184Y-104.628
X115.316Y-120.142
X125.476Y-120.142
X169.974Y-107.098
X169.974Y-117.258
X155.974Y-94.598
X155.974Y-104.758
X142.144Y-107.058
X142.144Y-117.218
X180.684Y-94.488
X180.684Y-104.648
X159.484Y-94.608
X159.484Y-104.768
X180.554Y-107.108
X180.554Y-117.268
X166.574Y-94.558
X166.574Y-104.718
X170.084Y-94.478
X170.084Y-104.638
X138.684Y-94.488
X138.684Y-104.648
X166.554Y-107.078
X166.554Y-117.238
X152.524Y-107.118
X152.524Y-117.278
X149.024Y-107.158
X149.024Y-117.318
T4
X117.828Y-98.829
X117.828Y-113.764
X133.119Y-103.706
X133.119Y-108.836
T5
X105.124Y-82.278
X105.124Y-87.278
X134.524Y-77.078
X134.524Y-92.478
X190.55Y-106.9
X190.575Y-102.725
X190.55Y-77.3
X190.625Y-81.375
X105.614Y-100.128
X110.694Y-100.138
X139.874Y-87.188
X144.954Y-87.198
T6
X149.014Y-123.428
X152.514Y-123.428
X156.014Y-123.428
X159.514Y-123.428
X163.014Y-123.428
X166.514Y-123.428
X170.014Y-123.428
X173.514Y-123.428
X177.014Y-123.428
X180.514Y-123.428
T7
X108.458Y-112.168
X108.458Y-117.248
X108.458Y-122.328
T8
X187.125Y-87.575
X187.125Y-91.075
X187.125Y-94.575
T9
X189.738Y-71.882
X189.484Y-128.27
X105.918Y-128.27
X106.172Y-71.882
T0
M30
