%FSLAX45Y45*%
G04 Gerber Fmt 4.5, Leading zero omitted, Abs format (unit mm)*
G04 Created by KiCad (PCBNEW 5.99.0-unknown-c3175b4~86~ubuntu16.04.1) date 2019-10-11 06:52:17*
%MOMM*%
%LPD*%
G04 APERTURE LIST*
%ADD10C,0.050000*%
%ADD11C,0.200000*%
%ADD12C,0.300000*%
G04 APERTURE END LIST*
D10*
X19354800Y-13157200D02*
X19329400Y-6858000D01*
X10160000Y-13157200D02*
X19354800Y-13157200D01*
X10160000Y-6858000D02*
X10160000Y-13157200D01*
X19329400Y-6858000D02*
X10160000Y-6858000D01*
D11*
X14000800Y-10089200D02*
X14040800Y-10129200D01*
X14040800Y-10089200D02*
X14000800Y-10129200D01*
X14483400Y-7904800D02*
X14523400Y-7944800D01*
X14523400Y-7904800D02*
X14483400Y-7944800D01*
X14534200Y-10470200D02*
X14574200Y-10510200D01*
X14574200Y-10470200D02*
X14534200Y-10510200D01*
X14534200Y-10876600D02*
X14574200Y-10916600D01*
X14574200Y-10876600D02*
X14534200Y-10916600D01*
X14534200Y-11283000D02*
X14574200Y-11323000D01*
X14574200Y-11283000D02*
X14534200Y-11323000D01*
X14534200Y-11638600D02*
X14574200Y-11678600D01*
X14574200Y-11638600D02*
X14534200Y-11678600D01*
X14889600Y-7269600D02*
X14929600Y-7309600D01*
X14929600Y-7269600D02*
X14889600Y-7309600D01*
X14889800Y-8692200D02*
X14929800Y-8732200D01*
X14929800Y-8692200D02*
X14889800Y-8732200D01*
X14889800Y-10216200D02*
X14929800Y-10256200D01*
X14929800Y-10216200D02*
X14889800Y-10256200D01*
X14982500Y-7872500D02*
X15022500Y-7912500D01*
X15022500Y-7872500D02*
X14982500Y-7912500D01*
X15397800Y-7523800D02*
X15437800Y-7563800D01*
X15437800Y-7523800D02*
X15397800Y-7563800D01*
X15485000Y-8195000D02*
X15525000Y-8235000D01*
X15525000Y-8195000D02*
X15485000Y-8235000D01*
X15485000Y-8572500D02*
X15525000Y-8612500D01*
X15525000Y-8572500D02*
X15485000Y-8612500D01*
X15499400Y-8819200D02*
X15539400Y-8859200D01*
X15539400Y-8819200D02*
X15499400Y-8859200D01*
X15753400Y-7523800D02*
X15793400Y-7563800D01*
X15793400Y-7523800D02*
X15753400Y-7563800D01*
X16070900Y-8768400D02*
X16110900Y-8808400D01*
X16110900Y-8768400D02*
X16070900Y-8808400D01*
X16109000Y-9225600D02*
X16149000Y-9265600D01*
X16149000Y-9225600D02*
X16109000Y-9265600D01*
X16109000Y-9657400D02*
X16149000Y-9697400D01*
X16149000Y-9657400D02*
X16109000Y-9697400D01*
X16565000Y-9240000D02*
X16605000Y-9280000D01*
X16605000Y-9240000D02*
X16565000Y-9280000D01*
X16712500Y-9237500D02*
X16752500Y-9277500D01*
X16752500Y-9237500D02*
X16712500Y-9277500D01*
X16871000Y-7701600D02*
X16911000Y-7741600D01*
X16911000Y-7701600D02*
X16871000Y-7741600D01*
X17074200Y-7795000D02*
X17114200Y-7835000D01*
X17114200Y-7795000D02*
X17074200Y-7835000D01*
X17074200Y-7930200D02*
X17114200Y-7970200D01*
X17114200Y-7930200D02*
X17074200Y-7970200D01*
X17607600Y-7854000D02*
X17647600Y-7894000D01*
X17647600Y-7854000D02*
X17607600Y-7894000D01*
X17932500Y-8020000D02*
X17972500Y-8060000D01*
X17972500Y-8020000D02*
X17932500Y-8060000D01*
X17932500Y-8150000D02*
X17972500Y-8190000D01*
X17972500Y-8150000D02*
X17932500Y-8190000D01*
X18064800Y-8743000D02*
X18104800Y-8783000D01*
X18104800Y-8743000D02*
X18064800Y-8783000D01*
X18502500Y-8072500D02*
X18542500Y-8112500D01*
X18542500Y-8072500D02*
X18502500Y-8112500D01*
X18598200Y-10749600D02*
X18638200Y-10789600D01*
X18638200Y-10749600D02*
X18598200Y-10789600D01*
X18598200Y-11130600D02*
X18638200Y-11170600D01*
X18638200Y-11130600D02*
X18598200Y-11170600D01*
X18652500Y-7685000D02*
X18692500Y-7725000D01*
X18692500Y-7685000D02*
X18652500Y-7725000D01*
X10591400Y-10667800D02*
G75*
G03X10591400Y-10667800I-30000J0D01*
G01*
X11091400Y-10797800D02*
G75*
G03X11091400Y-10797800I-30000J0D01*
G01*
X14904400Y-9419800D02*
X14904400Y-9499800D01*
X14864400Y-9459800D02*
X14944400Y-9459800D01*
X14904400Y-10435800D02*
X14904400Y-10515800D01*
X14864400Y-10475800D02*
X14944400Y-10475800D01*
X15950400Y-10670800D02*
X15950400Y-10750800D01*
X15910400Y-10710800D02*
X15990400Y-10710800D01*
X15950400Y-11686800D02*
X15950400Y-11766800D01*
X15910400Y-11726800D02*
X15990400Y-11726800D01*
X13004800Y-11847200D02*
X13004800Y-11927200D01*
X12964800Y-11887200D02*
X13044800Y-11887200D01*
X13004800Y-12609200D02*
X13004800Y-12689200D01*
X12964800Y-12649200D02*
X13044800Y-12649200D01*
X13258800Y-11847200D02*
X13258800Y-11927200D01*
X13218800Y-11887200D02*
X13298800Y-11887200D01*
X13258800Y-12609200D02*
X13258800Y-12689200D01*
X13218800Y-12649200D02*
X13298800Y-12649200D01*
X13512800Y-11847200D02*
X13512800Y-11927200D01*
X13472800Y-11887200D02*
X13552800Y-11887200D01*
X13512800Y-12609200D02*
X13512800Y-12689200D01*
X13472800Y-12649200D02*
X13552800Y-12649200D01*
X17356400Y-9416800D02*
X17356400Y-9496800D01*
X17316400Y-9456800D02*
X17396400Y-9456800D01*
X17356400Y-10432800D02*
X17356400Y-10512800D01*
X17316400Y-10472800D02*
X17396400Y-10472800D01*
X17353400Y-10673800D02*
X17353400Y-10753800D01*
X17313400Y-10713800D02*
X17393400Y-10713800D01*
X17353400Y-11689800D02*
X17353400Y-11769800D01*
X17313400Y-11729800D02*
X17393400Y-11729800D01*
X11531600Y-12380600D02*
X11531600Y-12460600D01*
X11491600Y-12420600D02*
X11571600Y-12420600D01*
X12547600Y-12380600D02*
X12547600Y-12460600D01*
X12507600Y-12420600D02*
X12587600Y-12420600D01*
X16306400Y-9413800D02*
X16306400Y-9493800D01*
X16266400Y-9453800D02*
X16346400Y-9453800D01*
X16306400Y-10429800D02*
X16306400Y-10509800D01*
X16266400Y-10469800D02*
X16346400Y-10469800D01*
X16304400Y-10671800D02*
X16304400Y-10751800D01*
X16264400Y-10711800D02*
X16344400Y-10711800D01*
X16304400Y-11687800D02*
X16304400Y-11767800D01*
X16264400Y-11727800D02*
X16344400Y-11727800D01*
X13861400Y-10660800D02*
X13861400Y-10740800D01*
X13821400Y-10700800D02*
X13901400Y-10700800D01*
X13861400Y-11676800D02*
X13861400Y-11756800D01*
X13821400Y-11716800D02*
X13901400Y-11716800D01*
X15252400Y-9426800D02*
X15252400Y-9506800D01*
X15212400Y-9466800D02*
X15292400Y-9466800D01*
X15252400Y-10442800D02*
X15252400Y-10522800D01*
X15212400Y-10482800D02*
X15292400Y-10482800D01*
X15600400Y-10671800D02*
X15600400Y-10751800D01*
X15560400Y-10711800D02*
X15640400Y-10711800D01*
X15600400Y-11687800D02*
X15600400Y-11767800D01*
X15560400Y-11727800D02*
X15640400Y-11727800D01*
X14215000Y-9402500D02*
X14215000Y-9482500D01*
X14175000Y-9442500D02*
X14255000Y-9442500D01*
X14215000Y-10418500D02*
X14215000Y-10498500D01*
X14175000Y-10458500D02*
X14255000Y-10458500D01*
X17701400Y-10672800D02*
X17701400Y-10752800D01*
X17661400Y-10712800D02*
X17741400Y-10712800D01*
X17701400Y-11688800D02*
X17701400Y-11768800D01*
X17661400Y-11728800D02*
X17741400Y-11728800D01*
X17718400Y-9406800D02*
X17718400Y-9486800D01*
X17678400Y-9446800D02*
X17758400Y-9446800D01*
X17718400Y-10422800D02*
X17718400Y-10502800D01*
X17678400Y-10462800D02*
X17758400Y-10462800D01*
X11531600Y-11974200D02*
X11531600Y-12054200D01*
X11491600Y-12014200D02*
X11571600Y-12014200D01*
X12547600Y-11974200D02*
X12547600Y-12054200D01*
X12507600Y-12014200D02*
X12587600Y-12014200D01*
X16997400Y-10669800D02*
X16997400Y-10749800D01*
X16957400Y-10709800D02*
X17037400Y-10709800D01*
X16997400Y-11685800D02*
X16997400Y-11765800D01*
X16957400Y-11725800D02*
X17037400Y-11725800D01*
X15597400Y-9419800D02*
X15597400Y-9499800D01*
X15557400Y-9459800D02*
X15637400Y-9459800D01*
X15597400Y-10435800D02*
X15597400Y-10515800D01*
X15557400Y-10475800D02*
X15637400Y-10475800D01*
X14214400Y-10665800D02*
X14214400Y-10745800D01*
X14174400Y-10705800D02*
X14254400Y-10705800D01*
X14214400Y-11681800D02*
X14214400Y-11761800D01*
X14174400Y-11721800D02*
X14254400Y-11721800D01*
X18068400Y-9408800D02*
X18068400Y-9488800D01*
X18028400Y-9448800D02*
X18108400Y-9448800D01*
X18068400Y-10424800D02*
X18068400Y-10504800D01*
X18028400Y-10464800D02*
X18108400Y-10464800D01*
X15948400Y-9420800D02*
X15948400Y-9500800D01*
X15908400Y-9460800D02*
X15988400Y-9460800D01*
X15948400Y-10436800D02*
X15948400Y-10516800D01*
X15908400Y-10476800D02*
X15988400Y-10476800D01*
X18055400Y-10670800D02*
X18055400Y-10750800D01*
X18015400Y-10710800D02*
X18095400Y-10710800D01*
X18055400Y-11686800D02*
X18055400Y-11766800D01*
X18015400Y-11726800D02*
X18095400Y-11726800D01*
X16657400Y-9415800D02*
X16657400Y-9495800D01*
X16617400Y-9455800D02*
X16697400Y-9455800D01*
X16657400Y-10431800D02*
X16657400Y-10511800D01*
X16617400Y-10471800D02*
X16697400Y-10471800D01*
X17008400Y-9407800D02*
X17008400Y-9487800D01*
X16968400Y-9447800D02*
X17048400Y-9447800D01*
X17008400Y-10423800D02*
X17008400Y-10503800D01*
X16968400Y-10463800D02*
X17048400Y-10463800D01*
X13868400Y-9408800D02*
X13868400Y-9488800D01*
X13828400Y-9448800D02*
X13908400Y-9448800D01*
X13868400Y-10424800D02*
X13868400Y-10504800D01*
X13828400Y-10464800D02*
X13908400Y-10464800D01*
X16655400Y-10667800D02*
X16655400Y-10747800D01*
X16615400Y-10707800D02*
X16695400Y-10707800D01*
X16655400Y-11683800D02*
X16655400Y-11763800D01*
X16615400Y-11723800D02*
X16695400Y-11723800D01*
X15252400Y-10671800D02*
X15252400Y-10751800D01*
X15212400Y-10711800D02*
X15292400Y-10711800D01*
X15252400Y-11687800D02*
X15252400Y-11767800D01*
X15212400Y-11727800D02*
X15292400Y-11727800D01*
X14902400Y-10675800D02*
X14902400Y-10755800D01*
X14862400Y-10715800D02*
X14942400Y-10715800D01*
X14902400Y-11691800D02*
X14902400Y-11771800D01*
X14862400Y-11731800D02*
X14942400Y-11731800D01*
X11814620Y-9914700D02*
X11814620Y-9851060D01*
X11750980Y-9851060D01*
X11750980Y-9914700D01*
X11814620Y-9914700D01*
X11814620Y-11408220D02*
X11814620Y-11344580D01*
X11750980Y-11344580D01*
X11750980Y-11408220D01*
X11814620Y-11408220D01*
X13343700Y-10402380D02*
X13343700Y-10338740D01*
X13280060Y-10338740D01*
X13280060Y-10402380D01*
X13343700Y-10402380D01*
X13343700Y-10915460D02*
X13343700Y-10851820D01*
X13280060Y-10851820D01*
X13280060Y-10915460D01*
X13343700Y-10915460D01*
X10512400Y-8277800D02*
X10562400Y-8227800D01*
X10512400Y-8177800D01*
X10462400Y-8227800D01*
X10512400Y-8277800D01*
X10512400Y-8777800D02*
X10562400Y-8727800D01*
X10512400Y-8677800D01*
X10462400Y-8727800D01*
X10512400Y-8777800D01*
X13452400Y-7757800D02*
X13502400Y-7707800D01*
X13452400Y-7657800D01*
X13402400Y-7707800D01*
X13452400Y-7757800D01*
X13452400Y-9297800D02*
X13502400Y-9247800D01*
X13452400Y-9197800D01*
X13402400Y-9247800D01*
X13452400Y-9297800D01*
X19055000Y-10740000D02*
X19105000Y-10690000D01*
X19055000Y-10640000D01*
X19005000Y-10690000D01*
X19055000Y-10740000D01*
X19057500Y-10322500D02*
X19107500Y-10272500D01*
X19057500Y-10222500D01*
X19007500Y-10272500D01*
X19057500Y-10322500D01*
X19055000Y-7780000D02*
X19105000Y-7730000D01*
X19055000Y-7680000D01*
X19005000Y-7730000D01*
X19055000Y-7780000D01*
X19062500Y-8187500D02*
X19112500Y-8137500D01*
X19062500Y-8087500D01*
X19012500Y-8137500D01*
X19062500Y-8187500D01*
X10561400Y-10062800D02*
X10611400Y-10012800D01*
X10561400Y-9962800D01*
X10511400Y-10012800D01*
X10561400Y-10062800D01*
X11069400Y-10063800D02*
X11119400Y-10013800D01*
X11069400Y-9963800D01*
X11019400Y-10013800D01*
X11069400Y-10063800D01*
X13987400Y-8768800D02*
X14037400Y-8718800D01*
X13987400Y-8668800D01*
X13937400Y-8718800D01*
X13987400Y-8768800D01*
X14495400Y-8769800D02*
X14545400Y-8719800D01*
X14495400Y-8669800D01*
X14445400Y-8719800D01*
X14495400Y-8769800D01*
X14841400Y-12282800D02*
X14961400Y-12402800D01*
X14961400Y-12282800D02*
X14841400Y-12402800D01*
X14961400Y-12342800D02*
G75*
G03X14961400Y-12342800I-60000J0D01*
G01*
X15191400Y-12282800D02*
X15311400Y-12402800D01*
X15311400Y-12282800D02*
X15191400Y-12402800D01*
X15311400Y-12342800D02*
G75*
G03X15311400Y-12342800I-60000J0D01*
G01*
X15541400Y-12282800D02*
X15661400Y-12402800D01*
X15661400Y-12282800D02*
X15541400Y-12402800D01*
X15661400Y-12342800D02*
G75*
G03X15661400Y-12342800I-60000J0D01*
G01*
X15891400Y-12282800D02*
X16011400Y-12402800D01*
X16011400Y-12282800D02*
X15891400Y-12402800D01*
X16011400Y-12342800D02*
G75*
G03X16011400Y-12342800I-60000J0D01*
G01*
X16241400Y-12282800D02*
X16361400Y-12402800D01*
X16361400Y-12282800D02*
X16241400Y-12402800D01*
X16361400Y-12342800D02*
G75*
G03X16361400Y-12342800I-60000J0D01*
G01*
X16591400Y-12282800D02*
X16711400Y-12402800D01*
X16711400Y-12282800D02*
X16591400Y-12402800D01*
X16711400Y-12342800D02*
G75*
G03X16711400Y-12342800I-60000J0D01*
G01*
X16941400Y-12282800D02*
X17061400Y-12402800D01*
X17061400Y-12282800D02*
X16941400Y-12402800D01*
X17061400Y-12342800D02*
G75*
G03X17061400Y-12342800I-60000J0D01*
G01*
X17291400Y-12282800D02*
X17411400Y-12402800D01*
X17411400Y-12282800D02*
X17291400Y-12402800D01*
X17411400Y-12342800D02*
G75*
G03X17411400Y-12342800I-60000J0D01*
G01*
X17641400Y-12282800D02*
X17761400Y-12402800D01*
X17761400Y-12282800D02*
X17641400Y-12402800D01*
X17761400Y-12342800D02*
G75*
G03X17761400Y-12342800I-60000J0D01*
G01*
X17991400Y-12282800D02*
X18111400Y-12402800D01*
X18111400Y-12282800D02*
X17991400Y-12402800D01*
X18111400Y-12342800D02*
G75*
G03X18111400Y-12342800I-60000J0D01*
G01*
X10769800Y-11140800D02*
X10921800Y-11292800D01*
X10921800Y-11140800D02*
X10769800Y-11292800D01*
X10845800Y-11140800D02*
X10845800Y-11292800D01*
X10769800Y-11216800D02*
X10921800Y-11216800D01*
X10769800Y-11648800D02*
X10921800Y-11800800D01*
X10921800Y-11648800D02*
X10769800Y-11800800D01*
X10845800Y-11648800D02*
X10845800Y-11800800D01*
X10769800Y-11724800D02*
X10921800Y-11724800D01*
X10769800Y-12156800D02*
X10921800Y-12308800D01*
X10921800Y-12156800D02*
X10769800Y-12308800D01*
X10845800Y-12156800D02*
X10845800Y-12308800D01*
X10769800Y-12232800D02*
X10921800Y-12232800D01*
X18632500Y-8677500D02*
X18792500Y-8837500D01*
X18792500Y-8677500D02*
X18632500Y-8837500D01*
X18769069Y-8814069D02*
X18769069Y-8700931D01*
X18655931Y-8700931D01*
X18655931Y-8814069D01*
X18769069Y-8814069D01*
X18632500Y-9027500D02*
X18792500Y-9187500D01*
X18792500Y-9027500D02*
X18632500Y-9187500D01*
X18769069Y-9164069D02*
X18769069Y-9050931D01*
X18655931Y-9050931D01*
X18655931Y-9164069D01*
X18769069Y-9164069D01*
X18632500Y-9377500D02*
X18792500Y-9537500D01*
X18792500Y-9377500D02*
X18632500Y-9537500D01*
X18769069Y-9514069D02*
X18769069Y-9400931D01*
X18655931Y-9400931D01*
X18655931Y-9514069D01*
X18769069Y-9514069D01*
X18863800Y-7078200D02*
X19083800Y-7298200D01*
X19083800Y-7078200D02*
X18863800Y-7298200D01*
X18973800Y-7298200D02*
X19083800Y-7188200D01*
X18973800Y-7078200D01*
X18863800Y-7188200D01*
X18973800Y-7298200D01*
X18838400Y-12717000D02*
X19058400Y-12937000D01*
X19058400Y-12717000D02*
X18838400Y-12937000D01*
X18948400Y-12937000D02*
X19058400Y-12827000D01*
X18948400Y-12717000D01*
X18838400Y-12827000D01*
X18948400Y-12937000D01*
X10481800Y-12717000D02*
X10701800Y-12937000D01*
X10701800Y-12717000D02*
X10481800Y-12937000D01*
X10591800Y-12937000D02*
X10701800Y-12827000D01*
X10591800Y-12717000D01*
X10481800Y-12827000D01*
X10591800Y-12937000D01*
X10507200Y-7078200D02*
X10727200Y-7298200D01*
X10727200Y-7078200D02*
X10507200Y-7298200D01*
X10617200Y-7298200D02*
X10727200Y-7188200D01*
X10617200Y-7078200D01*
X10507200Y-7188200D01*
X10617200Y-7298200D01*
D12*
X10443928Y-13625414D02*
X10443928Y-13325414D01*
X10515357Y-13325414D01*
X10558214Y-13339700D01*
X10586786Y-13368271D01*
X10601071Y-13396843D01*
X10615357Y-13453986D01*
X10615357Y-13496843D01*
X10601071Y-13553986D01*
X10586786Y-13582557D01*
X10558214Y-13611129D01*
X10515357Y-13625414D01*
X10443928Y-13625414D01*
X10743928Y-13625414D02*
X10743928Y-13425414D01*
X10743928Y-13482557D02*
X10758214Y-13453986D01*
X10772500Y-13439700D01*
X10801071Y-13425414D01*
X10829643Y-13425414D01*
X10929643Y-13625414D02*
X10929643Y-13425414D01*
X10929643Y-13325414D02*
X10915357Y-13339700D01*
X10929643Y-13353986D01*
X10943928Y-13339700D01*
X10929643Y-13325414D01*
X10929643Y-13353986D01*
X11115357Y-13625414D02*
X11086786Y-13611129D01*
X11072500Y-13582557D01*
X11072500Y-13325414D01*
X11272500Y-13625414D02*
X11243928Y-13611129D01*
X11229643Y-13582557D01*
X11229643Y-13325414D01*
X11615357Y-13625414D02*
X11615357Y-13325414D01*
X11715357Y-13539700D01*
X11815357Y-13325414D01*
X11815357Y-13625414D01*
X12086786Y-13625414D02*
X12086786Y-13468271D01*
X12072500Y-13439700D01*
X12043928Y-13425414D01*
X11986786Y-13425414D01*
X11958214Y-13439700D01*
X12086786Y-13611129D02*
X12058214Y-13625414D01*
X11986786Y-13625414D01*
X11958214Y-13611129D01*
X11943928Y-13582557D01*
X11943928Y-13553986D01*
X11958214Y-13525414D01*
X11986786Y-13511129D01*
X12058214Y-13511129D01*
X12086786Y-13496843D01*
X12229643Y-13425414D02*
X12229643Y-13725414D01*
X12229643Y-13439700D02*
X12258214Y-13425414D01*
X12315357Y-13425414D01*
X12343928Y-13439700D01*
X12358214Y-13453986D01*
X12372500Y-13482557D01*
X12372500Y-13568271D01*
X12358214Y-13596843D01*
X12343928Y-13611129D01*
X12315357Y-13625414D01*
X12258214Y-13625414D01*
X12229643Y-13611129D01*
X12501071Y-13596843D02*
X12515357Y-13611129D01*
X12501071Y-13625414D01*
X12486786Y-13611129D01*
X12501071Y-13596843D01*
X12501071Y-13625414D01*
X12501071Y-13439700D02*
X12515357Y-13453986D01*
X12501071Y-13468271D01*
X12486786Y-13453986D01*
X12501071Y-13439700D01*
X12501071Y-13468271D01*
X10117500Y-14099700D02*
X10157500Y-14139700D01*
X10157500Y-14099700D02*
X10117500Y-14139700D01*
X10501071Y-13955414D02*
X10529643Y-13955414D01*
X10558214Y-13969700D01*
X10572500Y-13983986D01*
X10586786Y-14012557D01*
X10601071Y-14069700D01*
X10601071Y-14141129D01*
X10586786Y-14198271D01*
X10572500Y-14226843D01*
X10558214Y-14241129D01*
X10529643Y-14255414D01*
X10501071Y-14255414D01*
X10472500Y-14241129D01*
X10458214Y-14226843D01*
X10443928Y-14198271D01*
X10429643Y-14141129D01*
X10429643Y-14069700D01*
X10443928Y-14012557D01*
X10458214Y-13983986D01*
X10472500Y-13969700D01*
X10501071Y-13955414D01*
X10729643Y-14226843D02*
X10743928Y-14241129D01*
X10729643Y-14255414D01*
X10715357Y-14241129D01*
X10729643Y-14226843D01*
X10729643Y-14255414D01*
X11001071Y-14055414D02*
X11001071Y-14255414D01*
X10929643Y-13941129D02*
X10858214Y-14155414D01*
X11043928Y-14155414D01*
X11215357Y-13955414D02*
X11243928Y-13955414D01*
X11272500Y-13969700D01*
X11286786Y-13983986D01*
X11301071Y-14012557D01*
X11315357Y-14069700D01*
X11315357Y-14141129D01*
X11301071Y-14198271D01*
X11286786Y-14226843D01*
X11272500Y-14241129D01*
X11243928Y-14255414D01*
X11215357Y-14255414D01*
X11186786Y-14241129D01*
X11172500Y-14226843D01*
X11158214Y-14198271D01*
X11143928Y-14141129D01*
X11143928Y-14069700D01*
X11158214Y-14012557D01*
X11172500Y-13983986D01*
X11186786Y-13969700D01*
X11215357Y-13955414D01*
X11443928Y-14255414D02*
X11443928Y-14055414D01*
X11443928Y-14083986D02*
X11458214Y-14069700D01*
X11486786Y-14055414D01*
X11529643Y-14055414D01*
X11558214Y-14069700D01*
X11572500Y-14098271D01*
X11572500Y-14255414D01*
X11572500Y-14098271D02*
X11586786Y-14069700D01*
X11615357Y-14055414D01*
X11658214Y-14055414D01*
X11686786Y-14069700D01*
X11701071Y-14098271D01*
X11701071Y-14255414D01*
X11843928Y-14255414D02*
X11843928Y-14055414D01*
X11843928Y-14083986D02*
X11858214Y-14069700D01*
X11886786Y-14055414D01*
X11929643Y-14055414D01*
X11958214Y-14069700D01*
X11972500Y-14098271D01*
X11972500Y-14255414D01*
X11972500Y-14098271D02*
X11986786Y-14069700D01*
X12015357Y-14055414D01*
X12058214Y-14055414D01*
X12086786Y-14069700D01*
X12101071Y-14098271D01*
X12101071Y-14255414D01*
X12686786Y-13941129D02*
X12429643Y-14326843D01*
X13072500Y-13955414D02*
X13101071Y-13955414D01*
X13129643Y-13969700D01*
X13143928Y-13983986D01*
X13158214Y-14012557D01*
X13172500Y-14069700D01*
X13172500Y-14141129D01*
X13158214Y-14198271D01*
X13143928Y-14226843D01*
X13129643Y-14241129D01*
X13101071Y-14255414D01*
X13072500Y-14255414D01*
X13043928Y-14241129D01*
X13029643Y-14226843D01*
X13015357Y-14198271D01*
X13001071Y-14141129D01*
X13001071Y-14069700D01*
X13015357Y-14012557D01*
X13029643Y-13983986D01*
X13043928Y-13969700D01*
X13072500Y-13955414D01*
X13301071Y-14226843D02*
X13315357Y-14241129D01*
X13301071Y-14255414D01*
X13286786Y-14241129D01*
X13301071Y-14226843D01*
X13301071Y-14255414D01*
X13501071Y-13955414D02*
X13529643Y-13955414D01*
X13558214Y-13969700D01*
X13572500Y-13983986D01*
X13586786Y-14012557D01*
X13601071Y-14069700D01*
X13601071Y-14141129D01*
X13586786Y-14198271D01*
X13572500Y-14226843D01*
X13558214Y-14241129D01*
X13529643Y-14255414D01*
X13501071Y-14255414D01*
X13472500Y-14241129D01*
X13458214Y-14226843D01*
X13443928Y-14198271D01*
X13429643Y-14141129D01*
X13429643Y-14069700D01*
X13443928Y-14012557D01*
X13458214Y-13983986D01*
X13472500Y-13969700D01*
X13501071Y-13955414D01*
X13886786Y-14255414D02*
X13715357Y-14255414D01*
X13801071Y-14255414D02*
X13801071Y-13955414D01*
X13772500Y-13998271D01*
X13743928Y-14026843D01*
X13715357Y-14041129D01*
X14143928Y-13955414D02*
X14086786Y-13955414D01*
X14058214Y-13969700D01*
X14043928Y-13983986D01*
X14015357Y-14026843D01*
X14001071Y-14083986D01*
X14001071Y-14198271D01*
X14015357Y-14226843D01*
X14029643Y-14241129D01*
X14058214Y-14255414D01*
X14115357Y-14255414D01*
X14143928Y-14241129D01*
X14158214Y-14226843D01*
X14172500Y-14198271D01*
X14172500Y-14126843D01*
X14158214Y-14098271D01*
X14143928Y-14083986D01*
X14115357Y-14069700D01*
X14058214Y-14069700D01*
X14029643Y-14083986D01*
X14015357Y-14098271D01*
X14001071Y-14126843D01*
X14286786Y-13955414D02*
X14286786Y-14012557D01*
X14401071Y-13955414D02*
X14401071Y-14012557D01*
X14843928Y-14369700D02*
X14829643Y-14355414D01*
X14801071Y-14312557D01*
X14786786Y-14283986D01*
X14772500Y-14241129D01*
X14758214Y-14169700D01*
X14758214Y-14112557D01*
X14772500Y-14041129D01*
X14786786Y-13998271D01*
X14801071Y-13969700D01*
X14829643Y-13926843D01*
X14843928Y-13912557D01*
X14929643Y-13955414D02*
X15115357Y-13955414D01*
X15015357Y-14069700D01*
X15058214Y-14069700D01*
X15086786Y-14083986D01*
X15101071Y-14098271D01*
X15115357Y-14126843D01*
X15115357Y-14198271D01*
X15101071Y-14226843D01*
X15086786Y-14241129D01*
X15058214Y-14255414D01*
X14972500Y-14255414D01*
X14943928Y-14241129D01*
X14929643Y-14226843D01*
X15401071Y-14255414D02*
X15229643Y-14255414D01*
X15315357Y-14255414D02*
X15315357Y-13955414D01*
X15286786Y-13998271D01*
X15258214Y-14026843D01*
X15229643Y-14041129D01*
X15758214Y-14255414D02*
X15758214Y-13955414D01*
X15886786Y-14255414D02*
X15886786Y-14098271D01*
X15872500Y-14069700D01*
X15843928Y-14055414D01*
X15801071Y-14055414D01*
X15772500Y-14069700D01*
X15758214Y-14083986D01*
X16072500Y-14255414D02*
X16043928Y-14241129D01*
X16029643Y-14226843D01*
X16015357Y-14198271D01*
X16015357Y-14112557D01*
X16029643Y-14083986D01*
X16043928Y-14069700D01*
X16072500Y-14055414D01*
X16115357Y-14055414D01*
X16143928Y-14069700D01*
X16158214Y-14083986D01*
X16172500Y-14112557D01*
X16172500Y-14198271D01*
X16158214Y-14226843D01*
X16143928Y-14241129D01*
X16115357Y-14255414D01*
X16072500Y-14255414D01*
X16343928Y-14255414D02*
X16315357Y-14241129D01*
X16301071Y-14212557D01*
X16301071Y-13955414D01*
X16572500Y-14241129D02*
X16543928Y-14255414D01*
X16486786Y-14255414D01*
X16458214Y-14241129D01*
X16443928Y-14212557D01*
X16443928Y-14098271D01*
X16458214Y-14069700D01*
X16486786Y-14055414D01*
X16543928Y-14055414D01*
X16572500Y-14069700D01*
X16586786Y-14098271D01*
X16586786Y-14126843D01*
X16443928Y-14155414D01*
X16701071Y-14241129D02*
X16729643Y-14255414D01*
X16786786Y-14255414D01*
X16815357Y-14241129D01*
X16829643Y-14212557D01*
X16829643Y-14198271D01*
X16815357Y-14169700D01*
X16786786Y-14155414D01*
X16743928Y-14155414D01*
X16715357Y-14141129D01*
X16701071Y-14112557D01*
X16701071Y-14098271D01*
X16715357Y-14069700D01*
X16743928Y-14055414D01*
X16786786Y-14055414D01*
X16815357Y-14069700D01*
X16929643Y-14369700D02*
X16943928Y-14355414D01*
X16972500Y-14312557D01*
X16986786Y-14283986D01*
X17001071Y-14241129D01*
X17015357Y-14169700D01*
X17015357Y-14112557D01*
X17001071Y-14041129D01*
X16986786Y-13998271D01*
X16972500Y-13969700D01*
X16943928Y-13926843D01*
X16929643Y-13912557D01*
X10157500Y-14515700D02*
G75*
G03X10157500Y-14515700I-30000J0D01*
G01*
X10501071Y-14351414D02*
X10529643Y-14351414D01*
X10558214Y-14365700D01*
X10572500Y-14379986D01*
X10586786Y-14408557D01*
X10601071Y-14465700D01*
X10601071Y-14537129D01*
X10586786Y-14594271D01*
X10572500Y-14622843D01*
X10558214Y-14637129D01*
X10529643Y-14651414D01*
X10501071Y-14651414D01*
X10472500Y-14637129D01*
X10458214Y-14622843D01*
X10443928Y-14594271D01*
X10429643Y-14537129D01*
X10429643Y-14465700D01*
X10443928Y-14408557D01*
X10458214Y-14379986D01*
X10472500Y-14365700D01*
X10501071Y-14351414D01*
X10729643Y-14622843D02*
X10743928Y-14637129D01*
X10729643Y-14651414D01*
X10715357Y-14637129D01*
X10729643Y-14622843D01*
X10729643Y-14651414D01*
X11001071Y-14351414D02*
X10943928Y-14351414D01*
X10915357Y-14365700D01*
X10901071Y-14379986D01*
X10872500Y-14422843D01*
X10858214Y-14479986D01*
X10858214Y-14594271D01*
X10872500Y-14622843D01*
X10886786Y-14637129D01*
X10915357Y-14651414D01*
X10972500Y-14651414D01*
X11001071Y-14637129D01*
X11015357Y-14622843D01*
X11029643Y-14594271D01*
X11029643Y-14522843D01*
X11015357Y-14494271D01*
X11001071Y-14479986D01*
X10972500Y-14465700D01*
X10915357Y-14465700D01*
X10886786Y-14479986D01*
X10872500Y-14494271D01*
X10858214Y-14522843D01*
X11215357Y-14351414D02*
X11243928Y-14351414D01*
X11272500Y-14365700D01*
X11286786Y-14379986D01*
X11301071Y-14408557D01*
X11315357Y-14465700D01*
X11315357Y-14537129D01*
X11301071Y-14594271D01*
X11286786Y-14622843D01*
X11272500Y-14637129D01*
X11243928Y-14651414D01*
X11215357Y-14651414D01*
X11186786Y-14637129D01*
X11172500Y-14622843D01*
X11158214Y-14594271D01*
X11143928Y-14537129D01*
X11143928Y-14465700D01*
X11158214Y-14408557D01*
X11172500Y-14379986D01*
X11186786Y-14365700D01*
X11215357Y-14351414D01*
X11443928Y-14651414D02*
X11443928Y-14451414D01*
X11443928Y-14479986D02*
X11458214Y-14465700D01*
X11486786Y-14451414D01*
X11529643Y-14451414D01*
X11558214Y-14465700D01*
X11572500Y-14494271D01*
X11572500Y-14651414D01*
X11572500Y-14494271D02*
X11586786Y-14465700D01*
X11615357Y-14451414D01*
X11658214Y-14451414D01*
X11686786Y-14465700D01*
X11701071Y-14494271D01*
X11701071Y-14651414D01*
X11843928Y-14651414D02*
X11843928Y-14451414D01*
X11843928Y-14479986D02*
X11858214Y-14465700D01*
X11886786Y-14451414D01*
X11929643Y-14451414D01*
X11958214Y-14465700D01*
X11972500Y-14494271D01*
X11972500Y-14651414D01*
X11972500Y-14494271D02*
X11986786Y-14465700D01*
X12015357Y-14451414D01*
X12058214Y-14451414D01*
X12086786Y-14465700D01*
X12101071Y-14494271D01*
X12101071Y-14651414D01*
X12686786Y-14337129D02*
X12429643Y-14722843D01*
X13072500Y-14351414D02*
X13101071Y-14351414D01*
X13129643Y-14365700D01*
X13143928Y-14379986D01*
X13158214Y-14408557D01*
X13172500Y-14465700D01*
X13172500Y-14537129D01*
X13158214Y-14594271D01*
X13143928Y-14622843D01*
X13129643Y-14637129D01*
X13101071Y-14651414D01*
X13072500Y-14651414D01*
X13043928Y-14637129D01*
X13029643Y-14622843D01*
X13015357Y-14594271D01*
X13001071Y-14537129D01*
X13001071Y-14465700D01*
X13015357Y-14408557D01*
X13029643Y-14379986D01*
X13043928Y-14365700D01*
X13072500Y-14351414D01*
X13301071Y-14622843D02*
X13315357Y-14637129D01*
X13301071Y-14651414D01*
X13286786Y-14637129D01*
X13301071Y-14622843D01*
X13301071Y-14651414D01*
X13501071Y-14351414D02*
X13529643Y-14351414D01*
X13558214Y-14365700D01*
X13572500Y-14379986D01*
X13586786Y-14408557D01*
X13601071Y-14465700D01*
X13601071Y-14537129D01*
X13586786Y-14594271D01*
X13572500Y-14622843D01*
X13558214Y-14637129D01*
X13529643Y-14651414D01*
X13501071Y-14651414D01*
X13472500Y-14637129D01*
X13458214Y-14622843D01*
X13443928Y-14594271D01*
X13429643Y-14537129D01*
X13429643Y-14465700D01*
X13443928Y-14408557D01*
X13458214Y-14379986D01*
X13472500Y-14365700D01*
X13501071Y-14351414D01*
X13715357Y-14379986D02*
X13729643Y-14365700D01*
X13758214Y-14351414D01*
X13829643Y-14351414D01*
X13858214Y-14365700D01*
X13872500Y-14379986D01*
X13886786Y-14408557D01*
X13886786Y-14437129D01*
X13872500Y-14479986D01*
X13701071Y-14651414D01*
X13886786Y-14651414D01*
X14143928Y-14451414D02*
X14143928Y-14651414D01*
X14072500Y-14337129D02*
X14001071Y-14551414D01*
X14186786Y-14551414D01*
X14286786Y-14351414D02*
X14286786Y-14408557D01*
X14401071Y-14351414D02*
X14401071Y-14408557D01*
X14843928Y-14765700D02*
X14829643Y-14751414D01*
X14801071Y-14708557D01*
X14786786Y-14679986D01*
X14772500Y-14637129D01*
X14758214Y-14565700D01*
X14758214Y-14508557D01*
X14772500Y-14437129D01*
X14786786Y-14394271D01*
X14801071Y-14365700D01*
X14829643Y-14322843D01*
X14843928Y-14308557D01*
X14943928Y-14379986D02*
X14958214Y-14365700D01*
X14986786Y-14351414D01*
X15058214Y-14351414D01*
X15086786Y-14365700D01*
X15101071Y-14379986D01*
X15115357Y-14408557D01*
X15115357Y-14437129D01*
X15101071Y-14479986D01*
X14929643Y-14651414D01*
X15115357Y-14651414D01*
X15472500Y-14651414D02*
X15472500Y-14351414D01*
X15601071Y-14651414D02*
X15601071Y-14494271D01*
X15586786Y-14465700D01*
X15558214Y-14451414D01*
X15515357Y-14451414D01*
X15486786Y-14465700D01*
X15472500Y-14479986D01*
X15786786Y-14651414D02*
X15758214Y-14637129D01*
X15743928Y-14622843D01*
X15729643Y-14594271D01*
X15729643Y-14508557D01*
X15743928Y-14479986D01*
X15758214Y-14465700D01*
X15786786Y-14451414D01*
X15829643Y-14451414D01*
X15858214Y-14465700D01*
X15872500Y-14479986D01*
X15886786Y-14508557D01*
X15886786Y-14594271D01*
X15872500Y-14622843D01*
X15858214Y-14637129D01*
X15829643Y-14651414D01*
X15786786Y-14651414D01*
X16058214Y-14651414D02*
X16029643Y-14637129D01*
X16015357Y-14608557D01*
X16015357Y-14351414D01*
X16286786Y-14637129D02*
X16258214Y-14651414D01*
X16201071Y-14651414D01*
X16172500Y-14637129D01*
X16158214Y-14608557D01*
X16158214Y-14494271D01*
X16172500Y-14465700D01*
X16201071Y-14451414D01*
X16258214Y-14451414D01*
X16286786Y-14465700D01*
X16301071Y-14494271D01*
X16301071Y-14522843D01*
X16158214Y-14551414D01*
X16415357Y-14637129D02*
X16443928Y-14651414D01*
X16501071Y-14651414D01*
X16529643Y-14637129D01*
X16543928Y-14608557D01*
X16543928Y-14594271D01*
X16529643Y-14565700D01*
X16501071Y-14551414D01*
X16458214Y-14551414D01*
X16429643Y-14537129D01*
X16415357Y-14508557D01*
X16415357Y-14494271D01*
X16429643Y-14465700D01*
X16458214Y-14451414D01*
X16501071Y-14451414D01*
X16529643Y-14465700D01*
X16643928Y-14765700D02*
X16658214Y-14751414D01*
X16686786Y-14708557D01*
X16701071Y-14679986D01*
X16715357Y-14637129D01*
X16729643Y-14565700D01*
X16729643Y-14508557D01*
X16715357Y-14437129D01*
X16701071Y-14394271D01*
X16686786Y-14365700D01*
X16658214Y-14322843D01*
X16643928Y-14308557D01*
X10117500Y-14871700D02*
X10117500Y-14951700D01*
X10077500Y-14911700D02*
X10157500Y-14911700D01*
X10501071Y-14747414D02*
X10529643Y-14747414D01*
X10558214Y-14761700D01*
X10572500Y-14775986D01*
X10586786Y-14804557D01*
X10601071Y-14861700D01*
X10601071Y-14933129D01*
X10586786Y-14990271D01*
X10572500Y-15018843D01*
X10558214Y-15033129D01*
X10529643Y-15047414D01*
X10501071Y-15047414D01*
X10472500Y-15033129D01*
X10458214Y-15018843D01*
X10443928Y-14990271D01*
X10429643Y-14933129D01*
X10429643Y-14861700D01*
X10443928Y-14804557D01*
X10458214Y-14775986D01*
X10472500Y-14761700D01*
X10501071Y-14747414D01*
X10729643Y-15018843D02*
X10743928Y-15033129D01*
X10729643Y-15047414D01*
X10715357Y-15033129D01*
X10729643Y-15018843D01*
X10729643Y-15047414D01*
X10915357Y-14875986D02*
X10886786Y-14861700D01*
X10872500Y-14847414D01*
X10858214Y-14818843D01*
X10858214Y-14804557D01*
X10872500Y-14775986D01*
X10886786Y-14761700D01*
X10915357Y-14747414D01*
X10972500Y-14747414D01*
X11001071Y-14761700D01*
X11015357Y-14775986D01*
X11029643Y-14804557D01*
X11029643Y-14818843D01*
X11015357Y-14847414D01*
X11001071Y-14861700D01*
X10972500Y-14875986D01*
X10915357Y-14875986D01*
X10886786Y-14890271D01*
X10872500Y-14904557D01*
X10858214Y-14933129D01*
X10858214Y-14990271D01*
X10872500Y-15018843D01*
X10886786Y-15033129D01*
X10915357Y-15047414D01*
X10972500Y-15047414D01*
X11001071Y-15033129D01*
X11015357Y-15018843D01*
X11029643Y-14990271D01*
X11029643Y-14933129D01*
X11015357Y-14904557D01*
X11001071Y-14890271D01*
X10972500Y-14875986D01*
X11215357Y-14747414D02*
X11243928Y-14747414D01*
X11272500Y-14761700D01*
X11286786Y-14775986D01*
X11301071Y-14804557D01*
X11315357Y-14861700D01*
X11315357Y-14933129D01*
X11301071Y-14990271D01*
X11286786Y-15018843D01*
X11272500Y-15033129D01*
X11243928Y-15047414D01*
X11215357Y-15047414D01*
X11186786Y-15033129D01*
X11172500Y-15018843D01*
X11158214Y-14990271D01*
X11143928Y-14933129D01*
X11143928Y-14861700D01*
X11158214Y-14804557D01*
X11172500Y-14775986D01*
X11186786Y-14761700D01*
X11215357Y-14747414D01*
X11443928Y-15047414D02*
X11443928Y-14847414D01*
X11443928Y-14875986D02*
X11458214Y-14861700D01*
X11486786Y-14847414D01*
X11529643Y-14847414D01*
X11558214Y-14861700D01*
X11572500Y-14890271D01*
X11572500Y-15047414D01*
X11572500Y-14890271D02*
X11586786Y-14861700D01*
X11615357Y-14847414D01*
X11658214Y-14847414D01*
X11686786Y-14861700D01*
X11701071Y-14890271D01*
X11701071Y-15047414D01*
X11843928Y-15047414D02*
X11843928Y-14847414D01*
X11843928Y-14875986D02*
X11858214Y-14861700D01*
X11886786Y-14847414D01*
X11929643Y-14847414D01*
X11958214Y-14861700D01*
X11972500Y-14890271D01*
X11972500Y-15047414D01*
X11972500Y-14890271D02*
X11986786Y-14861700D01*
X12015357Y-14847414D01*
X12058214Y-14847414D01*
X12086786Y-14861700D01*
X12101071Y-14890271D01*
X12101071Y-15047414D01*
X12686786Y-14733129D02*
X12429643Y-15118843D01*
X13072500Y-14747414D02*
X13101071Y-14747414D01*
X13129643Y-14761700D01*
X13143928Y-14775986D01*
X13158214Y-14804557D01*
X13172500Y-14861700D01*
X13172500Y-14933129D01*
X13158214Y-14990271D01*
X13143928Y-15018843D01*
X13129643Y-15033129D01*
X13101071Y-15047414D01*
X13072500Y-15047414D01*
X13043928Y-15033129D01*
X13029643Y-15018843D01*
X13015357Y-14990271D01*
X13001071Y-14933129D01*
X13001071Y-14861700D01*
X13015357Y-14804557D01*
X13029643Y-14775986D01*
X13043928Y-14761700D01*
X13072500Y-14747414D01*
X13301071Y-15018843D02*
X13315357Y-15033129D01*
X13301071Y-15047414D01*
X13286786Y-15033129D01*
X13301071Y-15018843D01*
X13301071Y-15047414D01*
X13501071Y-14747414D02*
X13529643Y-14747414D01*
X13558214Y-14761700D01*
X13572500Y-14775986D01*
X13586786Y-14804557D01*
X13601071Y-14861700D01*
X13601071Y-14933129D01*
X13586786Y-14990271D01*
X13572500Y-15018843D01*
X13558214Y-15033129D01*
X13529643Y-15047414D01*
X13501071Y-15047414D01*
X13472500Y-15033129D01*
X13458214Y-15018843D01*
X13443928Y-14990271D01*
X13429643Y-14933129D01*
X13429643Y-14861700D01*
X13443928Y-14804557D01*
X13458214Y-14775986D01*
X13472500Y-14761700D01*
X13501071Y-14747414D01*
X13701071Y-14747414D02*
X13886786Y-14747414D01*
X13786786Y-14861700D01*
X13829643Y-14861700D01*
X13858214Y-14875986D01*
X13872500Y-14890271D01*
X13886786Y-14918843D01*
X13886786Y-14990271D01*
X13872500Y-15018843D01*
X13858214Y-15033129D01*
X13829643Y-15047414D01*
X13743928Y-15047414D01*
X13715357Y-15033129D01*
X13701071Y-15018843D01*
X14172500Y-15047414D02*
X14001071Y-15047414D01*
X14086786Y-15047414D02*
X14086786Y-14747414D01*
X14058214Y-14790271D01*
X14029643Y-14818843D01*
X14001071Y-14833129D01*
X14286786Y-14747414D02*
X14286786Y-14804557D01*
X14401071Y-14747414D02*
X14401071Y-14804557D01*
X14843928Y-15161700D02*
X14829643Y-15147414D01*
X14801071Y-15104557D01*
X14786786Y-15075986D01*
X14772500Y-15033129D01*
X14758214Y-14961700D01*
X14758214Y-14904557D01*
X14772500Y-14833129D01*
X14786786Y-14790271D01*
X14801071Y-14761700D01*
X14829643Y-14718843D01*
X14843928Y-14704557D01*
X15101071Y-14747414D02*
X14958214Y-14747414D01*
X14943928Y-14890271D01*
X14958214Y-14875986D01*
X14986786Y-14861700D01*
X15058214Y-14861700D01*
X15086786Y-14875986D01*
X15101071Y-14890271D01*
X15115357Y-14918843D01*
X15115357Y-14990271D01*
X15101071Y-15018843D01*
X15086786Y-15033129D01*
X15058214Y-15047414D01*
X14986786Y-15047414D01*
X14958214Y-15033129D01*
X14943928Y-15018843D01*
X15286786Y-14875986D02*
X15258214Y-14861700D01*
X15243928Y-14847414D01*
X15229643Y-14818843D01*
X15229643Y-14804557D01*
X15243928Y-14775986D01*
X15258214Y-14761700D01*
X15286786Y-14747414D01*
X15343928Y-14747414D01*
X15372500Y-14761700D01*
X15386786Y-14775986D01*
X15401071Y-14804557D01*
X15401071Y-14818843D01*
X15386786Y-14847414D01*
X15372500Y-14861700D01*
X15343928Y-14875986D01*
X15286786Y-14875986D01*
X15258214Y-14890271D01*
X15243928Y-14904557D01*
X15229643Y-14933129D01*
X15229643Y-14990271D01*
X15243928Y-15018843D01*
X15258214Y-15033129D01*
X15286786Y-15047414D01*
X15343928Y-15047414D01*
X15372500Y-15033129D01*
X15386786Y-15018843D01*
X15401071Y-14990271D01*
X15401071Y-14933129D01*
X15386786Y-14904557D01*
X15372500Y-14890271D01*
X15343928Y-14875986D01*
X15758214Y-15047414D02*
X15758214Y-14747414D01*
X15886786Y-15047414D02*
X15886786Y-14890271D01*
X15872500Y-14861700D01*
X15843928Y-14847414D01*
X15801071Y-14847414D01*
X15772500Y-14861700D01*
X15758214Y-14875986D01*
X16072500Y-15047414D02*
X16043928Y-15033129D01*
X16029643Y-15018843D01*
X16015357Y-14990271D01*
X16015357Y-14904557D01*
X16029643Y-14875986D01*
X16043928Y-14861700D01*
X16072500Y-14847414D01*
X16115357Y-14847414D01*
X16143928Y-14861700D01*
X16158214Y-14875986D01*
X16172500Y-14904557D01*
X16172500Y-14990271D01*
X16158214Y-15018843D01*
X16143928Y-15033129D01*
X16115357Y-15047414D01*
X16072500Y-15047414D01*
X16343928Y-15047414D02*
X16315357Y-15033129D01*
X16301071Y-15004557D01*
X16301071Y-14747414D01*
X16572500Y-15033129D02*
X16543928Y-15047414D01*
X16486786Y-15047414D01*
X16458214Y-15033129D01*
X16443928Y-15004557D01*
X16443928Y-14890271D01*
X16458214Y-14861700D01*
X16486786Y-14847414D01*
X16543928Y-14847414D01*
X16572500Y-14861700D01*
X16586786Y-14890271D01*
X16586786Y-14918843D01*
X16443928Y-14947414D01*
X16701071Y-15033129D02*
X16729643Y-15047414D01*
X16786786Y-15047414D01*
X16815357Y-15033129D01*
X16829643Y-15004557D01*
X16829643Y-14990271D01*
X16815357Y-14961700D01*
X16786786Y-14947414D01*
X16743928Y-14947414D01*
X16715357Y-14933129D01*
X16701071Y-14904557D01*
X16701071Y-14890271D01*
X16715357Y-14861700D01*
X16743928Y-14847414D01*
X16786786Y-14847414D01*
X16815357Y-14861700D01*
X16929643Y-15161700D02*
X16943928Y-15147414D01*
X16972500Y-15104557D01*
X16986786Y-15075986D01*
X17001071Y-15033129D01*
X17015357Y-14961700D01*
X17015357Y-14904557D01*
X17001071Y-14833129D01*
X16986786Y-14790271D01*
X16972500Y-14761700D01*
X16943928Y-14718843D01*
X16929643Y-14704557D01*
X10144320Y-15339520D02*
X10144320Y-15275880D01*
X10080680Y-15275880D01*
X10080680Y-15339520D01*
X10144320Y-15339520D01*
X10501071Y-15143414D02*
X10529643Y-15143414D01*
X10558214Y-15157700D01*
X10572500Y-15171986D01*
X10586786Y-15200557D01*
X10601071Y-15257700D01*
X10601071Y-15329129D01*
X10586786Y-15386271D01*
X10572500Y-15414843D01*
X10558214Y-15429129D01*
X10529643Y-15443414D01*
X10501071Y-15443414D01*
X10472500Y-15429129D01*
X10458214Y-15414843D01*
X10443928Y-15386271D01*
X10429643Y-15329129D01*
X10429643Y-15257700D01*
X10443928Y-15200557D01*
X10458214Y-15171986D01*
X10472500Y-15157700D01*
X10501071Y-15143414D01*
X10729643Y-15414843D02*
X10743928Y-15429129D01*
X10729643Y-15443414D01*
X10715357Y-15429129D01*
X10729643Y-15414843D01*
X10729643Y-15443414D01*
X10886786Y-15443414D02*
X10943928Y-15443414D01*
X10972500Y-15429129D01*
X10986786Y-15414843D01*
X11015357Y-15371986D01*
X11029643Y-15314843D01*
X11029643Y-15200557D01*
X11015357Y-15171986D01*
X11001071Y-15157700D01*
X10972500Y-15143414D01*
X10915357Y-15143414D01*
X10886786Y-15157700D01*
X10872500Y-15171986D01*
X10858214Y-15200557D01*
X10858214Y-15271986D01*
X10872500Y-15300557D01*
X10886786Y-15314843D01*
X10915357Y-15329129D01*
X10972500Y-15329129D01*
X11001071Y-15314843D01*
X11015357Y-15300557D01*
X11029643Y-15271986D01*
X11215357Y-15143414D02*
X11243928Y-15143414D01*
X11272500Y-15157700D01*
X11286786Y-15171986D01*
X11301071Y-15200557D01*
X11315357Y-15257700D01*
X11315357Y-15329129D01*
X11301071Y-15386271D01*
X11286786Y-15414843D01*
X11272500Y-15429129D01*
X11243928Y-15443414D01*
X11215357Y-15443414D01*
X11186786Y-15429129D01*
X11172500Y-15414843D01*
X11158214Y-15386271D01*
X11143928Y-15329129D01*
X11143928Y-15257700D01*
X11158214Y-15200557D01*
X11172500Y-15171986D01*
X11186786Y-15157700D01*
X11215357Y-15143414D01*
X11443928Y-15443414D02*
X11443928Y-15243414D01*
X11443928Y-15271986D02*
X11458214Y-15257700D01*
X11486786Y-15243414D01*
X11529643Y-15243414D01*
X11558214Y-15257700D01*
X11572500Y-15286271D01*
X11572500Y-15443414D01*
X11572500Y-15286271D02*
X11586786Y-15257700D01*
X11615357Y-15243414D01*
X11658214Y-15243414D01*
X11686786Y-15257700D01*
X11701071Y-15286271D01*
X11701071Y-15443414D01*
X11843928Y-15443414D02*
X11843928Y-15243414D01*
X11843928Y-15271986D02*
X11858214Y-15257700D01*
X11886786Y-15243414D01*
X11929643Y-15243414D01*
X11958214Y-15257700D01*
X11972500Y-15286271D01*
X11972500Y-15443414D01*
X11972500Y-15286271D02*
X11986786Y-15257700D01*
X12015357Y-15243414D01*
X12058214Y-15243414D01*
X12086786Y-15257700D01*
X12101071Y-15286271D01*
X12101071Y-15443414D01*
X12686786Y-15129129D02*
X12429643Y-15514843D01*
X13072500Y-15143414D02*
X13101071Y-15143414D01*
X13129643Y-15157700D01*
X13143928Y-15171986D01*
X13158214Y-15200557D01*
X13172500Y-15257700D01*
X13172500Y-15329129D01*
X13158214Y-15386271D01*
X13143928Y-15414843D01*
X13129643Y-15429129D01*
X13101071Y-15443414D01*
X13072500Y-15443414D01*
X13043928Y-15429129D01*
X13029643Y-15414843D01*
X13015357Y-15386271D01*
X13001071Y-15329129D01*
X13001071Y-15257700D01*
X13015357Y-15200557D01*
X13029643Y-15171986D01*
X13043928Y-15157700D01*
X13072500Y-15143414D01*
X13301071Y-15414843D02*
X13315357Y-15429129D01*
X13301071Y-15443414D01*
X13286786Y-15429129D01*
X13301071Y-15414843D01*
X13301071Y-15443414D01*
X13501071Y-15143414D02*
X13529643Y-15143414D01*
X13558214Y-15157700D01*
X13572500Y-15171986D01*
X13586786Y-15200557D01*
X13601071Y-15257700D01*
X13601071Y-15329129D01*
X13586786Y-15386271D01*
X13572500Y-15414843D01*
X13558214Y-15429129D01*
X13529643Y-15443414D01*
X13501071Y-15443414D01*
X13472500Y-15429129D01*
X13458214Y-15414843D01*
X13443928Y-15386271D01*
X13429643Y-15329129D01*
X13429643Y-15257700D01*
X13443928Y-15200557D01*
X13458214Y-15171986D01*
X13472500Y-15157700D01*
X13501071Y-15143414D01*
X13701071Y-15143414D02*
X13886786Y-15143414D01*
X13786786Y-15257700D01*
X13829643Y-15257700D01*
X13858214Y-15271986D01*
X13872500Y-15286271D01*
X13886786Y-15314843D01*
X13886786Y-15386271D01*
X13872500Y-15414843D01*
X13858214Y-15429129D01*
X13829643Y-15443414D01*
X13743928Y-15443414D01*
X13715357Y-15429129D01*
X13701071Y-15414843D01*
X14158214Y-15143414D02*
X14015357Y-15143414D01*
X14001071Y-15286271D01*
X14015357Y-15271986D01*
X14043928Y-15257700D01*
X14115357Y-15257700D01*
X14143928Y-15271986D01*
X14158214Y-15286271D01*
X14172500Y-15314843D01*
X14172500Y-15386271D01*
X14158214Y-15414843D01*
X14143928Y-15429129D01*
X14115357Y-15443414D01*
X14043928Y-15443414D01*
X14015357Y-15429129D01*
X14001071Y-15414843D01*
X14286786Y-15143414D02*
X14286786Y-15200557D01*
X14401071Y-15143414D02*
X14401071Y-15200557D01*
X14843928Y-15557700D02*
X14829643Y-15543414D01*
X14801071Y-15500557D01*
X14786786Y-15471986D01*
X14772500Y-15429129D01*
X14758214Y-15357700D01*
X14758214Y-15300557D01*
X14772500Y-15229129D01*
X14786786Y-15186271D01*
X14801071Y-15157700D01*
X14829643Y-15114843D01*
X14843928Y-15100557D01*
X15086786Y-15243414D02*
X15086786Y-15443414D01*
X15015357Y-15129129D02*
X14943928Y-15343414D01*
X15129643Y-15343414D01*
X15472500Y-15443414D02*
X15472500Y-15143414D01*
X15601071Y-15443414D02*
X15601071Y-15286271D01*
X15586786Y-15257700D01*
X15558214Y-15243414D01*
X15515357Y-15243414D01*
X15486786Y-15257700D01*
X15472500Y-15271986D01*
X15786786Y-15443414D02*
X15758214Y-15429129D01*
X15743928Y-15414843D01*
X15729643Y-15386271D01*
X15729643Y-15300557D01*
X15743928Y-15271986D01*
X15758214Y-15257700D01*
X15786786Y-15243414D01*
X15829643Y-15243414D01*
X15858214Y-15257700D01*
X15872500Y-15271986D01*
X15886786Y-15300557D01*
X15886786Y-15386271D01*
X15872500Y-15414843D01*
X15858214Y-15429129D01*
X15829643Y-15443414D01*
X15786786Y-15443414D01*
X16058214Y-15443414D02*
X16029643Y-15429129D01*
X16015357Y-15400557D01*
X16015357Y-15143414D01*
X16286786Y-15429129D02*
X16258214Y-15443414D01*
X16201071Y-15443414D01*
X16172500Y-15429129D01*
X16158214Y-15400557D01*
X16158214Y-15286271D01*
X16172500Y-15257700D01*
X16201071Y-15243414D01*
X16258214Y-15243414D01*
X16286786Y-15257700D01*
X16301071Y-15286271D01*
X16301071Y-15314843D01*
X16158214Y-15343414D01*
X16415357Y-15429129D02*
X16443928Y-15443414D01*
X16501071Y-15443414D01*
X16529643Y-15429129D01*
X16543928Y-15400557D01*
X16543928Y-15386271D01*
X16529643Y-15357700D01*
X16501071Y-15343414D01*
X16458214Y-15343414D01*
X16429643Y-15329129D01*
X16415357Y-15300557D01*
X16415357Y-15286271D01*
X16429643Y-15257700D01*
X16458214Y-15243414D01*
X16501071Y-15243414D01*
X16529643Y-15257700D01*
X16643928Y-15557700D02*
X16658214Y-15543414D01*
X16686786Y-15500557D01*
X16701071Y-15471986D01*
X16715357Y-15429129D01*
X16729643Y-15357700D01*
X16729643Y-15300557D01*
X16715357Y-15229129D01*
X16701071Y-15186271D01*
X16686786Y-15157700D01*
X16658214Y-15114843D01*
X16643928Y-15100557D01*
X10107500Y-15753700D02*
X10157500Y-15703700D01*
X10107500Y-15653700D01*
X10057500Y-15703700D01*
X10107500Y-15753700D01*
X10601071Y-15839414D02*
X10429643Y-15839414D01*
X10515357Y-15839414D02*
X10515357Y-15539414D01*
X10486786Y-15582271D01*
X10458214Y-15610843D01*
X10429643Y-15625129D01*
X10729643Y-15810843D02*
X10743928Y-15825129D01*
X10729643Y-15839414D01*
X10715357Y-15825129D01*
X10729643Y-15810843D01*
X10729643Y-15839414D01*
X10929643Y-15539414D02*
X10958214Y-15539414D01*
X10986786Y-15553700D01*
X11001071Y-15567986D01*
X11015357Y-15596557D01*
X11029643Y-15653700D01*
X11029643Y-15725129D01*
X11015357Y-15782271D01*
X11001071Y-15810843D01*
X10986786Y-15825129D01*
X10958214Y-15839414D01*
X10929643Y-15839414D01*
X10901071Y-15825129D01*
X10886786Y-15810843D01*
X10872500Y-15782271D01*
X10858214Y-15725129D01*
X10858214Y-15653700D01*
X10872500Y-15596557D01*
X10886786Y-15567986D01*
X10901071Y-15553700D01*
X10929643Y-15539414D01*
X11215357Y-15539414D02*
X11243928Y-15539414D01*
X11272500Y-15553700D01*
X11286786Y-15567986D01*
X11301071Y-15596557D01*
X11315357Y-15653700D01*
X11315357Y-15725129D01*
X11301071Y-15782271D01*
X11286786Y-15810843D01*
X11272500Y-15825129D01*
X11243928Y-15839414D01*
X11215357Y-15839414D01*
X11186786Y-15825129D01*
X11172500Y-15810843D01*
X11158214Y-15782271D01*
X11143928Y-15725129D01*
X11143928Y-15653700D01*
X11158214Y-15596557D01*
X11172500Y-15567986D01*
X11186786Y-15553700D01*
X11215357Y-15539414D01*
X11443928Y-15839414D02*
X11443928Y-15639414D01*
X11443928Y-15667986D02*
X11458214Y-15653700D01*
X11486786Y-15639414D01*
X11529643Y-15639414D01*
X11558214Y-15653700D01*
X11572500Y-15682271D01*
X11572500Y-15839414D01*
X11572500Y-15682271D02*
X11586786Y-15653700D01*
X11615357Y-15639414D01*
X11658214Y-15639414D01*
X11686786Y-15653700D01*
X11701071Y-15682271D01*
X11701071Y-15839414D01*
X11843928Y-15839414D02*
X11843928Y-15639414D01*
X11843928Y-15667986D02*
X11858214Y-15653700D01*
X11886786Y-15639414D01*
X11929643Y-15639414D01*
X11958214Y-15653700D01*
X11972500Y-15682271D01*
X11972500Y-15839414D01*
X11972500Y-15682271D02*
X11986786Y-15653700D01*
X12015357Y-15639414D01*
X12058214Y-15639414D01*
X12086786Y-15653700D01*
X12101071Y-15682271D01*
X12101071Y-15839414D01*
X12686786Y-15525129D02*
X12429643Y-15910843D01*
X13072500Y-15539414D02*
X13101071Y-15539414D01*
X13129643Y-15553700D01*
X13143928Y-15567986D01*
X13158214Y-15596557D01*
X13172500Y-15653700D01*
X13172500Y-15725129D01*
X13158214Y-15782271D01*
X13143928Y-15810843D01*
X13129643Y-15825129D01*
X13101071Y-15839414D01*
X13072500Y-15839414D01*
X13043928Y-15825129D01*
X13029643Y-15810843D01*
X13015357Y-15782271D01*
X13001071Y-15725129D01*
X13001071Y-15653700D01*
X13015357Y-15596557D01*
X13029643Y-15567986D01*
X13043928Y-15553700D01*
X13072500Y-15539414D01*
X13301071Y-15810843D02*
X13315357Y-15825129D01*
X13301071Y-15839414D01*
X13286786Y-15825129D01*
X13301071Y-15810843D01*
X13301071Y-15839414D01*
X13501071Y-15539414D02*
X13529643Y-15539414D01*
X13558214Y-15553700D01*
X13572500Y-15567986D01*
X13586786Y-15596557D01*
X13601071Y-15653700D01*
X13601071Y-15725129D01*
X13586786Y-15782271D01*
X13572500Y-15810843D01*
X13558214Y-15825129D01*
X13529643Y-15839414D01*
X13501071Y-15839414D01*
X13472500Y-15825129D01*
X13458214Y-15810843D01*
X13443928Y-15782271D01*
X13429643Y-15725129D01*
X13429643Y-15653700D01*
X13443928Y-15596557D01*
X13458214Y-15567986D01*
X13472500Y-15553700D01*
X13501071Y-15539414D01*
X13701071Y-15539414D02*
X13886786Y-15539414D01*
X13786786Y-15653700D01*
X13829643Y-15653700D01*
X13858214Y-15667986D01*
X13872500Y-15682271D01*
X13886786Y-15710843D01*
X13886786Y-15782271D01*
X13872500Y-15810843D01*
X13858214Y-15825129D01*
X13829643Y-15839414D01*
X13743928Y-15839414D01*
X13715357Y-15825129D01*
X13701071Y-15810843D01*
X14029643Y-15839414D02*
X14086786Y-15839414D01*
X14115357Y-15825129D01*
X14129643Y-15810843D01*
X14158214Y-15767986D01*
X14172500Y-15710843D01*
X14172500Y-15596557D01*
X14158214Y-15567986D01*
X14143928Y-15553700D01*
X14115357Y-15539414D01*
X14058214Y-15539414D01*
X14029643Y-15553700D01*
X14015357Y-15567986D01*
X14001071Y-15596557D01*
X14001071Y-15667986D01*
X14015357Y-15696557D01*
X14029643Y-15710843D01*
X14058214Y-15725129D01*
X14115357Y-15725129D01*
X14143928Y-15710843D01*
X14158214Y-15696557D01*
X14172500Y-15667986D01*
X14286786Y-15539414D02*
X14286786Y-15596557D01*
X14401071Y-15539414D02*
X14401071Y-15596557D01*
X14843928Y-15953700D02*
X14829643Y-15939414D01*
X14801071Y-15896557D01*
X14786786Y-15867986D01*
X14772500Y-15825129D01*
X14758214Y-15753700D01*
X14758214Y-15696557D01*
X14772500Y-15625129D01*
X14786786Y-15582271D01*
X14801071Y-15553700D01*
X14829643Y-15510843D01*
X14843928Y-15496557D01*
X15115357Y-15839414D02*
X14943928Y-15839414D01*
X15029643Y-15839414D02*
X15029643Y-15539414D01*
X15001071Y-15582271D01*
X14972500Y-15610843D01*
X14943928Y-15625129D01*
X15229643Y-15567986D02*
X15243928Y-15553700D01*
X15272500Y-15539414D01*
X15343928Y-15539414D01*
X15372500Y-15553700D01*
X15386786Y-15567986D01*
X15401071Y-15596557D01*
X15401071Y-15625129D01*
X15386786Y-15667986D01*
X15215357Y-15839414D01*
X15401071Y-15839414D01*
X15758214Y-15839414D02*
X15758214Y-15539414D01*
X15886786Y-15839414D02*
X15886786Y-15682271D01*
X15872500Y-15653700D01*
X15843928Y-15639414D01*
X15801071Y-15639414D01*
X15772500Y-15653700D01*
X15758214Y-15667986D01*
X16072500Y-15839414D02*
X16043928Y-15825129D01*
X16029643Y-15810843D01*
X16015357Y-15782271D01*
X16015357Y-15696557D01*
X16029643Y-15667986D01*
X16043928Y-15653700D01*
X16072500Y-15639414D01*
X16115357Y-15639414D01*
X16143928Y-15653700D01*
X16158214Y-15667986D01*
X16172500Y-15696557D01*
X16172500Y-15782271D01*
X16158214Y-15810843D01*
X16143928Y-15825129D01*
X16115357Y-15839414D01*
X16072500Y-15839414D01*
X16343928Y-15839414D02*
X16315357Y-15825129D01*
X16301071Y-15796557D01*
X16301071Y-15539414D01*
X16572500Y-15825129D02*
X16543928Y-15839414D01*
X16486786Y-15839414D01*
X16458214Y-15825129D01*
X16443928Y-15796557D01*
X16443928Y-15682271D01*
X16458214Y-15653700D01*
X16486786Y-15639414D01*
X16543928Y-15639414D01*
X16572500Y-15653700D01*
X16586786Y-15682271D01*
X16586786Y-15710843D01*
X16443928Y-15739414D01*
X16701071Y-15825129D02*
X16729643Y-15839414D01*
X16786786Y-15839414D01*
X16815357Y-15825129D01*
X16829643Y-15796557D01*
X16829643Y-15782271D01*
X16815357Y-15753700D01*
X16786786Y-15739414D01*
X16743928Y-15739414D01*
X16715357Y-15725129D01*
X16701071Y-15696557D01*
X16701071Y-15682271D01*
X16715357Y-15653700D01*
X16743928Y-15639414D01*
X16786786Y-15639414D01*
X16815357Y-15653700D01*
X16929643Y-15953700D02*
X16943928Y-15939414D01*
X16972500Y-15896557D01*
X16986786Y-15867986D01*
X17001071Y-15825129D01*
X17015357Y-15753700D01*
X17015357Y-15696557D01*
X17001071Y-15625129D01*
X16986786Y-15582271D01*
X16972500Y-15553700D01*
X16943928Y-15510843D01*
X16929643Y-15496557D01*
X10037500Y-16039700D02*
X10157500Y-16159700D01*
X10157500Y-16039700D02*
X10037500Y-16159700D01*
X10157500Y-16099700D02*
G75*
G03X10157500Y-16099700I-60000J0D01*
G01*
X10601071Y-16235414D02*
X10429643Y-16235414D01*
X10515357Y-16235414D02*
X10515357Y-15935414D01*
X10486786Y-15978271D01*
X10458214Y-16006843D01*
X10429643Y-16021129D01*
X10729643Y-16206843D02*
X10743928Y-16221129D01*
X10729643Y-16235414D01*
X10715357Y-16221129D01*
X10729643Y-16206843D01*
X10729643Y-16235414D01*
X10858214Y-15963986D02*
X10872500Y-15949700D01*
X10901071Y-15935414D01*
X10972500Y-15935414D01*
X11001071Y-15949700D01*
X11015357Y-15963986D01*
X11029643Y-15992557D01*
X11029643Y-16021129D01*
X11015357Y-16063986D01*
X10843928Y-16235414D01*
X11029643Y-16235414D01*
X11215357Y-15935414D02*
X11243928Y-15935414D01*
X11272500Y-15949700D01*
X11286786Y-15963986D01*
X11301071Y-15992557D01*
X11315357Y-16049700D01*
X11315357Y-16121129D01*
X11301071Y-16178271D01*
X11286786Y-16206843D01*
X11272500Y-16221129D01*
X11243928Y-16235414D01*
X11215357Y-16235414D01*
X11186786Y-16221129D01*
X11172500Y-16206843D01*
X11158214Y-16178271D01*
X11143928Y-16121129D01*
X11143928Y-16049700D01*
X11158214Y-15992557D01*
X11172500Y-15963986D01*
X11186786Y-15949700D01*
X11215357Y-15935414D01*
X11443928Y-16235414D02*
X11443928Y-16035414D01*
X11443928Y-16063986D02*
X11458214Y-16049700D01*
X11486786Y-16035414D01*
X11529643Y-16035414D01*
X11558214Y-16049700D01*
X11572500Y-16078271D01*
X11572500Y-16235414D01*
X11572500Y-16078271D02*
X11586786Y-16049700D01*
X11615357Y-16035414D01*
X11658214Y-16035414D01*
X11686786Y-16049700D01*
X11701071Y-16078271D01*
X11701071Y-16235414D01*
X11843928Y-16235414D02*
X11843928Y-16035414D01*
X11843928Y-16063986D02*
X11858214Y-16049700D01*
X11886786Y-16035414D01*
X11929643Y-16035414D01*
X11958214Y-16049700D01*
X11972500Y-16078271D01*
X11972500Y-16235414D01*
X11972500Y-16078271D02*
X11986786Y-16049700D01*
X12015357Y-16035414D01*
X12058214Y-16035414D01*
X12086786Y-16049700D01*
X12101071Y-16078271D01*
X12101071Y-16235414D01*
X12686786Y-15921129D02*
X12429643Y-16306843D01*
X13072500Y-15935414D02*
X13101071Y-15935414D01*
X13129643Y-15949700D01*
X13143928Y-15963986D01*
X13158214Y-15992557D01*
X13172500Y-16049700D01*
X13172500Y-16121129D01*
X13158214Y-16178271D01*
X13143928Y-16206843D01*
X13129643Y-16221129D01*
X13101071Y-16235414D01*
X13072500Y-16235414D01*
X13043928Y-16221129D01*
X13029643Y-16206843D01*
X13015357Y-16178271D01*
X13001071Y-16121129D01*
X13001071Y-16049700D01*
X13015357Y-15992557D01*
X13029643Y-15963986D01*
X13043928Y-15949700D01*
X13072500Y-15935414D01*
X13301071Y-16206843D02*
X13315357Y-16221129D01*
X13301071Y-16235414D01*
X13286786Y-16221129D01*
X13301071Y-16206843D01*
X13301071Y-16235414D01*
X13501071Y-15935414D02*
X13529643Y-15935414D01*
X13558214Y-15949700D01*
X13572500Y-15963986D01*
X13586786Y-15992557D01*
X13601071Y-16049700D01*
X13601071Y-16121129D01*
X13586786Y-16178271D01*
X13572500Y-16206843D01*
X13558214Y-16221129D01*
X13529643Y-16235414D01*
X13501071Y-16235414D01*
X13472500Y-16221129D01*
X13458214Y-16206843D01*
X13443928Y-16178271D01*
X13429643Y-16121129D01*
X13429643Y-16049700D01*
X13443928Y-15992557D01*
X13458214Y-15963986D01*
X13472500Y-15949700D01*
X13501071Y-15935414D01*
X13858214Y-16035414D02*
X13858214Y-16235414D01*
X13786786Y-15921129D02*
X13715357Y-16135414D01*
X13901071Y-16135414D01*
X13986786Y-15935414D02*
X14186786Y-15935414D01*
X14058214Y-16235414D01*
X14286786Y-15935414D02*
X14286786Y-15992557D01*
X14401071Y-15935414D02*
X14401071Y-15992557D01*
X14843928Y-16349700D02*
X14829643Y-16335414D01*
X14801071Y-16292557D01*
X14786786Y-16263986D01*
X14772500Y-16221129D01*
X14758214Y-16149700D01*
X14758214Y-16092557D01*
X14772500Y-16021129D01*
X14786786Y-15978271D01*
X14801071Y-15949700D01*
X14829643Y-15906843D01*
X14843928Y-15892557D01*
X15115357Y-16235414D02*
X14943928Y-16235414D01*
X15029643Y-16235414D02*
X15029643Y-15935414D01*
X15001071Y-15978271D01*
X14972500Y-16006843D01*
X14943928Y-16021129D01*
X15301071Y-15935414D02*
X15329643Y-15935414D01*
X15358214Y-15949700D01*
X15372500Y-15963986D01*
X15386786Y-15992557D01*
X15401071Y-16049700D01*
X15401071Y-16121129D01*
X15386786Y-16178271D01*
X15372500Y-16206843D01*
X15358214Y-16221129D01*
X15329643Y-16235414D01*
X15301071Y-16235414D01*
X15272500Y-16221129D01*
X15258214Y-16206843D01*
X15243928Y-16178271D01*
X15229643Y-16121129D01*
X15229643Y-16049700D01*
X15243928Y-15992557D01*
X15258214Y-15963986D01*
X15272500Y-15949700D01*
X15301071Y-15935414D01*
X15758214Y-16235414D02*
X15758214Y-15935414D01*
X15886786Y-16235414D02*
X15886786Y-16078271D01*
X15872500Y-16049700D01*
X15843928Y-16035414D01*
X15801071Y-16035414D01*
X15772500Y-16049700D01*
X15758214Y-16063986D01*
X16072500Y-16235414D02*
X16043928Y-16221129D01*
X16029643Y-16206843D01*
X16015357Y-16178271D01*
X16015357Y-16092557D01*
X16029643Y-16063986D01*
X16043928Y-16049700D01*
X16072500Y-16035414D01*
X16115357Y-16035414D01*
X16143928Y-16049700D01*
X16158214Y-16063986D01*
X16172500Y-16092557D01*
X16172500Y-16178271D01*
X16158214Y-16206843D01*
X16143928Y-16221129D01*
X16115357Y-16235414D01*
X16072500Y-16235414D01*
X16343928Y-16235414D02*
X16315357Y-16221129D01*
X16301071Y-16192557D01*
X16301071Y-15935414D01*
X16572500Y-16221129D02*
X16543928Y-16235414D01*
X16486786Y-16235414D01*
X16458214Y-16221129D01*
X16443928Y-16192557D01*
X16443928Y-16078271D01*
X16458214Y-16049700D01*
X16486786Y-16035414D01*
X16543928Y-16035414D01*
X16572500Y-16049700D01*
X16586786Y-16078271D01*
X16586786Y-16106843D01*
X16443928Y-16135414D01*
X16701071Y-16221129D02*
X16729643Y-16235414D01*
X16786786Y-16235414D01*
X16815357Y-16221129D01*
X16829643Y-16192557D01*
X16829643Y-16178271D01*
X16815357Y-16149700D01*
X16786786Y-16135414D01*
X16743928Y-16135414D01*
X16715357Y-16121129D01*
X16701071Y-16092557D01*
X16701071Y-16078271D01*
X16715357Y-16049700D01*
X16743928Y-16035414D01*
X16786786Y-16035414D01*
X16815357Y-16049700D01*
X16929643Y-16349700D02*
X16943928Y-16335414D01*
X16972500Y-16292557D01*
X16986786Y-16263986D01*
X17001071Y-16221129D01*
X17015357Y-16149700D01*
X17015357Y-16092557D01*
X17001071Y-16021129D01*
X16986786Y-15978271D01*
X16972500Y-15949700D01*
X16943928Y-15906843D01*
X16929643Y-15892557D01*
X10005500Y-16419700D02*
X10157500Y-16571700D01*
X10157500Y-16419700D02*
X10005500Y-16571700D01*
X10081500Y-16419700D02*
X10081500Y-16571700D01*
X10005500Y-16495700D02*
X10157500Y-16495700D01*
X10601071Y-16631414D02*
X10429643Y-16631414D01*
X10515357Y-16631414D02*
X10515357Y-16331414D01*
X10486786Y-16374271D01*
X10458214Y-16402843D01*
X10429643Y-16417129D01*
X10729643Y-16602843D02*
X10743928Y-16617129D01*
X10729643Y-16631414D01*
X10715357Y-16617129D01*
X10729643Y-16602843D01*
X10729643Y-16631414D01*
X11015357Y-16331414D02*
X10872500Y-16331414D01*
X10858214Y-16474271D01*
X10872500Y-16459986D01*
X10901071Y-16445700D01*
X10972500Y-16445700D01*
X11001071Y-16459986D01*
X11015357Y-16474271D01*
X11029643Y-16502843D01*
X11029643Y-16574271D01*
X11015357Y-16602843D01*
X11001071Y-16617129D01*
X10972500Y-16631414D01*
X10901071Y-16631414D01*
X10872500Y-16617129D01*
X10858214Y-16602843D01*
X11143928Y-16359986D02*
X11158214Y-16345700D01*
X11186786Y-16331414D01*
X11258214Y-16331414D01*
X11286786Y-16345700D01*
X11301071Y-16359986D01*
X11315357Y-16388557D01*
X11315357Y-16417129D01*
X11301071Y-16459986D01*
X11129643Y-16631414D01*
X11315357Y-16631414D01*
X11443928Y-16631414D02*
X11443928Y-16431414D01*
X11443928Y-16459986D02*
X11458214Y-16445700D01*
X11486786Y-16431414D01*
X11529643Y-16431414D01*
X11558214Y-16445700D01*
X11572500Y-16474271D01*
X11572500Y-16631414D01*
X11572500Y-16474271D02*
X11586786Y-16445700D01*
X11615357Y-16431414D01*
X11658214Y-16431414D01*
X11686786Y-16445700D01*
X11701071Y-16474271D01*
X11701071Y-16631414D01*
X11843928Y-16631414D02*
X11843928Y-16431414D01*
X11843928Y-16459986D02*
X11858214Y-16445700D01*
X11886786Y-16431414D01*
X11929643Y-16431414D01*
X11958214Y-16445700D01*
X11972500Y-16474271D01*
X11972500Y-16631414D01*
X11972500Y-16474271D02*
X11986786Y-16445700D01*
X12015357Y-16431414D01*
X12058214Y-16431414D01*
X12086786Y-16445700D01*
X12101071Y-16474271D01*
X12101071Y-16631414D01*
X12686786Y-16317129D02*
X12429643Y-16702843D01*
X13072500Y-16331414D02*
X13101071Y-16331414D01*
X13129643Y-16345700D01*
X13143928Y-16359986D01*
X13158214Y-16388557D01*
X13172500Y-16445700D01*
X13172500Y-16517129D01*
X13158214Y-16574271D01*
X13143928Y-16602843D01*
X13129643Y-16617129D01*
X13101071Y-16631414D01*
X13072500Y-16631414D01*
X13043928Y-16617129D01*
X13029643Y-16602843D01*
X13015357Y-16574271D01*
X13001071Y-16517129D01*
X13001071Y-16445700D01*
X13015357Y-16388557D01*
X13029643Y-16359986D01*
X13043928Y-16345700D01*
X13072500Y-16331414D01*
X13301071Y-16602843D02*
X13315357Y-16617129D01*
X13301071Y-16631414D01*
X13286786Y-16617129D01*
X13301071Y-16602843D01*
X13301071Y-16631414D01*
X13501071Y-16331414D02*
X13529643Y-16331414D01*
X13558214Y-16345700D01*
X13572500Y-16359986D01*
X13586786Y-16388557D01*
X13601071Y-16445700D01*
X13601071Y-16517129D01*
X13586786Y-16574271D01*
X13572500Y-16602843D01*
X13558214Y-16617129D01*
X13529643Y-16631414D01*
X13501071Y-16631414D01*
X13472500Y-16617129D01*
X13458214Y-16602843D01*
X13443928Y-16574271D01*
X13429643Y-16517129D01*
X13429643Y-16445700D01*
X13443928Y-16388557D01*
X13458214Y-16359986D01*
X13472500Y-16345700D01*
X13501071Y-16331414D01*
X13858214Y-16331414D02*
X13801071Y-16331414D01*
X13772500Y-16345700D01*
X13758214Y-16359986D01*
X13729643Y-16402843D01*
X13715357Y-16459986D01*
X13715357Y-16574271D01*
X13729643Y-16602843D01*
X13743928Y-16617129D01*
X13772500Y-16631414D01*
X13829643Y-16631414D01*
X13858214Y-16617129D01*
X13872500Y-16602843D01*
X13886786Y-16574271D01*
X13886786Y-16502843D01*
X13872500Y-16474271D01*
X13858214Y-16459986D01*
X13829643Y-16445700D01*
X13772500Y-16445700D01*
X13743928Y-16459986D01*
X13729643Y-16474271D01*
X13715357Y-16502843D01*
X14072500Y-16331414D02*
X14101071Y-16331414D01*
X14129643Y-16345700D01*
X14143928Y-16359986D01*
X14158214Y-16388557D01*
X14172500Y-16445700D01*
X14172500Y-16517129D01*
X14158214Y-16574271D01*
X14143928Y-16602843D01*
X14129643Y-16617129D01*
X14101071Y-16631414D01*
X14072500Y-16631414D01*
X14043928Y-16617129D01*
X14029643Y-16602843D01*
X14015357Y-16574271D01*
X14001071Y-16517129D01*
X14001071Y-16445700D01*
X14015357Y-16388557D01*
X14029643Y-16359986D01*
X14043928Y-16345700D01*
X14072500Y-16331414D01*
X14286786Y-16331414D02*
X14286786Y-16388557D01*
X14401071Y-16331414D02*
X14401071Y-16388557D01*
X14843928Y-16745700D02*
X14829643Y-16731414D01*
X14801071Y-16688557D01*
X14786786Y-16659986D01*
X14772500Y-16617129D01*
X14758214Y-16545700D01*
X14758214Y-16488557D01*
X14772500Y-16417129D01*
X14786786Y-16374271D01*
X14801071Y-16345700D01*
X14829643Y-16302843D01*
X14843928Y-16288557D01*
X14929643Y-16331414D02*
X15115357Y-16331414D01*
X15015357Y-16445700D01*
X15058214Y-16445700D01*
X15086786Y-16459986D01*
X15101071Y-16474271D01*
X15115357Y-16502843D01*
X15115357Y-16574271D01*
X15101071Y-16602843D01*
X15086786Y-16617129D01*
X15058214Y-16631414D01*
X14972500Y-16631414D01*
X14943928Y-16617129D01*
X14929643Y-16602843D01*
X15472500Y-16631414D02*
X15472500Y-16331414D01*
X15601071Y-16631414D02*
X15601071Y-16474271D01*
X15586786Y-16445700D01*
X15558214Y-16431414D01*
X15515357Y-16431414D01*
X15486786Y-16445700D01*
X15472500Y-16459986D01*
X15786786Y-16631414D02*
X15758214Y-16617129D01*
X15743928Y-16602843D01*
X15729643Y-16574271D01*
X15729643Y-16488557D01*
X15743928Y-16459986D01*
X15758214Y-16445700D01*
X15786786Y-16431414D01*
X15829643Y-16431414D01*
X15858214Y-16445700D01*
X15872500Y-16459986D01*
X15886786Y-16488557D01*
X15886786Y-16574271D01*
X15872500Y-16602843D01*
X15858214Y-16617129D01*
X15829643Y-16631414D01*
X15786786Y-16631414D01*
X16058214Y-16631414D02*
X16029643Y-16617129D01*
X16015357Y-16588557D01*
X16015357Y-16331414D01*
X16286786Y-16617129D02*
X16258214Y-16631414D01*
X16201071Y-16631414D01*
X16172500Y-16617129D01*
X16158214Y-16588557D01*
X16158214Y-16474271D01*
X16172500Y-16445700D01*
X16201071Y-16431414D01*
X16258214Y-16431414D01*
X16286786Y-16445700D01*
X16301071Y-16474271D01*
X16301071Y-16502843D01*
X16158214Y-16531414D01*
X16415357Y-16617129D02*
X16443928Y-16631414D01*
X16501071Y-16631414D01*
X16529643Y-16617129D01*
X16543928Y-16588557D01*
X16543928Y-16574271D01*
X16529643Y-16545700D01*
X16501071Y-16531414D01*
X16458214Y-16531414D01*
X16429643Y-16517129D01*
X16415357Y-16488557D01*
X16415357Y-16474271D01*
X16429643Y-16445700D01*
X16458214Y-16431414D01*
X16501071Y-16431414D01*
X16529643Y-16445700D01*
X16643928Y-16745700D02*
X16658214Y-16731414D01*
X16686786Y-16688557D01*
X16701071Y-16659986D01*
X16715357Y-16617129D01*
X16729643Y-16545700D01*
X16729643Y-16488557D01*
X16715357Y-16417129D01*
X16701071Y-16374271D01*
X16686786Y-16345700D01*
X16658214Y-16302843D01*
X16643928Y-16288557D01*
X9997500Y-16811700D02*
X10157500Y-16971700D01*
X10157500Y-16811700D02*
X9997500Y-16971700D01*
X10134069Y-16948269D02*
X10134069Y-16835131D01*
X10020931Y-16835131D01*
X10020931Y-16948269D01*
X10134069Y-16948269D01*
X10601071Y-17027414D02*
X10429643Y-17027414D01*
X10515357Y-17027414D02*
X10515357Y-16727414D01*
X10486786Y-16770271D01*
X10458214Y-16798843D01*
X10429643Y-16813129D01*
X10729643Y-16998843D02*
X10743928Y-17013129D01*
X10729643Y-17027414D01*
X10715357Y-17013129D01*
X10729643Y-16998843D01*
X10729643Y-17027414D01*
X11001071Y-16727414D02*
X10943928Y-16727414D01*
X10915357Y-16741700D01*
X10901071Y-16755986D01*
X10872500Y-16798843D01*
X10858214Y-16855986D01*
X10858214Y-16970272D01*
X10872500Y-16998843D01*
X10886786Y-17013129D01*
X10915357Y-17027414D01*
X10972500Y-17027414D01*
X11001071Y-17013129D01*
X11015357Y-16998843D01*
X11029643Y-16970272D01*
X11029643Y-16898843D01*
X11015357Y-16870272D01*
X11001071Y-16855986D01*
X10972500Y-16841700D01*
X10915357Y-16841700D01*
X10886786Y-16855986D01*
X10872500Y-16870272D01*
X10858214Y-16898843D01*
X11215357Y-16727414D02*
X11243928Y-16727414D01*
X11272500Y-16741700D01*
X11286786Y-16755986D01*
X11301071Y-16784557D01*
X11315357Y-16841700D01*
X11315357Y-16913129D01*
X11301071Y-16970272D01*
X11286786Y-16998843D01*
X11272500Y-17013129D01*
X11243928Y-17027414D01*
X11215357Y-17027414D01*
X11186786Y-17013129D01*
X11172500Y-16998843D01*
X11158214Y-16970272D01*
X11143928Y-16913129D01*
X11143928Y-16841700D01*
X11158214Y-16784557D01*
X11172500Y-16755986D01*
X11186786Y-16741700D01*
X11215357Y-16727414D01*
X11443928Y-17027414D02*
X11443928Y-16827414D01*
X11443928Y-16855986D02*
X11458214Y-16841700D01*
X11486786Y-16827414D01*
X11529643Y-16827414D01*
X11558214Y-16841700D01*
X11572500Y-16870272D01*
X11572500Y-17027414D01*
X11572500Y-16870272D02*
X11586786Y-16841700D01*
X11615357Y-16827414D01*
X11658214Y-16827414D01*
X11686786Y-16841700D01*
X11701071Y-16870272D01*
X11701071Y-17027414D01*
X11843928Y-17027414D02*
X11843928Y-16827414D01*
X11843928Y-16855986D02*
X11858214Y-16841700D01*
X11886786Y-16827414D01*
X11929643Y-16827414D01*
X11958214Y-16841700D01*
X11972500Y-16870272D01*
X11972500Y-17027414D01*
X11972500Y-16870272D02*
X11986786Y-16841700D01*
X12015357Y-16827414D01*
X12058214Y-16827414D01*
X12086786Y-16841700D01*
X12101071Y-16870272D01*
X12101071Y-17027414D01*
X12686786Y-16713129D02*
X12429643Y-17098843D01*
X13072500Y-16727414D02*
X13101071Y-16727414D01*
X13129643Y-16741700D01*
X13143928Y-16755986D01*
X13158214Y-16784557D01*
X13172500Y-16841700D01*
X13172500Y-16913129D01*
X13158214Y-16970272D01*
X13143928Y-16998843D01*
X13129643Y-17013129D01*
X13101071Y-17027414D01*
X13072500Y-17027414D01*
X13043928Y-17013129D01*
X13029643Y-16998843D01*
X13015357Y-16970272D01*
X13001071Y-16913129D01*
X13001071Y-16841700D01*
X13015357Y-16784557D01*
X13029643Y-16755986D01*
X13043928Y-16741700D01*
X13072500Y-16727414D01*
X13301071Y-16998843D02*
X13315357Y-17013129D01*
X13301071Y-17027414D01*
X13286786Y-17013129D01*
X13301071Y-16998843D01*
X13301071Y-17027414D01*
X13501071Y-16727414D02*
X13529643Y-16727414D01*
X13558214Y-16741700D01*
X13572500Y-16755986D01*
X13586786Y-16784557D01*
X13601071Y-16841700D01*
X13601071Y-16913129D01*
X13586786Y-16970272D01*
X13572500Y-16998843D01*
X13558214Y-17013129D01*
X13529643Y-17027414D01*
X13501071Y-17027414D01*
X13472500Y-17013129D01*
X13458214Y-16998843D01*
X13443928Y-16970272D01*
X13429643Y-16913129D01*
X13429643Y-16841700D01*
X13443928Y-16784557D01*
X13458214Y-16755986D01*
X13472500Y-16741700D01*
X13501071Y-16727414D01*
X13858214Y-16727414D02*
X13801071Y-16727414D01*
X13772500Y-16741700D01*
X13758214Y-16755986D01*
X13729643Y-16798843D01*
X13715357Y-16855986D01*
X13715357Y-16970272D01*
X13729643Y-16998843D01*
X13743928Y-17013129D01*
X13772500Y-17027414D01*
X13829643Y-17027414D01*
X13858214Y-17013129D01*
X13872500Y-16998843D01*
X13886786Y-16970272D01*
X13886786Y-16898843D01*
X13872500Y-16870272D01*
X13858214Y-16855986D01*
X13829643Y-16841700D01*
X13772500Y-16841700D01*
X13743928Y-16855986D01*
X13729643Y-16870272D01*
X13715357Y-16898843D01*
X13986786Y-16727414D02*
X14172500Y-16727414D01*
X14072500Y-16841700D01*
X14115357Y-16841700D01*
X14143928Y-16855986D01*
X14158214Y-16870272D01*
X14172500Y-16898843D01*
X14172500Y-16970272D01*
X14158214Y-16998843D01*
X14143928Y-17013129D01*
X14115357Y-17027414D01*
X14029643Y-17027414D01*
X14001071Y-17013129D01*
X13986786Y-16998843D01*
X14286786Y-16727414D02*
X14286786Y-16784557D01*
X14401071Y-16727414D02*
X14401071Y-16784557D01*
X14843928Y-17141700D02*
X14829643Y-17127414D01*
X14801071Y-17084557D01*
X14786786Y-17055986D01*
X14772500Y-17013129D01*
X14758214Y-16941700D01*
X14758214Y-16884557D01*
X14772500Y-16813129D01*
X14786786Y-16770271D01*
X14801071Y-16741700D01*
X14829643Y-16698843D01*
X14843928Y-16684557D01*
X14929643Y-16727414D02*
X15115357Y-16727414D01*
X15015357Y-16841700D01*
X15058214Y-16841700D01*
X15086786Y-16855986D01*
X15101071Y-16870272D01*
X15115357Y-16898843D01*
X15115357Y-16970272D01*
X15101071Y-16998843D01*
X15086786Y-17013129D01*
X15058214Y-17027414D01*
X14972500Y-17027414D01*
X14943928Y-17013129D01*
X14929643Y-16998843D01*
X15472500Y-17027414D02*
X15472500Y-16727414D01*
X15601071Y-17027414D02*
X15601071Y-16870272D01*
X15586786Y-16841700D01*
X15558214Y-16827414D01*
X15515357Y-16827414D01*
X15486786Y-16841700D01*
X15472500Y-16855986D01*
X15786786Y-17027414D02*
X15758214Y-17013129D01*
X15743928Y-16998843D01*
X15729643Y-16970272D01*
X15729643Y-16884557D01*
X15743928Y-16855986D01*
X15758214Y-16841700D01*
X15786786Y-16827414D01*
X15829643Y-16827414D01*
X15858214Y-16841700D01*
X15872500Y-16855986D01*
X15886786Y-16884557D01*
X15886786Y-16970272D01*
X15872500Y-16998843D01*
X15858214Y-17013129D01*
X15829643Y-17027414D01*
X15786786Y-17027414D01*
X16058214Y-17027414D02*
X16029643Y-17013129D01*
X16015357Y-16984557D01*
X16015357Y-16727414D01*
X16286786Y-17013129D02*
X16258214Y-17027414D01*
X16201071Y-17027414D01*
X16172500Y-17013129D01*
X16158214Y-16984557D01*
X16158214Y-16870272D01*
X16172500Y-16841700D01*
X16201071Y-16827414D01*
X16258214Y-16827414D01*
X16286786Y-16841700D01*
X16301071Y-16870272D01*
X16301071Y-16898843D01*
X16158214Y-16927414D01*
X16415357Y-17013129D02*
X16443928Y-17027414D01*
X16501071Y-17027414D01*
X16529643Y-17013129D01*
X16543928Y-16984557D01*
X16543928Y-16970272D01*
X16529643Y-16941700D01*
X16501071Y-16927414D01*
X16458214Y-16927414D01*
X16429643Y-16913129D01*
X16415357Y-16884557D01*
X16415357Y-16870272D01*
X16429643Y-16841700D01*
X16458214Y-16827414D01*
X16501071Y-16827414D01*
X16529643Y-16841700D01*
X16643928Y-17141700D02*
X16658214Y-17127414D01*
X16686786Y-17084557D01*
X16701071Y-17055986D01*
X16715357Y-17013129D01*
X16729643Y-16941700D01*
X16729643Y-16884557D01*
X16715357Y-16813129D01*
X16701071Y-16770271D01*
X16686786Y-16741700D01*
X16658214Y-16698843D01*
X16643928Y-16684557D01*
X9937500Y-17177700D02*
X10157500Y-17397700D01*
X10157500Y-17177700D02*
X9937500Y-17397700D01*
X10047500Y-17397700D02*
X10157500Y-17287700D01*
X10047500Y-17177700D01*
X9937500Y-17287700D01*
X10047500Y-17397700D01*
X10429643Y-17151986D02*
X10443928Y-17137700D01*
X10472500Y-17123414D01*
X10543928Y-17123414D01*
X10572500Y-17137700D01*
X10586786Y-17151986D01*
X10601071Y-17180557D01*
X10601071Y-17209129D01*
X10586786Y-17251986D01*
X10415357Y-17423414D01*
X10601071Y-17423414D01*
X10729643Y-17394843D02*
X10743928Y-17409129D01*
X10729643Y-17423414D01*
X10715357Y-17409129D01*
X10729643Y-17394843D01*
X10729643Y-17423414D01*
X10858214Y-17151986D02*
X10872500Y-17137700D01*
X10901071Y-17123414D01*
X10972500Y-17123414D01*
X11001071Y-17137700D01*
X11015357Y-17151986D01*
X11029643Y-17180557D01*
X11029643Y-17209129D01*
X11015357Y-17251986D01*
X10843928Y-17423414D01*
X11029643Y-17423414D01*
X11215357Y-17123414D02*
X11243928Y-17123414D01*
X11272500Y-17137700D01*
X11286786Y-17151986D01*
X11301071Y-17180557D01*
X11315357Y-17237700D01*
X11315357Y-17309129D01*
X11301071Y-17366272D01*
X11286786Y-17394843D01*
X11272500Y-17409129D01*
X11243928Y-17423414D01*
X11215357Y-17423414D01*
X11186786Y-17409129D01*
X11172500Y-17394843D01*
X11158214Y-17366272D01*
X11143928Y-17309129D01*
X11143928Y-17237700D01*
X11158214Y-17180557D01*
X11172500Y-17151986D01*
X11186786Y-17137700D01*
X11215357Y-17123414D01*
X11443928Y-17423414D02*
X11443928Y-17223414D01*
X11443928Y-17251986D02*
X11458214Y-17237700D01*
X11486786Y-17223414D01*
X11529643Y-17223414D01*
X11558214Y-17237700D01*
X11572500Y-17266272D01*
X11572500Y-17423414D01*
X11572500Y-17266272D02*
X11586786Y-17237700D01*
X11615357Y-17223414D01*
X11658214Y-17223414D01*
X11686786Y-17237700D01*
X11701071Y-17266272D01*
X11701071Y-17423414D01*
X11843928Y-17423414D02*
X11843928Y-17223414D01*
X11843928Y-17251986D02*
X11858214Y-17237700D01*
X11886786Y-17223414D01*
X11929643Y-17223414D01*
X11958214Y-17237700D01*
X11972500Y-17266272D01*
X11972500Y-17423414D01*
X11972500Y-17266272D02*
X11986786Y-17237700D01*
X12015357Y-17223414D01*
X12058214Y-17223414D01*
X12086786Y-17237700D01*
X12101071Y-17266272D01*
X12101071Y-17423414D01*
X12686786Y-17109129D02*
X12429643Y-17494843D01*
X13072500Y-17123414D02*
X13101071Y-17123414D01*
X13129643Y-17137700D01*
X13143928Y-17151986D01*
X13158214Y-17180557D01*
X13172500Y-17237700D01*
X13172500Y-17309129D01*
X13158214Y-17366272D01*
X13143928Y-17394843D01*
X13129643Y-17409129D01*
X13101071Y-17423414D01*
X13072500Y-17423414D01*
X13043928Y-17409129D01*
X13029643Y-17394843D01*
X13015357Y-17366272D01*
X13001071Y-17309129D01*
X13001071Y-17237700D01*
X13015357Y-17180557D01*
X13029643Y-17151986D01*
X13043928Y-17137700D01*
X13072500Y-17123414D01*
X13301071Y-17394843D02*
X13315357Y-17409129D01*
X13301071Y-17423414D01*
X13286786Y-17409129D01*
X13301071Y-17394843D01*
X13301071Y-17423414D01*
X13501071Y-17123414D02*
X13529643Y-17123414D01*
X13558214Y-17137700D01*
X13572500Y-17151986D01*
X13586786Y-17180557D01*
X13601071Y-17237700D01*
X13601071Y-17309129D01*
X13586786Y-17366272D01*
X13572500Y-17394843D01*
X13558214Y-17409129D01*
X13529643Y-17423414D01*
X13501071Y-17423414D01*
X13472500Y-17409129D01*
X13458214Y-17394843D01*
X13443928Y-17366272D01*
X13429643Y-17309129D01*
X13429643Y-17237700D01*
X13443928Y-17180557D01*
X13458214Y-17151986D01*
X13472500Y-17137700D01*
X13501071Y-17123414D01*
X13772500Y-17251986D02*
X13743928Y-17237700D01*
X13729643Y-17223414D01*
X13715357Y-17194843D01*
X13715357Y-17180557D01*
X13729643Y-17151986D01*
X13743928Y-17137700D01*
X13772500Y-17123414D01*
X13829643Y-17123414D01*
X13858214Y-17137700D01*
X13872500Y-17151986D01*
X13886786Y-17180557D01*
X13886786Y-17194843D01*
X13872500Y-17223414D01*
X13858214Y-17237700D01*
X13829643Y-17251986D01*
X13772500Y-17251986D01*
X13743928Y-17266272D01*
X13729643Y-17280557D01*
X13715357Y-17309129D01*
X13715357Y-17366272D01*
X13729643Y-17394843D01*
X13743928Y-17409129D01*
X13772500Y-17423414D01*
X13829643Y-17423414D01*
X13858214Y-17409129D01*
X13872500Y-17394843D01*
X13886786Y-17366272D01*
X13886786Y-17309129D01*
X13872500Y-17280557D01*
X13858214Y-17266272D01*
X13829643Y-17251986D01*
X13986786Y-17123414D02*
X14186786Y-17123414D01*
X14058214Y-17423414D01*
X14286786Y-17123414D02*
X14286786Y-17180557D01*
X14401071Y-17123414D02*
X14401071Y-17180557D01*
X14843928Y-17537700D02*
X14829643Y-17523414D01*
X14801071Y-17480557D01*
X14786786Y-17451986D01*
X14772500Y-17409129D01*
X14758214Y-17337700D01*
X14758214Y-17280557D01*
X14772500Y-17209129D01*
X14786786Y-17166272D01*
X14801071Y-17137700D01*
X14829643Y-17094843D01*
X14843928Y-17080557D01*
X15086786Y-17223414D02*
X15086786Y-17423414D01*
X15015357Y-17109129D02*
X14943928Y-17323414D01*
X15129643Y-17323414D01*
X15472500Y-17423414D02*
X15472500Y-17123414D01*
X15601071Y-17423414D02*
X15601071Y-17266272D01*
X15586786Y-17237700D01*
X15558214Y-17223414D01*
X15515357Y-17223414D01*
X15486786Y-17237700D01*
X15472500Y-17251986D01*
X15786786Y-17423414D02*
X15758214Y-17409129D01*
X15743928Y-17394843D01*
X15729643Y-17366272D01*
X15729643Y-17280557D01*
X15743928Y-17251986D01*
X15758214Y-17237700D01*
X15786786Y-17223414D01*
X15829643Y-17223414D01*
X15858214Y-17237700D01*
X15872500Y-17251986D01*
X15886786Y-17280557D01*
X15886786Y-17366272D01*
X15872500Y-17394843D01*
X15858214Y-17409129D01*
X15829643Y-17423414D01*
X15786786Y-17423414D01*
X16058214Y-17423414D02*
X16029643Y-17409129D01*
X16015357Y-17380557D01*
X16015357Y-17123414D01*
X16286786Y-17409129D02*
X16258214Y-17423414D01*
X16201071Y-17423414D01*
X16172500Y-17409129D01*
X16158214Y-17380557D01*
X16158214Y-17266272D01*
X16172500Y-17237700D01*
X16201071Y-17223414D01*
X16258214Y-17223414D01*
X16286786Y-17237700D01*
X16301071Y-17266272D01*
X16301071Y-17294843D01*
X16158214Y-17323414D01*
X16415357Y-17409129D02*
X16443928Y-17423414D01*
X16501071Y-17423414D01*
X16529643Y-17409129D01*
X16543928Y-17380557D01*
X16543928Y-17366272D01*
X16529643Y-17337700D01*
X16501071Y-17323414D01*
X16458214Y-17323414D01*
X16429643Y-17309129D01*
X16415357Y-17280557D01*
X16415357Y-17266272D01*
X16429643Y-17237700D01*
X16458214Y-17223414D01*
X16501071Y-17223414D01*
X16529643Y-17237700D01*
X16643928Y-17537700D02*
X16658214Y-17523414D01*
X16686786Y-17480557D01*
X16701071Y-17451986D01*
X16715357Y-17409129D01*
X16729643Y-17337700D01*
X16729643Y-17280557D01*
X16715357Y-17209129D01*
X16701071Y-17166272D01*
X16686786Y-17137700D01*
X16658214Y-17094843D01*
X16643928Y-17080557D01*
M02*
